#N canvas 930 329 462 343 10;
#X obj 117 78 augment --------;
#X obj 162 147 list;
#X obj 163 38 list-len;
#X obj 199 172 list-nth;
#X obj 140 111 t b i;
#X obj 281 200 +;
#X obj 292 -17 inlet;
#X obj 117 245 outlet;
#X text 28 -35 list to filter;
#X obj 54 -17 inlet;
#X text 236 -36 profile to add to every value;
#X connect 0 0 7 0;
#X connect 0 1 4 0;
#X connect 0 2 5 1;
#X connect 1 0 3 0;
#X connect 2 0 0 1;
#X connect 3 0 5 0;
#X connect 4 0 1 0;
#X connect 4 1 3 1;
#X connect 5 0 0 2;
#X connect 6 0 2 0;
#X connect 6 0 1 1;
#X connect 9 0 0 0;
