#N canvas 930 329 462 343 10;
#X obj 117 58 augment --------;
#X obj 162 127 list;
#X obj 163 18 list-len;
#X obj 199 152 list-nth;
#X obj 140 91 t b i;
#X obj 292 -37 inlet;
#X obj 117 225 outlet;
#X text 28 -55 list to filter;
#X obj 54 -37 inlet;
#X obj 281 180 *;
#X text 206 -56 profile to multiply to every value;
#X connect 0 0 6 0;
#X connect 0 1 4 0;
#X connect 0 2 9 1;
#X connect 1 0 3 0;
#X connect 2 0 0 1;
#X connect 3 0 9 0;
#X connect 4 0 1 0;
#X connect 4 1 3 1;
#X connect 5 0 2 0;
#X connect 5 0 1 1;
#X connect 8 0 0 0;
#X connect 9 0 0 2;
