#N canvas 595 138 555 453 10;
#X obj 139 93 list-len;
#X obj 138 119 until;
#X obj 202 186 list;
#X obj 194 262 zl nth;
#X obj 258 184 f 1;
#X obj 293 183 + 1;
#X obj 34 300 print n;
#X obj 258 264 zl nth;
#X obj 269 230 + 1;
#X obj 411 306 print n+1;
#X floatatom 397 223 5 0 0 0 - - -, f 5;
#X floatatom 396 265 5 0 0 0 - - -, f 5;
#X msg 249 109 1;
#X obj 171 49 t l l b;
#X msg 171 27 11 22 33 44 55 66 77;
#N canvas 261 502 450 300 (subpatch) 1;
#X obj 56 33 inlet;
#X obj 156 33 inlet;
#X obj -60 33 inlet;
#X obj -26 235 outlet;
#X text 48 11 value n;
#X text 149 12 value n+1;
#X text -64 12 final length;
#X text 30 236 list of final length;
#X obj -60 87 until;
#X obj -23 113 + 1;
#X obj 14 166 expr $f2 + $i1 * ($f3-$f2)/$i4;
#X obj 14 188 print expr;
#X obj -119 162 print x;
#X obj -60 55 t f b f;
#X msg -14 89 0;
#X obj -58 114 f;
#X connect 0 0 10 1;
#X connect 1 0 10 2;
#X connect 2 0 13 0;
#X connect 8 0 15 0;
#X connect 9 0 15 1;
#X connect 10 0 11 0;
#X connect 13 0 8 0;
#X connect 13 1 14 0;
#X connect 13 2 10 3;
#X connect 14 0 15 1;
#X connect 15 0 9 0;
#X connect 15 0 10 0;
#X connect 15 0 12 0;
#X restore 155 324 pd, f 14;
#X msg 381 24 3;
#X obj 138 220 f;
#X obj 138 141 t b b b;
#X connect 0 0 1 0;
#X connect 1 0 18 0;
#X connect 2 0 3 0;
#X connect 2 0 7 0;
#X connect 3 0 6 0;
#X connect 3 0 15 1;
#X connect 4 0 5 0;
#X connect 4 0 3 1;
#X connect 4 0 8 0;
#X connect 4 0 10 0;
#X connect 5 0 4 1;
#X connect 7 0 9 0;
#X connect 7 0 15 2;
#X connect 8 0 7 1;
#X connect 8 0 11 0;
#X connect 12 0 4 1;
#X connect 13 0 0 0;
#X connect 13 1 2 1;
#X connect 13 2 12 0;
#X connect 14 0 13 0;
#X connect 16 0 17 1;
#X connect 17 0 15 0;
#X connect 18 0 17 0;
#X connect 18 1 2 0;
#X connect 18 2 4 0;
