#N canvas 544 85 978 832 10;
#X obj 179 211 list-len;
#X obj 180 233 until;
#X obj 296 300 list;
#X obj 268 364 zl nth;
#X obj 348 300 f 1;
#X obj 383 299 + 1;
#X obj 315 364 zl nth;
#X obj 348 338 + 1;
#X msg 363 263 1;
#X obj 180 366 f;
#X obj 180 255 t b b b;
#X obj 290 579 until;
#X obj 327 605 + 1;
#X msg 336 581 0;
#X obj 292 606 f;
#X obj 180 416 t b f b f;
#X obj 180 556 list-concat;
#X obj 116 98 t b l l b;
#X obj 104 602 list-concat;
#X obj 104 665 outlet;
#X obj 116 56 inlet;
#X obj 406 56 inlet;
#X obj 343 665 outlet;
#X obj 400 665 outlet;
#X obj 457 665 outlet;
#X obj 514 665 outlet;
#X text 354 774 #4 next value (n+1) from the original list;
#X text 84 687 #1 augmented list;
#X text 80 34 #1 list to be augmented;
#X text 306 22 #2 number of values which will replace every value in
the original list \, making it augmented.;
#X text 354 719 #2 index (zero based) of the value being calculated
within the sublist to replace one value of the original list.;
#X text 354 747 #3 value (n) from the original list \, to be replaced
with a sublist.;
#X obj 694 56 inlet;
#X text 690 31 #3 value generated by external expr;
#X text 329 687 outlets to external expr to calculate values (#2 MUST
ALWAYS BE CONNECTED);
#X text 354 789 #5 length of the augmented sublist (equals inlet #2)
;
#X connect 0 0 1 0;
#X connect 1 0 10 0;
#X connect 2 0 3 0;
#X connect 2 0 6 0;
#X connect 3 0 23 0;
#X connect 4 0 5 0;
#X connect 4 0 3 1;
#X connect 4 0 7 0;
#X connect 5 0 4 1;
#X connect 6 0 24 0;
#X connect 7 0 6 1;
#X connect 8 0 4 1;
#X connect 9 0 15 0;
#X connect 10 0 9 0;
#X connect 10 1 2 0;
#X connect 10 2 4 0;
#X connect 11 0 14 0;
#X connect 12 0 14 1;
#X connect 13 0 14 1;
#X connect 14 0 12 0;
#X connect 14 0 22 0;
#X connect 15 0 16 0;
#X connect 15 1 11 0;
#X connect 15 2 13 0;
#X connect 15 2 16 2;
#X connect 15 3 25 0;
#X connect 16 0 18 1;
#X connect 17 0 18 0;
#X connect 17 1 0 0;
#X connect 17 2 2 1;
#X connect 17 3 8 0;
#X connect 17 3 18 2;
#X connect 18 0 19 0;
#X connect 20 0 17 0;
#X connect 21 0 9 1;
#X connect 32 0 16 1;
