#N canvas 806 103 450 300 10;
#X obj 83 17 inlet;
#X obj 220 30 inlet;
#X obj 298 29 inlet;
#X obj 151 266 outlet;
#X obj 108 57 list-minmax;
#X obj 98 181 expr $i2 - $i1;
#X obj 223 182 expr $i2 - $i1;
#X floatatom 80 83 5 0 0 0 - - -, f 5;
#X floatatom 181 82 5 0 0 0 - - -, f 5;
#X floatatom 220 52 5 0 0 0 - - -, f 5;
#X floatatom 298 51 5 0 0 0 - - -, f 5;
#X floatatom 223 204 5 0 0 0 - - -, f 5;
#X floatatom 98 203 5 0 0 0 - - -, f 5;
#X obj 34 137 list-math;
#X connect 0 0 4 0;
#X connect 0 0 13 0;
#X connect 1 0 9 0;
#X connect 2 0 10 0;
#X connect 4 0 5 0;
#X connect 4 0 7 0;
#X connect 4 1 5 1;
#X connect 4 1 8 0;
#X connect 5 0 12 0;
#X connect 6 0 11 0;
#X connect 9 0 6 0;
#X connect 10 0 6 1;
