#N canvas 804 106 446 336 10;
#X obj 83 41 inlet;
#X obj 298 41 inlet;
#X obj 363 41 inlet;
#X obj 20 303 outlet;
#X obj 108 83 list-minmax;
#X floatatom 116 104 5 0 0 0 - - -, f 5;
#X floatatom 181 102 5 0 0 0 - - -, f 5;
#X floatatom 316 58 5 0 0 0 - - -, f 5;
#X floatatom 382 58 5 0 0 0 - - -, f 5;
#X floatatom 234 207 5 0 0 0 - - -, f 5;
#X floatatom 108 152 5 0 0 0 - - -, f 5;
#X obj 20 218 list-math -;
#X obj 108 129 expr $f2 - $f1;
#X obj 234 185 expr ($f3 - $f2) / $f1;
#X obj 20 242 list-math *;
#X obj 20 266 list-math +;
#X text 16 23 List to fit within boundaries;
#X text 289 23 New min;
#X text 361 23 New max;
#X connect 0 0 4 0;
#X connect 0 0 11 0;
#X connect 1 0 7 0;
#X connect 1 0 15 1;
#X connect 1 0 13 1;
#X connect 2 0 8 0;
#X connect 2 0 13 2;
#X connect 4 0 11 1;
#X connect 4 0 12 0;
#X connect 4 0 5 0;
#X connect 4 1 6 0;
#X connect 4 1 12 1;
#X connect 11 0 14 0;
#X connect 12 0 10 0;
#X connect 12 0 13 0;
#X connect 13 0 9 0;
#X connect 13 0 14 1;
#X connect 14 0 15 0;
#X connect 15 0 3 0;
