#N canvas 284 112 1063 786 10;
#X obj 262 207 gen-fun;
#X obj 215 292 until;
#X obj 215 268 - 1;
#X obj 241 360 list;
#X obj 229 394 augment, f 17;
#X floatatom 325 125 5 0 0 0 - - -, f 5;
#X obj 48 124 bng 15 250 50 0 empty empty empty 17 7 0 10 -262144 -1
-1;
#X floatatom 186 124 5 0 0 0 - - -, f 5;
#X obj 281 183 + 1;
#X obj 418 439 pow 1;
#X floatatom 418 461 5 0 0 0 - - -, f 5;
#X obj 222 543 expr $f2 + ($f3-$f2)*$i1/$i4 + $f5*$f6;
#X obj 376 359 + 1;
#X obj 348 359 i 1;
#X obj 215 316 t b b b;
#X obj 307 360 f;
#X obj 215 245 i;
#X text 179 17 inlet 2: number of iterations;
#X text 179 38 inlet 3: number of values per iteration;
#X text 179 58 inlet 4: factor applied to second and further iterations
of the function.;
#X obj 124 620 fit, f 9;
#X obj 124 643 list-round;
#X obj 124 667 outlet;
#X obj 124 588 sublist;
#X msg 143 564 1, f 2;
#X obj 49 668 outlet;
#X obj 171 262 pow;
#X floatatom 171 284 5 0 0 0 - - -, f 5;
#X obj 240 424 t f f;
#X obj 367 459 t f f;
#X obj 490 577 i;
#X obj 533 586 i;
#X obj 578 103 inlet;
#X obj 632 103 inlet;
#X floatatom 432 125 5 0 0 0 - - -, f 5;
#X obj 110 496 list;
#X obj 81 162 t b b b;
#X obj 827 103 inlet;
#X obj 728 657 outlet;
#X obj 804 656 outlet;
#X text 569 53 inlet 5: minimum value to fit results;
#X text 569 73 inlet 6: maximum value to fit results;
#X obj 48 103 inlet;
#X obj 186 103 inlet;
#X obj 325 103 inlet;
#X obj 432 103 inlet;
#X text 10 17 inlet 1: start generation;
#X text 825 66 inlet 7: input from external expr;
#X text 65 713 outlet 2: fit result;
#X text 645 693 outlet 3: index sent to external expr;
#X text 645 713 outlet 4: number of values per iteration (to be sent
to external expr)(same as inlet 3);
#X text 35 693 outlet 1: result before fitting;
#X msg 363 314 1;
#X obj 131 235 i;
#X connect 0 0 3 1;
#X connect 0 1 38 0;
#X connect 1 0 14 0;
#X connect 2 0 1 0;
#X connect 3 0 4 0;
#X connect 4 0 3 1;
#X connect 4 0 35 1;
#X connect 4 1 28 0;
#X connect 4 2 11 1;
#X connect 4 3 11 2;
#X connect 4 4 29 0;
#X connect 5 0 4 1;
#X connect 5 0 8 0;
#X connect 5 0 39 0;
#X connect 5 0 53 1;
#X connect 6 0 36 0;
#X connect 7 0 16 1;
#X connect 7 0 26 1;
#X connect 8 0 0 1;
#X connect 9 0 10 0;
#X connect 10 0 11 4;
#X connect 11 0 4 2;
#X connect 12 0 13 1;
#X connect 13 0 12 0;
#X connect 13 0 9 1;
#X connect 14 0 3 0;
#X connect 14 1 15 0;
#X connect 14 2 13 0;
#X connect 15 0 9 0;
#X connect 16 0 2 0;
#X connect 20 0 21 0;
#X connect 21 0 22 0;
#X connect 23 0 20 0;
#X connect 23 0 25 0;
#X connect 24 0 23 1;
#X connect 26 0 27 0;
#X connect 27 0 24 0;
#X connect 27 0 23 2;
#X connect 28 0 11 0;
#X connect 28 1 38 0;
#X connect 29 0 11 3;
#X connect 29 1 39 0;
#X connect 30 0 20 1;
#X connect 31 0 20 2;
#X connect 32 0 30 0;
#X connect 33 0 31 0;
#X connect 34 0 15 1;
#X connect 35 0 23 0;
#X connect 36 0 35 0;
#X connect 36 1 16 0;
#X connect 36 1 53 0;
#X connect 36 2 0 0;
#X connect 36 2 52 0;
#X connect 37 0 0 2;
#X connect 37 0 11 5;
#X connect 42 0 6 0;
#X connect 43 0 7 0;
#X connect 44 0 5 0;
#X connect 45 0 34 0;
#X connect 52 0 13 1;
#X connect 53 0 26 0;
