#N canvas 657 104 578 614 10;
#X obj 91 200 list;
#X obj 91 234 list append;
#X obj 120 352 + 1;
#X floatatom 120 374 5 0 0 0 - - -, f 5;
#X obj 91 329 bng 15 250 50 0 empty empty empty 17 7 0 10 -262144 -1
-1;
#X obj 91 352 f 1;
#X obj 230 47 inlet;
#X obj 15 47 inlet;
#X obj 220 538 outlet;
#X obj 91 405 moses;
#X msg 364 171 list;
#X obj 364 143 bng 15 250 50 0 empty empty empty 17 7 0 10 -262144
-1 -1;
#X msg 411 170 1;
#X msg 162 428 list;
#X obj 220 453 list append;
#X obj 91 284 t b a;
#X obj 381 311 f 1;
#X obj 376 47 inlet;
#X obj 383 538 outlet;
#X obj 15 68 bng 15 250 50 0 empty empty empty 17 7 0 10 -262144 -1
-1;
#X floatatom 230 66 5 0 0 0 - - -, f 5;
#X text 344 125 reset;
#X obj 15 95 t b b;
#X obj 15 135 t b b;
#X text -1 12 bang Start generation;
#X text 201 12 float Size of generated list;
#X text 368 12 value from outlet of external expr;
#X text 376 558 index to inlet of external expr;
#X text 217 558 Built list;
#X connect 0 0 1 0;
#X connect 1 0 0 1;
#X connect 1 0 15 0;
#X connect 2 0 3 0;
#X connect 2 0 5 1;
#X connect 2 0 16 1;
#X connect 4 0 5 0;
#X connect 5 0 2 0;
#X connect 5 0 9 0;
#X connect 6 0 20 0;
#X connect 7 0 19 0;
#X connect 9 0 23 0;
#X connect 9 1 13 0;
#X connect 10 0 0 1;
#X connect 10 0 1 1;
#X connect 10 0 14 1;
#X connect 11 0 10 0;
#X connect 11 0 12 0;
#X connect 12 0 5 1;
#X connect 12 0 16 1;
#X connect 13 0 14 0;
#X connect 14 0 8 0;
#X connect 15 0 4 0;
#X connect 15 1 14 1;
#X connect 16 0 18 0;
#X connect 17 0 1 1;
#X connect 19 0 22 0;
#X connect 20 0 9 1;
#X connect 22 0 23 0;
#X connect 22 1 11 0;
#X connect 23 0 0 0;
#X connect 23 1 16 0;
