#N canvas 1418 333 450 560 10;
#X obj 235 38 inlet;
#X obj 77 38 inlet;
#X obj 13 513 outlet;
#X text -9 19 bang Start generation;
#X text 170 18 float Size of generated list;
#X obj 160 213 until;
#X obj 187 268 random 128;
#X floatatom 195 288 5 0 0 0 - - -, f 5;
#X obj 85 325 list;
#X obj 124 348 list append;
#X obj 160 239 t b b;
#X obj 133 186 t b f;
#X obj 13 469 list;
#X obj 133 74 bng 15 250 50 0 empty empty empty 17 7 0 10 -262144 -1
-1;
#X msg 299 283 list;
#X obj 133 94 t b b;
#X obj 133 143 f 1;
#X text 233 176 reset;
#X connect 0 0 16 1;
#X connect 1 0 13 0;
#X connect 5 0 10 0;
#X connect 6 0 7 0;
#X connect 6 0 9 1;
#X connect 8 0 9 0;
#X connect 9 0 8 1;
#X connect 9 0 12 1;
#X connect 10 0 8 0;
#X connect 10 1 6 0;
#X connect 11 0 12 0;
#X connect 11 1 5 0;
#X connect 12 0 2 0;
#X connect 13 0 15 0;
#X connect 14 0 8 1;
#X connect 14 0 9 1;
#X connect 14 0 12 1;
#X connect 15 0 16 0;
#X connect 15 1 14 0;
#X connect 16 0 11 0;
