#N canvas 558 253 676 531 10;
#X obj 48 47 inlet;
#X obj -167 47 inlet;
#X obj -167 459 outlet;
#X msg 69 286 list;
#X msg -30 231 1;
#X obj 194 47 inlet;
#X obj 201 459 outlet;
#X text -42 159 reset;
#X text -205 23 bang Start generation;
#X text -24 23 float Size of generated list;
#X text 174 23 value from outlet of external expr;
#X text 138 479 index to inlet of external expr;
#X text -180 479 Built list;
#X obj -140 218 until;
#X obj -140 244 t b b;
#X obj -167 191 t b f;
#X obj -167 143 f 1;
#X obj -167 88 bng 15 250 50 0 empty empty empty 17 7 0 10 -262144
-1 -1;
#X obj -167 108 t b b;
#X floatatom 48 84 5 0 0 0 - - -, f 5;
#X obj -140 312 list;
#X obj -97 340 list append;
#X obj -167 428 list;
#X obj -58 276 + 1;
#X obj -91 277 f 1;
#X obj -30 180 bng 15 250 50 0 empty empty empty 17 7 0 10 -262144
-1 -1;
#X connect 0 0 19 0;
#X connect 1 0 17 0;
#X connect 3 0 20 1;
#X connect 3 0 21 1;
#X connect 3 0 22 1;
#X connect 4 0 23 1;
#X connect 5 0 21 1;
#X connect 13 0 14 0;
#X connect 14 0 20 0;
#X connect 14 1 24 0;
#X connect 15 0 22 0;
#X connect 15 1 13 0;
#X connect 16 0 15 0;
#X connect 17 0 18 0;
#X connect 18 0 16 0;
#X connect 18 1 25 0;
#X connect 19 0 16 1;
#X connect 20 0 21 0;
#X connect 21 0 20 1;
#X connect 21 0 22 1;
#X connect 22 0 2 0;
#X connect 23 0 24 1;
#X connect 24 0 23 0;
#X connect 24 0 6 0;
#X connect 25 0 4 0;
#X connect 25 0 3 0;
