#N canvas 429 141 517 779 10;
#X obj 102 217 list length;
#X obj 102 249 until, f 12;
#X obj 129 306 list;
#X obj 198 560 f;
#X obj 268 344 % 12;
#X obj 184 392 -;
#X obj 276 523 t b b;
#X obj 238 317 + 1;
#X obj 122 183 t a a b;
#X obj 129 328 list-idx;
#X obj 131 81 t b f, f 20;
#X obj 131 140 list, f 13;
#X obj 201 295 f;
#X obj 53 267 bng 15 250 50 0 empty empty empty 17 7 0 10 -262144 -1
-1;
#X floatatom 272 361 5 0 0 0 - - -, f 5;
#X obj 201 217 f 0;
#X obj 184 436 moses 0;
#X obj 230 480 moses 1;
#X obj 184 458 t b f;
#X obj 383 274 bng 15 250 50 0 empty empty empty 17 7 0 10 -262144
-1 -1;
#X obj 230 503 t f b;
#X obj 347 636 +;
#X obj 349 55 inlet scale;
#X obj 131 55 inlet value;
#X obj 347 698 outlet;
#X text 114 33 value to intone;
#X text 287 34 scale to adjust the value to;
#X text 326 723 intoned value;
#X connect 0 0 1 0;
#X connect 1 0 2 0;
#X connect 2 0 9 0;
#X connect 3 0 21 0;
#X connect 4 0 5 1;
#X connect 4 0 14 0;
#X connect 5 0 16 0;
#X connect 6 0 3 0;
#X connect 6 1 19 0;
#X connect 7 0 12 1;
#X connect 8 0 0 0;
#X connect 8 1 2 1;
#X connect 8 2 15 0;
#X connect 9 0 5 0;
#X connect 10 0 11 0;
#X connect 10 1 4 0;
#X connect 10 1 21 1;
#X connect 11 0 8 0;
#X connect 12 0 9 1;
#X connect 12 0 7 0;
#X connect 13 0 12 0;
#X connect 15 0 12 0;
#X connect 16 0 18 0;
#X connect 16 1 17 0;
#X connect 17 0 20 0;
#X connect 17 1 6 0;
#X connect 18 0 13 0;
#X connect 18 1 3 1;
#X connect 19 0 1 1;
#X connect 20 0 3 0;
#X connect 20 1 19 0;
#X connect 21 0 24 0;
#X connect 22 0 11 1;
#X connect 23 0 10 0;
