#N canvas 1030 118 519 509 10;
#X obj 97 70 inlet list;
#X obj 361 70 inlet scale;
#X obj 182 244 list;
#X obj 152 164 list length;
#X obj 152 186 until;
#X obj 182 272 list-idx;
#X obj 299 265 + 1;
#X obj 262 243 f;
#X obj 262 184 f 0;
#X obj 290 351 list;
#X obj 357 323 bng 15 250 50 0 empty empty empty 17 7 0 10 -262144
-1 -1;
#X obj 97 92 t b a a b, f 24;
#X obj 97 417 list;
#X obj 97 439 outlet;
#X obj 115 208 bng 15 250 50 0 empty empty empty 17 7 0 10 -262144
-1 -1;
#X obj 182 326 list prepend;
#X obj 182 294 intone, f 26;
#X text 29 46 list of midi notes to intone;
#X text 285 46 scale to adjust the notest to;
#X text 86 464 intoned notes;
#X connect 0 0 11 0;
#X connect 1 0 16 1;
#X connect 2 0 5 0;
#X connect 3 0 4 0;
#X connect 4 0 2 0;
#X connect 5 0 16 0;
#X connect 6 0 7 1;
#X connect 7 0 6 0;
#X connect 7 0 5 1;
#X connect 8 0 7 0;
#X connect 9 0 15 1;
#X connect 10 0 9 1;
#X connect 10 0 15 1;
#X connect 11 0 12 0;
#X connect 11 1 3 0;
#X connect 11 2 2 1;
#X connect 11 3 8 0;
#X connect 11 3 10 0;
#X connect 12 0 13 0;
#X connect 14 0 7 0;
#X connect 15 0 9 0;
#X connect 15 0 12 1;
#X connect 15 0 14 0;
#X connect 16 0 15 0;
