#N canvas 573 253 557 565 10;
#X obj 148 100 inlet;
#X obj 53 125 bng 15 250 50 0 empty empty empty 17 7 0 10 -262144 -1
-1;
#X floatatom 289 380 5 0 0 0 - - -, f 5;
#X obj 241 100 inlet;
#X obj 117 363 list-rnd;
#X msg 317 159 0;
#X msg 241 159 1;
#X msg 279 159 2;
#X obj 261 214 f 0;
#X obj 241 137 route RND RNR;
#X obj 261 257 route 1 2;
#X obj 53 100 inlet;
#X obj 475 285 bng 15 250 50 0 empty empty empty 17 7 0 10 -262144
-1 -1;
#X obj 475 100 inlet;
#X text 473 77 reset;
#X text 147 77 list;
#X obj 196 473 outlet;
#X text 157 495 Next item from the list;
#X floatatom 269 231 5 0 0 0 - - -, f 5;
#X floatatom 137 380 5 0 0 0 - - -, f 5;
#X text 213 31 choice strategy:;
#X text 213 47 · RND - random;
#X text 213 60 · RNR - random (no repeat);
#X text 213 74 · (any other \, default) - ordered;
#X text 38 77 get item;
#X obj 264 363 list-next;
#X floatatom 212 380 5 0 0 0 - - -, f 5;
#X obj 187 363 list-rnr;
#X connect 0 0 4 1;
#X connect 0 0 25 1;
#X connect 0 0 27 1;
#X connect 1 0 8 0;
#X connect 3 0 9 0;
#X connect 4 0 19 0;
#X connect 4 0 16 0;
#X connect 5 0 8 1;
#X connect 6 0 8 1;
#X connect 7 0 8 1;
#X connect 8 0 10 0;
#X connect 8 0 18 0;
#X connect 9 0 6 0;
#X connect 9 1 7 0;
#X connect 9 2 5 0;
#X connect 10 0 4 0;
#X connect 10 1 27 0;
#X connect 10 2 25 0;
#X connect 11 0 1 0;
#X connect 12 0 25 2;
#X connect 12 0 27 2;
#X connect 13 0 12 0;
#X connect 25 0 2 0;
#X connect 25 0 16 0;
#X connect 27 0 26 0;
#X connect 27 0 16 0;
