#N canvas 319 222 357 478 10;
#X obj 71 202 until;
#X obj 104 254 list;
#X obj 104 276 list-shuffle;
#X obj 104 298 list;
#X obj 48 377 list;
#X obj 153 323 list;
#X obj 71 120 bng 15 250 50 0 empty empty empty 17 7 0 10 -262144 -1
-1;
#X obj 71 227 bng 15 250 50 0 empty empty empty 17 7 0 10 -262144 -1
-1;
#X obj 48 89 t b b a;
#X msg 236 281 list;
#X obj 48 40 inlet;
#X obj 48 399 outlet;
#X obj 71 146 f \$1;
#X obj 71 173 default 1;
#X text 45 17 Original list;
#X text 10 428 The list repeated n times \, shuffled every time;
#X obj 222 40 inlet;
#X text 191 20 shuffle n times;
#X connect 0 0 7 0;
#X connect 1 0 2 0;
#X connect 2 0 3 0;
#X connect 3 0 5 0;
#X connect 4 0 11 0;
#X connect 5 0 3 1;
#X connect 5 0 4 1;
#X connect 6 0 12 0;
#X connect 7 0 1 0;
#X connect 8 0 4 0;
#X connect 8 1 6 0;
#X connect 8 2 1 1;
#X connect 8 2 9 0;
#X connect 9 0 3 1;
#X connect 9 0 5 1;
#X connect 10 0 8 0;
#X connect 12 0 13 0;
#X connect 13 0 0 0;
#X connect 16 0 12 1;
