#N canvas 540 114 426 625 10;
#X obj 186 34 inlet;
#X obj 53 34 inlet;
#X text 190 14 list;
#X obj 310 34 inlet;
#X text 309 14 reset;
#X text 54 14 bang;
#X text 83 558 One random item from the list.;
#X text 24 578 No item is repeated until all of them have been used.
;
#X obj 243 370 + 1;
#X floatatom 215 412 5 0 0 0 - - -, f 5;
#X obj 93 286 zl nth 1;
#X floatatom 239 503 5 0 0 0 - - -, f 5;
#X obj 239 477 + 1;
#X obj 268 255 zl len;
#X floatatom 268 412 5 0 0 0 - - -, f 5;
#X obj 239 434 %;
#X floatatom 239 458 5 0 0 0 - - -, f 5;
#X floatatom 131 514 5 0 0 0 - - -, f 5;
#X obj 215 370 f 1;
#X obj 77 207 list;
#X msg 151 259 1;
#X obj 131 535 outlet;
#X obj 140 336 bng 15 250 50 0 empty empty empty 17 7 0 10 -262144
-1 -1;
#X obj 53 61 bng 15 250 50 0 empty empty empty 17 7 0 10 -262144 -1
-1;
#X obj 122 106 list;
#X obj 93 308 t f b;
#X obj 128 68 t b a;
#X obj 28 479 moses 1;
#X obj 28 115 bng 15 250 50 0 empty empty empty 17 7 0 10 -262144 -1
-1;
#X obj 102 169 list-shuffle;
#X connect 0 0 13 0;
#X connect 0 0 26 0;
#X connect 1 0 23 0;
#X connect 3 0 20 0;
#X connect 8 0 18 1;
#X connect 9 0 15 0;
#X connect 10 0 25 0;
#X connect 11 0 10 1;
#X connect 12 0 11 0;
#X connect 13 0 14 0;
#X connect 14 0 15 1;
#X connect 15 0 16 0;
#X connect 15 0 27 0;
#X connect 16 0 12 0;
#X connect 17 0 21 0;
#X connect 18 0 8 0;
#X connect 18 0 9 0;
#X connect 19 0 10 0;
#X connect 20 0 18 1;
#X connect 20 0 10 1;
#X connect 22 0 18 0;
#X connect 23 0 19 0;
#X connect 24 0 29 0;
#X connect 25 0 17 0;
#X connect 25 1 22 0;
#X connect 26 0 24 0;
#X connect 26 1 24 1;
#X connect 27 0 28 0;
#X connect 28 0 24 0;
#X connect 29 0 19 1;
