#N canvas 1373 237 459 534 10;
#X obj 22 -249 inlet;
#X obj 313 -226 bng 15 250 50 0 empty empty empty 17 7 0 10 -262144
-1 -1;
#X obj 184 18 list-next;
#X floatatom 209 35 5 0 0 0 - - -, f 5;
#X obj 121 -249 inlet;
#X obj 22 18 list-rnd;
#X msg 196 -186 0;
#X msg 121 -186 1;
#X msg 158 -186 2;
#X obj 166 -91 f 0;
#X obj 121 -208 route RND RNR;
#X obj 166 -48 route 1 2;
#X obj 313 -251 inlet;
#X obj 380 -226 bng 15 250 50 0 empty empty empty 17 7 0 10 -262144
-1 -1;
#X obj 380 -251 inlet;
#X text 378 -268 reset;
#X text 21 -268 list;
#X obj 110 128 outlet;
#X text 71 150 Next item from the list;
#X floatatom 174 -74 5 0 0 0 - - -, f 5;
#X text 88 -307 choice strategy: RND - random RNR - random (no repeat)
(any other \, default) - ordered;
#X text 305 -281 get item (bang);
#X floatatom 42 35 5 0 0 0 - - -, f 5;
#X connect 0 0 2 0;
#X connect 0 0 5 0;
#X connect 1 0 9 0;
#X connect 2 0 3 0;
#X connect 2 0 17 0;
#X connect 4 0 10 0;
#X connect 5 0 22 0;
#X connect 5 0 17 0;
#X connect 6 0 9 1;
#X connect 7 0 9 1;
#X connect 8 0 9 1;
#X connect 9 0 11 0;
#X connect 9 0 19 0;
#X connect 10 0 7 0;
#X connect 10 1 8 0;
#X connect 10 2 6 0;
#X connect 11 0 5 1;
#X connect 11 2 2 1;
#X connect 12 0 1 0;
#X connect 13 0 2 2;
#X connect 14 0 13 0;
