#N canvas 1038 254 479 757 10;
#X obj 155 32 inlet;
#X obj 255 683 outlet;
#X text 148 11 Original list;
#X text 250 707 Shuffled list;
#X obj 164 215 random;
#X obj 202 178 zl len;
#X obj 164 237 + 1;
#X obj 75 92 t a b a;
#X obj 95 295 list split;
#X obj 150 479 list;
#X obj 98 373 zl len;
#X obj 75 336 t a a;
#X obj 44 426 list split;
#X obj 98 395 - 1;
#X obj 316 503 list;
#X obj 273 116 list;
#X obj 150 535 zl len;
#X obj 255 647 list;
#X obj 150 575 moses 1;
#X obj 174 609 bng 15 250 50 0 empty empty empty 17 7 0 10 -262144
-1 -1;
#X obj 401 526 bng 15 250 50 0 empty empty empty 17 7 0 10 -262144
-1 -1;
#X msg 362 79 list;
#X obj 96 170 t a a;
#X obj 150 507 t a a;
#X obj 210 477 list prepend;
#X connect 0 0 7 0;
#X connect 0 0 21 0;
#X connect 4 0 6 0;
#X connect 5 0 4 1;
#X connect 6 0 8 1;
#X connect 7 0 22 0;
#X connect 7 1 4 0;
#X connect 7 2 5 0;
#X connect 8 0 11 0;
#X connect 8 1 9 1;
#X connect 9 0 23 0;
#X connect 10 0 13 0;
#X connect 11 0 12 0;
#X connect 11 1 10 0;
#X connect 12 0 9 0;
#X connect 12 1 24 0;
#X connect 13 0 12 1;
#X connect 14 0 17 1;
#X connect 14 0 24 1;
#X connect 15 0 7 0;
#X connect 16 0 18 0;
#X connect 17 0 1 0;
#X connect 18 0 19 0;
#X connect 18 1 20 0;
#X connect 19 0 17 0;
#X connect 20 0 15 0;
#X connect 21 0 14 1;
#X connect 21 0 17 1;
#X connect 21 0 15 1;
#X connect 21 0 24 1;
#X connect 22 0 8 0;
#X connect 23 0 16 0;
#X connect 23 1 15 1;
#X connect 24 0 14 0;
