#N struct 1019-f float x;
#N canvas 377 403 572 531 10;
#X obj 97 70 inlet list;
#X obj 361 70 inlet scale;
#X obj 97 439 outlet;
#X text 29 46 list of midi notes to intone;
#X text 285 46 scale to adjust the notest to;
#X text 86 464 intoned notes;
#X obj 186 215 list-map;
#X obj 262 215 intone;
#X obj 361 92 list-sort asc;
#X obj 361 114 list-map;
#X obj 432 114 % 12;
#X text 252 299 but this patch checks that;
#X text 252 309 the scale is ordered and zero-based.;
#X text 252 289 list-map x intone is enough;
#X connect 0 0 6 0;
#X connect 1 0 8 0;
#X connect 6 0 2 0;
#X connect 6 1 7 0;
#X connect 7 0 6 1;
#X connect 8 0 9 0;
#X connect 9 0 7 1;
#X connect 9 1 10 0;
#X connect 10 0 9 1;
