#N canvas 1020 117 667 757 10;
#X obj 59 27 inlet;
#X obj 59 703 outlet;
#X text 52 11 Original list;
#X text 54 727 Shuffled list;
#X obj 230 127 until;
#X text 524 431 reset;
#X obj 575 451 bng 15 250 50 0 empty empty empty 17 7 0 10 -262144
-1 -1;
#X obj 377 180 list;
#X obj 230 97 list length;
#X obj 59 49 t b a a b, f 74;
#X obj 196 296 random;
#X obj 196 318 + 1;
#X obj 173 224 t a b a;
#X obj 129 347 list split;
#X obj 203 535 list;
#X obj 121 388 t a a;
#X obj 86 478 list split;
#X obj 153 447 - 1;
#X obj 550 563 list;
#X obj 445 539 list prepend;
#X obj 235 269 list length;
#X obj 153 425 list length;
#X obj 59 620 list;
#X connect 0 0 9 0;
#X connect 4 0 7 0;
#X connect 6 0 19 1;
#X connect 6 0 18 1;
#X connect 6 0 22 1;
#X connect 7 0 12 0;
#X connect 8 0 4 0;
#X connect 9 0 22 0;
#X connect 9 1 8 0;
#X connect 9 2 7 1;
#X connect 9 3 6 0;
#X connect 10 0 11 0;
#X connect 11 0 13 1;
#X connect 12 0 13 0;
#X connect 12 1 10 0;
#X connect 12 2 20 0;
#X connect 13 0 15 0;
#X connect 13 1 14 1;
#X connect 14 0 7 1;
#X connect 15 0 16 0;
#X connect 15 1 21 0;
#X connect 16 0 14 0;
#X connect 16 1 19 0;
#X connect 17 0 16 1;
#X connect 18 0 19 1;
#X connect 18 0 22 1;
#X connect 19 0 18 0;
#X connect 20 0 10 1;
#X connect 21 0 17 0;
#X connect 22 0 1 0;
