#N canvas 481 115 1199 536 10;
#X obj 1104 446 bng 15 250 50 0 empty empty empty 17 7 0 10 -262144
-1 -1;
#X obj 529 36 inlet;
#X obj 509 94 bng 15 250 50 0 empty empty empty 17 7 0 10 -262144 -1
-1;
#X obj 380 36 inlet;
#X obj 1011 135 bng 15 250 50 0 empty empty empty 17 7 0 10 -262144
-1 -1;
#X obj 688 36 inlet;
#X obj 34 36 inlet;
#X obj 1011 36 inlet;
#X obj 139 116 bng 15 250 50 0 empty empty empty 17 7 0 10 -262144
-1 -1;
#X obj 1104 36 inlet;
#X text 14 15 start (bang);
#X text 659 15 durations (list);
#X text 992 15 reset (bang);
#X text 1089 15 stop (bang);
#X obj 251 36 inlet;
#X obj 144 36 inlet;
#X text 121 15 delay (float);
#X obj 34 83 delay 0;
#X obj 424 36 inlet;
#X obj 573 36 inlet;
#X obj 732 36 inlet;
#X obj 856 36 inlet;
#X obj 856 96 route ms;
#X obj 733 416 add, f 6;
#X obj 804 299 count, f 8;
#X obj 400 185 list-item;
#X floatatom 733 438 5 0 0 0 - - -, f 5;
#X floatatom 804 321 5 0 0 0 - - -, f 5;
#X floatatom 137 60 5 0 0 0 - - -, f 5;
#X obj 542 185 list-item;
#X obj 688 185 list-item;
#X floatatom 860 119 5 0 0 0 - - -, f 5;
#X floatatom 907 119 5 0 0 0 - - -, f 5;
#X obj 296 36 inlet;
#X text 241 15 channel (list);
#X obj 267 186 list-item;
#X obj 179 137 t b b;
#X text 793 16 'ms' <number> | <number>;
#X text 793 4 total duration:;
#X text 358 15 controllers (list);
#X text 521 15 values (list);
#X obj 349 345 ctlout, f 10;
#X obj 309 394 delay;
#X obj 670 268 f;
#X obj 349 318 f;
#X obj 382 318 f;
#X obj 416 318 f;
#X obj 228 236 t b b b;
#X msg 424 468 0;
#X msg 423 435 1;
#X obj 309 495 spigot;
#X connect 0 0 48 0;
#X connect 1 0 29 1;
#X connect 2 0 35 0;
#X connect 2 0 25 0;
#X connect 2 0 29 0;
#X connect 2 0 30 0;
#X connect 2 0 49 0;
#X connect 3 0 25 1;
#X connect 4 0 24 2;
#X connect 4 0 25 3;
#X connect 4 0 29 3;
#X connect 4 0 30 3;
#X connect 4 0 23 2;
#X connect 4 0 35 3;
#X connect 5 0 30 1;
#X connect 6 0 17 0;
#X connect 7 0 4 0;
#X connect 8 0 36 0;
#X connect 9 0 0 0;
#X connect 14 0 35 1;
#X connect 15 0 28 0;
#X connect 17 0 8 0;
#X connect 18 0 25 2;
#X connect 19 0 29 2;
#X connect 20 0 30 2;
#X connect 21 0 22 0;
#X connect 22 0 23 1;
#X connect 22 0 31 0;
#X connect 22 1 24 1;
#X connect 22 1 32 0;
#X connect 23 0 26 0;
#X connect 23 1 0 0;
#X connect 24 0 27 0;
#X connect 24 1 0 0;
#X connect 25 0 45 1;
#X connect 28 0 17 1;
#X connect 29 0 44 1;
#X connect 30 0 43 1;
#X connect 33 0 35 2;
#X connect 35 0 46 1;
#X connect 36 0 47 0;
#X connect 36 1 2 0;
#X connect 42 0 50 0;
#X connect 43 0 24 0;
#X connect 43 0 23 0;
#X connect 43 0 42 1;
#X connect 44 0 41 0;
#X connect 45 0 41 1;
#X connect 46 0 41 2;
#X connect 47 0 42 0;
#X connect 47 1 44 0;
#X connect 47 2 43 0;
#X connect 47 2 46 0;
#X connect 47 2 45 0;
#X connect 48 0 50 1;
#X connect 49 0 50 1;
#X connect 50 0 8 0;
