#N canvas 283 120 1458 953 10;
#X floatatom 413 589 5 0 0 0 - - -, f 5;
#X obj 595 889 play, f 55;
#X obj 1354 776 bng 15 250 50 0 empty empty empty 17 7 0 10 -262144
-1 -1;
#X obj 34 307 t b b;
#X obj 589 186 inlet;
#X obj 666 404 bng 15 250 50 0 empty empty empty 17 7 0 10 -262144
-1 -1;
#X obj 420 186 inlet;
#X floatatom 582 589 5 0 0 0 - - -, f 5;
#X obj 1261 434 bng 15 250 50 0 empty empty empty 17 7 0 10 -262144
-1 -1;
#X obj 927 186 inlet;
#X floatatom 907 589 5 0 0 0 - - -, f 5;
#X obj 34 186 inlet;
#X obj 1261 186 inlet;
#X obj 53 563 bng 15 250 50 0 empty empty empty 17 7 0 10 -262144 -1
-1;
#X obj 1354 186 inlet;
#X text 14 165 start (bang);
#X text 408 165 pitches (list);
#X text 561 165 velocities (list);
#X text 898 165 durations (list);
#X text 1242 165 reset (bang);
#X text 1339 165 stop (bang);
#X obj 251 186 inlet;
#X obj 132 186 inlet;
#X text 116 165 delay (float);
#X obj 34 433 delay 0;
#X obj 464 186 inlet;
#X obj 633 186 inlet;
#X obj 971 186 inlet;
#X obj 1116 186 inlet;
#X obj 1116 246 route ms;
#X obj 985 669 add, f 8;
#X obj 413 565 list-item;
#X floatatom 985 691 5 0 0 0 - - -, f 5;
#X floatatom 1132 677 5 0 0 0 - - -, f 5;
#X floatatom 132 210 5 0 0 0 - - -, f 5;
#X obj 34 208 bng 15 250 50 0 empty empty empty 17 7 0 10 -262144 -1
-1;
#X obj 582 565 list-item;
#X obj 907 565 list-item;
#X floatatom 1120 269 5 0 0 0 - - -, f 5;
#X floatatom 1175 269 5 0 0 0 - - -, f 5;
#X obj 296 186 inlet;
#X floatatom 247 590 5 0 0 0 - - -, f 5;
#X obj 247 566 list-item;
#X obj 90 563 t b b;
#X obj 1132 655 count, f 8;
#X text 1053 167 'ms' <number> | <number>;
#X text 1053 154 total duration:;
#X obj 759 186 inlet;
#X floatatom 752 589 5 0 0 0 - - -, f 5;
#X obj 803 186 inlet;
#X obj 752 565 list-item;
#X text 731 165 silences (list);
#X text 21 788 These inlets come in pairs: the list of values and the
choice chriterion (ordered \, RND or RNR);
#X text 30 827 · pitches: list of MIDI pitches;
#X text 30 837 · velocities: list of MIDI velocities;
#X text 30 847 · silences: list of ones and zeros \, zero being a
silence;
#X text 30 857 · durations: list of note durations in ms;
#X text 30 757 · start: bang to start playing;
#X text 30 767 · delay: initial silence in ms;
#X text 30 817 · channels: list of MIDI channels;
#X text 235 165 channels (list);
#X obj 582 622 *;
#X obj 666 464 t b b;
#X text 30 887 · total duration: 'ms <number>' or <number> (of notes)
;
#X text 30 907 · stop: bang to stop playing;
#X text 30 897 · reset: bang to reset all of the internal components
;
#X obj 379 238 t l l l;
#X obj 425 262 list-len;
#X obj 425 300 array size \$0-p;
#X obj 402 321 array set \$0-p;
#N canvas 0 50 450 250 (subpatch) 0;
#X array \$0-p 27 float 2;
#X coords 0 127 27 0 150 127 1 0 0;
#X restore 384 32 graph;
#X floatatom 425 282 5 0 0 0 - - -, f 5;
#X obj 719 238 t l l l;
#X obj 765 262 list-len;
#X floatatom 765 282 5 0 0 0 - - -, f 5;
#X obj 765 300 array size \$0-s;
#X obj 742 321 array set \$0-s;
#X obj 878 238 t l l l;
#X obj 924 262 list-len;
#X floatatom 924 282 5 0 0 0 - - -, f 5;
#X obj 924 300 array size \$0-d;
#X obj 901 321 array set \$0-d;
#X obj 549 238 t l l l;
#X obj 595 262 list-len;
#X floatatom 595 282 5 0 0 0 - - -, f 5;
#X obj 595 300 array size \$0-v;
#X obj 572 321 array set \$0-v;
#X obj 209 238 t l l l;
#X obj 255 262 list-len;
#X floatatom 255 282 5 0 0 0 - - -, f 5;
#X obj 255 300 array size \$0-c;
#X obj 232 321 array set \$0-c;
#N canvas 0 50 450 250 (subpatch) 0;
#X array \$0-v 25 float 2;
#X coords 0 127 25 0 150 127 1 0 0;
#X restore 550 32 graph;
#N canvas 0 50 450 250 (subpatch) 0;
#X array \$0-s 15 float 2;
#X coords 0 2 15 -1 150 127 1 0 0;
#X restore 715 32 graph;
#N canvas 0 50 450 250 (subpatch) 0;
#X array \$0-d 1 float 2;
#X coords 0 2000 1 0 150 127 1 0 0;
#X restore 881 32 graph;
#N canvas 0 50 450 250 (subpatch) 0;
#X array \$0-c 1 float 2;
#X coords 0 17 1 0 150 127 1 0 0;
#X restore 220 32 graph;
#X obj 728 404 list;
#X msg 736 380 1;
#X obj 736 355 loadbang;
#X connect 0 0 1 2;
#X connect 1 0 13 0;
#X connect 2 0 1 6;
#X connect 3 0 24 0;
#X connect 3 1 5 0;
#X connect 4 0 82 0;
#X connect 5 0 42 0;
#X connect 5 0 31 0;
#X connect 5 0 37 0;
#X connect 5 0 62 0;
#X connect 6 0 66 0;
#X connect 7 0 61 0;
#X connect 8 0 31 3;
#X connect 8 0 36 3;
#X connect 8 0 37 3;
#X connect 8 0 30 2;
#X connect 8 0 42 3;
#X connect 8 0 1 5;
#X connect 8 0 44 2;
#X connect 9 0 77 0;
#X connect 10 0 1 4;
#X connect 10 0 30 0;
#X connect 10 0 44 0;
#X connect 11 0 35 0;
#X connect 12 0 8 0;
#X connect 13 0 43 0;
#X connect 14 0 2 0;
#X connect 21 0 87 0;
#X connect 22 0 34 0;
#X connect 24 0 1 0;
#X connect 25 0 31 2;
#X connect 26 0 36 2;
#X connect 27 0 37 2;
#X connect 28 0 29 0;
#X connect 29 0 30 1;
#X connect 29 0 38 0;
#X connect 29 1 39 0;
#X connect 29 1 44 1;
#X connect 30 0 32 0;
#X connect 30 1 2 0;
#X connect 31 0 0 0;
#X connect 34 0 24 1;
#X connect 35 0 3 0;
#X connect 36 0 7 0;
#X connect 37 0 10 0;
#X connect 40 0 42 2;
#X connect 41 0 1 1;
#X connect 42 0 41 0;
#X connect 43 0 1 0;
#X connect 43 1 5 0;
#X connect 44 0 33 0;
#X connect 44 1 2 0;
#X connect 47 0 72 0;
#X connect 48 0 61 1;
#X connect 49 0 50 2;
#X connect 50 0 48 0;
#X connect 61 0 1 3;
#X connect 62 0 36 0;
#X connect 62 1 50 0;
#X connect 66 0 31 1;
#X connect 66 1 69 0;
#X connect 66 2 67 0;
#X connect 67 0 71 0;
#X connect 71 0 68 0;
#X connect 72 0 96 0;
#X connect 72 1 76 0;
#X connect 72 2 73 0;
#X connect 73 0 74 0;
#X connect 74 0 75 0;
#X connect 77 0 37 1;
#X connect 77 1 81 0;
#X connect 77 2 78 0;
#X connect 78 0 79 0;
#X connect 79 0 80 0;
#X connect 82 0 36 1;
#X connect 82 1 86 0;
#X connect 82 2 83 0;
#X connect 83 0 84 0;
#X connect 84 0 85 0;
#X connect 87 0 42 1;
#X connect 87 1 91 0;
#X connect 87 2 88 0;
#X connect 88 0 89 0;
#X connect 89 0 90 0;
#X connect 96 0 50 1;
#X connect 97 0 96 0;
#X connect 98 0 97 0;
