#N canvas 1038 517 521 507 10;
#X obj 50 167 metro;
#X obj 123 201 f 64;
#X obj 182 298 noteout;
#X floatatom 324 82 5 0 0 0 - - -, f 5;
#X floatatom 205 82 5 0 0 0 - - -, f 5;
#X obj 160 231 makenote 100;
#X floatatom 266 82 5 0 0 0 - - -, f 5;
#X obj 194 65 inlet;
#X obj 50 65 inlet;
#X obj 251 65 inlet;
#X obj 308 65 inlet;
#X obj 186 445 outlet;
#X text 190 46 pitch;
#X text 249 46 velocity;
#X text 315 46 duration;
#X obj 409 65 inlet;
#X text 407 46 stop;
#X text 50 46 start;
#X msg 409 94 stop;
#X obj 115 65 inlet;
#X text 109 46 channel;
#X obj 241 336 moses 1;
#X obj 186 418 bng 15 250 50 0 empty empty empty 17 7 0 10 -262144
-1 -1;
#X text 154 464 note off (bang);
#X obj 241 259 t f f;
#X obj 186 395 spigot, f 12;
#X msg 241 361 1;
#X msg 287 361 0;
#X connect 0 0 1 0;
#X connect 1 0 5 0;
#X connect 5 0 2 0;
#X connect 5 0 25 0;
#X connect 5 1 24 0;
#X connect 7 0 1 1;
#X connect 7 0 4 0;
#X connect 8 0 0 0;
#X connect 9 0 6 0;
#X connect 9 0 5 1;
#X connect 10 0 3 0;
#X connect 10 0 5 2;
#X connect 10 0 0 1;
#X connect 15 0 18 0;
#X connect 18 0 0 0;
#X connect 19 0 2 2;
#X connect 21 0 26 0;
#X connect 21 1 27 0;
#X connect 22 0 11 0;
#X connect 24 0 21 0;
#X connect 24 1 2 1;
#X connect 25 0 22 0;
#X connect 26 0 25 1;
#X connect 27 0 25 1;
