#N canvas 220 130 881 927 10;
#X obj 57 500 f 64;
#X obj 146 625 noteout;
#X floatatom 614 82 5 0 0 0 - - -, f 5;
#X floatatom 325 82 5 0 0 0 - - -, f 5;
#X obj 61 538 makenote 100, f 28;
#X floatatom 456 82 5 0 0 0 - - -, f 5;
#X obj 314 65 inlet;
#X obj 36 65 inlet;
#X obj 441 65 inlet;
#X obj 598 65 inlet;
#X obj 313 835 outlet;
#X text 310 46 pitch;
#X text 439 46 velocity;
#X text 605 46 duration;
#X obj 795 65 inlet;
#X text 793 46 stop;
#X text 36 46 start;
#X obj 191 65 inlet;
#X text 185 46 channel;
#X obj 254 605 moses 1;
#X text 281 854 note off (bang);
#X obj 254 566 t f f;
#X obj 131 674 spigot, f 12;
#X msg 254 630 1;
#X msg 300 630 0;
#X obj 114 581 t f f;
#X obj 454 614 delay;
#X obj 451 121 moses 1;
#X msg 429 147 0, f 2;
#X msg 497 168 1, f 2;
#X obj 36 388 spigot, f 7;
#X obj 423 536 spigot;
#X msg 451 168 1, f 2;
#X msg 475 147 0, f 2;
#X floatatom 202 82 5 0 0 0 - - -, f 5;
#X obj 36 445 bng 15 250 50 0 empty empty empty 17 7 0 10 -262144 -1
-1;
#X obj 36 93 t b b;
#X obj 715 65 inlet;
#X text 713 46 reset;
#X msg 715 463 1;
#X msg 795 524 0;
#X floatatom 82 365 5 0 0 0 - - -, f 5;
#X floatatom 462 514 5 0 0 0 - - -, f 5;
#X floatatom 352 758 5 0 0 0 - - -, f 5;
#X obj 313 779 spigot;
#X obj 635 430 loadbang;
#X connect 0 0 4 0;
#X connect 4 0 25 0;
#X connect 4 1 21 0;
#X connect 6 0 0 1;
#X connect 6 0 3 0;
#X connect 7 0 36 0;
#X connect 8 0 5 0;
#X connect 8 0 4 1;
#X connect 8 0 27 0;
#X connect 9 0 2 0;
#X connect 9 0 4 2;
#X connect 9 0 26 1;
#X connect 14 0 40 0;
#X connect 17 0 1 2;
#X connect 17 0 34 0;
#X connect 19 0 23 0;
#X connect 19 1 24 0;
#X connect 21 0 19 0;
#X connect 21 1 1 1;
#X connect 22 0 44 0;
#X connect 23 0 22 1;
#X connect 24 0 22 1;
#X connect 25 0 22 0;
#X connect 25 1 1 0;
#X connect 26 0 44 0;
#X connect 27 0 28 0;
#X connect 27 0 32 0;
#X connect 27 1 29 0;
#X connect 27 1 33 0;
#X connect 28 0 41 0;
#X connect 29 0 41 0;
#X connect 30 0 35 0;
#X connect 31 0 26 0;
#X connect 32 0 42 0;
#X connect 33 0 42 0;
#X connect 35 0 0 0;
#X connect 36 0 30 0;
#X connect 36 0 31 0;
#X connect 37 0 39 0;
#X connect 39 0 43 0;
#X connect 40 0 43 0;
#X connect 41 0 30 1;
#X connect 42 0 31 1;
#X connect 43 0 44 1;
#X connect 44 0 10 0;
#X connect 45 0 39 0;
