#N canvas 130 170 1333 840 10;
#X floatatom 373 339 5 0 0 0 - - -, f 5;
#X obj 367 591 play, f 16;
#X obj 1234 576 bng 15 250 50 0 empty empty empty 17 7 0 10 -262144
-1 -1;
#X obj 34 77 t b b;
#X obj 529 36 inlet;
#X obj 600 94 bng 15 250 50 0 empty empty empty 17 7 0 10 -262144 -1
-1;
#X obj 380 36 inlet;
#X floatatom 522 339 5 0 0 0 - - -, f 5;
#X obj 1141 134 bng 15 250 50 0 empty empty empty 17 7 0 10 -262144
-1 -1;
#X obj 828 36 inlet;
#X floatatom 808 339 5 0 0 0 - - -, f 5;
#X obj 34 36 inlet;
#X obj 1141 36 inlet;
#X obj 56 311 bng 15 250 50 0 empty empty empty 17 7 0 10 -262144 -1
-1;
#X obj 1234 36 inlet;
#X text 14 15 start (bang);
#X text 368 15 pitches (list);
#X text 501 15 velocities (list);
#X text 799 15 durations (list);
#X text 1122 15 reset (bang);
#X text 1219 15 stop (bang);
#X obj 251 36 inlet;
#X obj 137 36 inlet;
#X text 121 15 delay (float);
#X obj 34 113 delay 0;
#X obj 424 36 inlet;
#X obj 573 36 inlet;
#X obj 872 36 inlet;
#X obj 996 36 inlet;
#X obj 996 96 route ms;
#X obj 885 519 add, f 8;
#X obj 373 315 list-item;
#X floatatom 885 541 5 0 0 0 - - -, f 5;
#X floatatom 942 410 5 0 0 0 - - -, f 5;
#X floatatom 137 60 5 0 0 0 - - -, f 5;
#X obj 34 58 bng 15 250 50 0 empty empty empty 17 7 0 10 -262144 -1
-1;
#X obj 522 315 list-item;
#X obj 808 315 list-item;
#X floatatom 1000 119 5 0 0 0 - - -, f 5;
#X floatatom 1047 119 5 0 0 0 - - -, f 5;
#X obj 296 36 inlet;
#X floatatom 247 340 5 0 0 0 - - -, f 5;
#X obj 247 316 list-item;
#X obj 90 313 t b b;
#X obj 942 388 count, f 8;
#X text 933 17 'ms' <number> | <number>;
#X text 933 4 total duration:;
#X obj 679 36 inlet;
#X floatatom 672 339 5 0 0 0 - - -, f 5;
#X obj 723 36 inlet;
#X obj 672 315 list-item;
#X text 651 15 silences (list);
#X text 51 678 These inlets come in pairs: the list of values and the
choice chriterion (ordered \, RND or RNR);
#X text 60 717 · pitches: list of MIDI pitches;
#X text 60 727 · velocities: list of MIDI velocities;
#X text 60 737 · silences: list of ones and zeros \, zero being a
silence;
#X text 60 747 · durations: list of note durations in ms;
#X text 60 647 · start: bang to start playing;
#X text 60 657 · delay: initial silence in ms;
#X text 60 707 · channels: list of MIDI channels;
#X text 235 15 channels (list);
#X obj 522 412 *;
#X obj 606 164 t b b;
#X text 60 777 · total duration: 'ms <number>' or <number> (of notes)
;
#X text 60 797 · stop: bang to stop playing;
#X text 60 787 · reset: bang to reset all of the internal components
;
#X connect 0 0 1 2;
#X connect 1 0 13 0;
#X connect 2 0 1 6;
#X connect 3 0 24 0;
#X connect 3 1 5 0;
#X connect 4 0 36 1;
#X connect 5 0 42 0;
#X connect 5 0 31 0;
#X connect 5 0 37 0;
#X connect 5 0 62 0;
#X connect 6 0 31 1;
#X connect 7 0 61 0;
#X connect 8 0 31 3;
#X connect 8 0 36 3;
#X connect 8 0 37 3;
#X connect 8 0 30 2;
#X connect 8 0 42 3;
#X connect 8 0 1 5;
#X connect 8 0 44 2;
#X connect 9 0 37 1;
#X connect 10 0 1 4;
#X connect 10 0 30 0;
#X connect 10 0 44 0;
#X connect 11 0 35 0;
#X connect 12 0 8 0;
#X connect 13 0 43 0;
#X connect 14 0 2 0;
#X connect 21 0 42 1;
#X connect 22 0 34 0;
#X connect 24 0 1 0;
#X connect 25 0 31 2;
#X connect 26 0 36 2;
#X connect 27 0 37 2;
#X connect 28 0 29 0;
#X connect 29 0 30 1;
#X connect 29 0 38 0;
#X connect 29 1 39 0;
#X connect 29 1 44 1;
#X connect 30 0 32 0;
#X connect 30 1 2 0;
#X connect 31 0 0 0;
#X connect 34 0 24 1;
#X connect 35 0 3 0;
#X connect 36 0 7 0;
#X connect 37 0 10 0;
#X connect 40 0 42 2;
#X connect 41 0 1 1;
#X connect 42 0 41 0;
#X connect 43 0 1 0;
#X connect 43 1 5 0;
#X connect 44 0 33 0;
#X connect 44 1 2 0;
#X connect 47 0 50 1;
#X connect 48 0 61 1;
#X connect 49 0 50 2;
#X connect 50 0 48 0;
#X connect 61 0 1 3;
#X connect 62 0 36 0;
#X connect 62 1 50 0;
