#N struct note float channel float silence float pitch float velocity
float duration;
#N canvas 1326 76 576 987 10;
#X obj 147 541 append note pitch velocity duration;
#X obj 226 297 pointer;
#X obj 42 354 print pointer;
#X obj 24 376 print end of note-data;
#X floatatom 153 503 5 0 127 0 - - -, f 5;
#X floatatom 221 505 5 0 127 0 - - -, f 5;
#X floatatom 283 505 5 100 2000 0 - - -, f 5;
#X obj 91 569 print pointer post-append;
#X msg 234 208 next;
#X text 149 485 gen p;
#X text 216 484 gen v;
#X text 275 484 gen d;
#X obj 223 404 until;
#X msg 214 359 5;
#X obj 210 431 t b b b;
#X obj 197 114 t b b b;
#X text 284 359 buffer size;
#X obj 197 70 bng 15 250 50 0 empty empty empty 17 7 0 10 -262144 -1
-1;
#X obj 35 39 note-template;
#N canvas 539 343 450 300 \$0-note-data 0;
#X scalar note 0 0 112 23 103 \;;
#X scalar note 0 0 113 23 103 \;;
#X scalar note 0 0 114 23 103 \;;
#X scalar note 0 0 115 23 103 \;;
#X restore 36 59 pd \$0-note-data;
#X obj 180 756 pointer;
#X msg 126 717 next;
#X obj 180 778 get note pitch velocity duration;
#X obj 180 800 print play p;
#X obj 285 807 print play v;
#X obj 399 806 print play d;
#X obj 112 637 t b b b;
#X obj 109 603 bng 15 250 50 0 empty empty empty 17 7 0 10 -262144
-1 -1;
#X msg 38 120 clear;
#X obj 38 155 s \$0-note-data;
#X msg 294 209 traverse \$0-note-data;
#X msg 168 684 traverse \$0-note-data;
#X connect 0 0 7 0;
#X connect 1 0 2 0;
#X connect 1 0 0 3;
#X connect 1 1 3 0;
#X connect 4 0 0 0;
#X connect 5 0 0 1;
#X connect 6 0 0 2;
#X connect 8 0 1 0;
#X connect 12 0 14 0;
#X connect 13 0 12 0;
#X connect 14 0 4 0;
#X connect 14 1 5 0;
#X connect 14 2 6 0;
#X connect 15 0 13 0;
#X connect 15 1 8 0;
#X connect 15 2 30 0;
#X connect 17 0 15 0;
#X connect 20 0 22 0;
#X connect 21 0 20 0;
#X connect 22 0 23 0;
#X connect 22 1 24 0;
#X connect 22 2 25 0;
#X connect 26 1 21 0;
#X connect 27 0 26 0;
#X connect 28 0 29 0;
#X connect 30 0 1 0;
#X connect 31 0 20 0;
