#N canvas 632 144 403 471 10;
#X obj 161 323 ctlout 10;
#X obj 132 376 ctlout 7;
#X obj 126 52 inlet;
#X msg 126 124 16;
#X obj 126 146 until;
#X obj 206 205 + 1;
#X obj 157 268 t b f, f 24;
#X obj 126 74 t b b;
#X msg 186 146 1;
#X obj 168 180 f;
#X msg 161 300 64;
#X msg 132 353 100;
#X text 38 311 pan: middle;
#X text 39 365 volume: 100;
#X connect 2 0 7 0;
#X connect 3 0 4 0;
#X connect 4 0 9 0;
#X connect 5 0 9 1;
#X connect 6 0 10 0;
#X connect 6 0 11 0;
#X connect 6 1 0 2;
#X connect 6 1 1 2;
#X connect 7 0 3 0;
#X connect 7 1 8 0;
#X connect 8 0 9 1;
#X connect 9 0 5 0;
#X connect 9 0 6 0;
#X connect 10 0 0 0;
#X connect 11 0 1 0;
