#N canvas 957 140 450 378 10;
#X msg 187 142 0 2 4 5 7 9 11;
#X obj 28 18 inlet;
#X obj 184 320 list-math +;
#X obj 28 222 bng 15 250 50 0 empty empty empty 17 7 0 10 -262144 -1
-1;
#X obj 28 242 list;
#X obj 183 108 route MAJ;
#X obj 260 37 loadbang;
#X msg 183 80 \$1;
#X obj 347 249 f \$2;
#X obj 184 342 outlet;
#X obj 347 20 inlet;
#X obj 347 271 default 60;
#X connect 0 0 4 1;
#X connect 1 0 3 0;
#X connect 2 0 9 0;
#X connect 3 0 4 0;
#X connect 4 0 2 0;
#X connect 5 0 0 0;
#X connect 5 1 0 0;
#X connect 6 0 7 0;
#X connect 6 0 8 0;
#X connect 7 0 5 0;
#X connect 8 0 11 0;
#X connect 10 0 8 0;
#X connect 11 0 2 1;
