#N canvas 388 109 935 933 10;
#X msg 183 402 0 2 4 5 7 9 11;
#X obj 474 869 list-math +;
#X obj 28 625 bng 15 250 50 0 empty empty empty 17 7 0 10 -262144 -1
-1;
#X obj 474 847 list;
#X obj 474 891 outlet;
#X obj 548 195 default 60;
#X msg 283 333 0 2 3 5 6 8 9 11;
#X msg 216 379 0 2 3 5 7 8 11;
#X msg 249 356 0 2 3 5 7 9 11;
#X obj 336 647 zl slice;
#X obj 336 669 list-math + 12;
#X obj 396 619 t f b;
#X msg 455 691 list;
#X obj 337 748 list append;
#X obj 313 713 list;
#X obj 313 463 t b a a;
#X obj 359 488 list length;
#X obj 396 597 - 1;
#X obj 183 130 symbol \$1;
#X msg 183 152 \$1;
#X obj 730 430 f \$3;
#X obj 548 173 f \$2;
#X obj 730 452 default 1;
#X obj 396 576 %;
#X obj 28 60 t b b b;
#X obj 361 106 bng 15 250 50 0 empty empty empty 17 7 0 10 -262144
-1 -1;
#X obj 379 545 f;
#X obj 359 510 t b f, f 11;
#X obj 243 38 inlet;
#X obj 28 38 inlet;
#X obj 573 38 inlet;
#X obj 755 38 inlet;
#X text 4 14 Generate scale (bang);
#X text 217 17 Type of scale;
#X text 523 15 Starting MIDI note;
#X text 736 15 Starting scale grade;
#X msg 316 310 0 2 4 6 8 10;
#X msg 349 287 0 1 2 3 4 5 6 7 8 9 10 11;
#X obj 183 178 route DIA HAR MEL OCT WHO CHR;
#X connect 0 0 15 0;
#X connect 1 0 4 0;
#X connect 2 0 3 0;
#X connect 3 0 1 0;
#X connect 5 0 1 1;
#X connect 6 0 15 0;
#X connect 7 0 15 0;
#X connect 8 0 15 0;
#X connect 9 0 10 0;
#X connect 9 1 14 1;
#X connect 10 0 13 1;
#X connect 11 0 9 1;
#X connect 11 1 12 0;
#X connect 12 0 13 1;
#X connect 13 0 3 1;
#X connect 14 0 13 0;
#X connect 15 0 14 0;
#X connect 15 1 9 0;
#X connect 15 2 16 0;
#X connect 16 0 27 0;
#X connect 17 0 11 0;
#X connect 18 0 19 0;
#X connect 19 0 38 0;
#X connect 20 0 22 0;
#X connect 21 0 5 0;
#X connect 22 0 26 1;
#X connect 23 0 17 0;
#X connect 24 0 2 0;
#X connect 24 1 18 0;
#X connect 24 2 25 0;
#X connect 25 0 21 0;
#X connect 25 0 20 0;
#X connect 26 0 23 0;
#X connect 27 0 26 0;
#X connect 27 1 23 1;
#X connect 28 0 18 1;
#X connect 29 0 24 0;
#X connect 30 0 21 1;
#X connect 31 0 20 1;
#X connect 36 0 15 0;
#X connect 37 0 15 0;
#X connect 38 0 0 0;
#X connect 38 1 7 0;
#X connect 38 2 8 0;
#X connect 38 3 6 0;
#X connect 38 4 36 0;
#X connect 38 5 37 0;
#X connect 38 6 0 0;
