#N canvas 537 130 552 428 10;
#X obj 202 131 f 0;
#X obj 172 131 + 0;
#X floatatom 172 180 5 0 0 0 - - -, f 5;
#X obj 172 41 inlet;
#X obj 406 41 inlet;
#X msg 406 85 0;
#X obj 173 309 outlet;
#X text 401 18 Reset;
#X text 143 18 Number to add;
#X text 154 328 Accumulated sum;
#X obj 339 41 inlet;
#X text 334 18 Max sum;
#X obj 233 232 gate 2;
#X obj 233 163 loadbang;
#X msg 233 185 1;
#X obj 312 261 moses;
#X msg 285 185 2;
#X obj 339 189 + 1;
#X obj 339 309 outlet;
#X text 320 328 Max sum reached;
#X floatatom 351 206 5 0 0 0 - - -, f 5;
#X obj 406 64 bng 15 250 50 0 empty empty empty 17 7 0 10 -262144 -1
-1;
#X floatatom 345 284 5 0 0 0 - - -, f 5;
#X connect 0 0 1 1;
#X connect 1 0 0 0;
#X connect 1 0 2 0;
#X connect 2 0 12 1;
#X connect 3 0 1 0;
#X connect 4 0 21 0;
#X connect 5 0 1 1;
#X connect 5 0 2 0;
#X connect 10 0 17 0;
#X connect 10 0 16 0;
#X connect 12 0 6 0;
#X connect 12 1 15 0;
#X connect 13 0 14 0;
#X connect 14 0 12 0;
#X connect 15 0 6 0;
#X connect 15 1 18 0;
#X connect 15 1 22 0;
#X connect 16 0 12 0;
#X connect 17 0 15 1;
#X connect 17 0 20 0;
#X connect 21 0 5 0;
