#N canvas 1353 105 450 407 10;
#X obj 80 38 inlet;
#X obj 344 38 inlet;
#X text 339 15 Reset;
#X text 33 15 Any message to count;
#X obj 108 161 + 1;
#X floatatom 80 206 5 0 0 0 - - -, f 5;
#X obj 80 161 f 1;
#X msg 344 101 0;
#X msg 310 101 1;
#X obj 344 74 bng 15 250 50 0 empty empty empty 17 7 0 10 -262144 -1
-1;
#X obj 80 336 outlet;
#X text 54 354 The current count;
#X obj 80 74 bng 15 250 50 0 empty empty empty 17 7 0 10 -262144 -1
-1;
#X obj 259 38 inlet;
#X text 252 15 Max count;
#X obj 259 336 outlet;
#X text 258 354 Max count reached;
#X obj 153 257 gate 2;
#X obj 153 188 loadbang;
#X msg 153 210 1;
#X obj 232 286 moses;
#X msg 205 210 2;
#X obj 259 214 + 1;
#X connect 0 0 12 0;
#X connect 1 0 9 0;
#X connect 4 0 6 1;
#X connect 5 0 17 1;
#X connect 6 0 4 0;
#X connect 6 0 5 0;
#X connect 7 0 5 0;
#X connect 8 0 6 1;
#X connect 9 0 7 0;
#X connect 9 0 8 0;
#X connect 12 0 6 0;
#X connect 13 0 21 0;
#X connect 13 0 22 0;
#X connect 17 0 10 0;
#X connect 17 1 20 0;
#X connect 18 0 19 0;
#X connect 19 0 17 0;
#X connect 20 0 10 0;
#X connect 20 1 15 0;
#X connect 21 0 17 0;
#X connect 22 0 20 1;
