#N canvas 659 101 457 633 10;
#X obj 167 136 random 128;
#X floatatom 174 159 5 0 0 0 - - -, f 5;
#X obj 91 200 list;
#X obj 91 234 list append;
#X obj 120 352 + 1;
#X floatatom 120 374 5 0 0 0 - - -, f 5;
#X obj 91 329 bng 15 250 50 0 empty empty empty 17 7 0 10 -262144 -1
-1;
#X obj 140 110 t b b;
#X obj 91 352 f 1;
#X obj 289 63 inlet;
#X obj 144 63 inlet;
#X obj 220 510 outlet;
#X obj 91 405 moses;
#X msg 309 147 list;
#X obj 343 107 bng 15 250 50 0 empty empty empty 17 7 0 10 -262144
-1 -1;
#X msg 343 181 1;
#X msg 162 428 list;
#X obj 220 453 list append;
#X obj 72 284 t a b a;
#X text 334 89 reset;
#X text 58 44 bang Start generation;
#X text 237 43 float Size of generated list;
#X connect 0 0 1 0;
#X connect 0 0 3 1;
#X connect 2 0 3 0;
#X connect 3 0 2 1;
#X connect 3 0 18 0;
#X connect 4 0 5 0;
#X connect 4 0 8 1;
#X connect 6 0 8 0;
#X connect 7 0 2 0;
#X connect 7 1 0 0;
#X connect 8 0 4 0;
#X connect 8 0 12 0;
#X connect 9 0 12 1;
#X connect 10 0 14 0;
#X connect 10 0 7 0;
#X connect 12 0 7 0;
#X connect 12 1 16 0;
#X connect 13 0 2 1;
#X connect 13 0 3 1;
#X connect 13 0 17 1;
#X connect 14 0 13 0;
#X connect 14 0 15 0;
#X connect 15 0 8 1;
#X connect 16 0 17 0;
#X connect 17 0 11 0;
#X connect 18 1 6 0;
#X connect 18 2 17 1;
