#N canvas 777 96 353 422 10;
#X obj 51 105 zl nth 1;
#X floatatom 104 91 5 0 0 0 - - -, f 5;
#X obj 137 -52 zl len;
#X floatatom 51 128 5 0 0 0 - - -, f 5;
#X obj 77 -52 list;
#X obj 98 -153 inlet;
#X obj 215 -153 inlet;
#X text 102 -173 list;
#X obj 51 189 outlet;
#X text 216 -173 bang;
#X obj 104 21 random;
#X obj 104 43 + 1;
#X obj 98 -129 t a a;
#X floatatom 137 -28 5 0 0 0 - - -, f 5;
#X obj 77 -26 t a b;
#X text 104 190 One random item in the list.;
#X connect 0 0 3 0;
#X connect 1 0 0 1;
#X connect 2 0 13 0;
#X connect 3 0 8 0;
#X connect 4 0 14 0;
#X connect 5 0 12 0;
#X connect 6 0 4 0;
#X connect 10 0 11 0;
#X connect 11 0 1 0;
#X connect 12 0 4 1;
#X connect 12 1 2 0;
#X connect 13 0 10 1;
#X connect 14 0 0 0;
#X connect 14 1 10 0;
