#N canvas 137 325 434 606 10;
#X obj 230 104 + 1;
#X floatatom 202 146 5 0 0 0 - - -, f 5;
#X obj 80 40 zl nth 1;
#X floatatom 150 55 5 0 0 0 - - -, f 5;
#X obj 226 211 + 1;
#X obj 253 39 zl len;
#X floatatom 253 146 5 0 0 0 - - -, f 5;
#X obj 226 168 %;
#X floatatom 226 192 5 0 0 0 - - -, f 5;
#X floatatom 118 298 5 0 0 0 - - -, f 5;
#X obj 202 104 f 1;
#X obj 129 -20 list;
#X obj 98 -153 inlet;
#X obj 129 6 t a a;
#X obj 215 -153 inlet;
#X text 102 -173 list;
#X obj 322 -153 inlet;
#X text 321 -173 reset;
#X msg 217 -50 1;
#X msg 322 175 0;
#X obj 118 359 outlet;
#X obj 127 70 bng 15 250 50 0 empty empty empty 17 7 0 10 -262144 -1
-1;
#X text 216 -173 bang;
#X text 171 360 Next item in the list.;
#X connect 0 0 10 1;
#X connect 1 0 7 0;
#X connect 2 0 9 0;
#X connect 2 0 21 0;
#X connect 3 0 2 1;
#X connect 4 0 3 0;
#X connect 5 0 6 0;
#X connect 6 0 7 1;
#X connect 7 0 8 0;
#X connect 8 0 4 0;
#X connect 9 0 20 0;
#X connect 10 0 0 0;
#X connect 10 0 1 0;
#X connect 11 0 13 0;
#X connect 12 0 11 1;
#X connect 13 0 2 0;
#X connect 13 1 5 0;
#X connect 14 0 11 0;
#X connect 16 0 18 0;
#X connect 16 0 19 0;
#X connect 18 0 10 1;
#X connect 19 0 6 0;
#X connect 19 0 1 0;
#X connect 19 0 8 0;
#X connect 19 0 9 0;
#X connect 21 0 10 0;
