#N canvas 789 370 916 492 10;
#X floatatom 220 75 5 0 0 0 - - -, f 5;
#X obj 256 297 play, f 16;
#X obj 713 -81 bng 15 250 50 0 empty empty empty 17 7 0 10 -262144
-1 -1;
#X msg -97 280 1;
#X obj -97 -105 t b b;
#X obj 329 -128 inlet;
#X obj 386 -44 bng 15 250 50 0 empty empty empty 17 7 0 10 -262144
-1 -1;
#X obj 220 -128 inlet;
#X obj 329 51 list-next;
#X floatatom 329 75 5 0 0 0 - - -, f 5;
#X obj 598 -81 bng 15 250 50 0 empty empty empty 17 7 0 10 -262144
-1 -1;
#X obj 451 -128 inlet;
#X floatatom 451 75 5 0 0 0 - - -, f 5;
#X obj 451 51 list-next;
#X obj 220 51 list-next;
#X obj -97 -128 inlet;
#X obj 598 -128 inlet;
#X obj 116 57 bng 15 250 50 0 empty empty empty 17 7 0 10 -262144 -1
-1;
#X obj 713 -128 inlet;
#X text -117 -149 start (bang);
#X text 198 -149 pitches (list);
#X text 301 -149 velocities (list);
#X text 422 -149 durations (list);
#X text 579 -149 reset (bang);
#X text 698 -149 stop (bang);
#X obj 120 -128 inlet;
#X text 90 -149 channel (byte);
#X obj 13 -128 inlet;
#X text -10 -149 delay (float);
#X obj -97 40 delay 0;
#X connect 0 0 1 2;
#X connect 1 0 17 0;
#X connect 2 0 1 5;
#X connect 3 0 1 0;
#X connect 4 0 29 0;
#X connect 4 1 6 0;
#X connect 5 0 8 0;
#X connect 6 0 8 1;
#X connect 6 0 13 1;
#X connect 6 0 14 1;
#X connect 7 0 14 0;
#X connect 8 0 9 0;
#X connect 9 0 1 3;
#X connect 10 0 8 2;
#X connect 10 0 13 2;
#X connect 10 0 14 2;
#X connect 11 0 13 0;
#X connect 12 0 1 4;
#X connect 13 0 12 0;
#X connect 14 0 0 0;
#X connect 15 0 4 0;
#X connect 16 0 10 0;
#X connect 17 0 6 0;
#X connect 18 0 2 0;
#X connect 25 0 1 1;
#X connect 27 0 29 1;
#X connect 29 0 3 0;
