#N canvas 153 340 1166 492 10;
#X floatatom 273 230 5 0 0 0 - - -, f 5;
#X obj 256 297 play, f 16;
#X obj 943 282 bng 15 250 50 0 empty empty empty 17 7 0 10 -262144
-1 -1;
#X msg -97 280 1;
#X obj -97 -105 t b b;
#X obj 381 -128 inlet;
#X obj 442 -87 bng 15 250 50 0 empty empty empty 17 7 0 10 -262144
-1 -1;
#X obj 231 -128 inlet;
#X obj 428 155 list-next;
#X floatatom 318 230 5 0 0 0 - - -, f 5;
#X obj 828 231 bng 15 250 50 0 empty empty empty 17 7 0 10 -262144
-1 -1;
#X obj 557 -128 inlet;
#X floatatom 365 230 5 0 0 0 - - -, f 5;
#X obj 580 155 list-next;
#X obj 268 155 list-next;
#X obj -97 -128 inlet;
#X obj 828 -128 inlet;
#X obj 29 -39 bng 15 250 50 0 empty empty empty 17 7 0 10 -262144 -1
-1;
#X obj 943 -128 inlet;
#X text -117 -149 start (bang);
#X text 209 -149 pitches (list);
#X text 353 -149 velocities (list);
#X text 528 -149 durations (list);
#X text 809 -149 reset (bang);
#X text 928 -149 stop (bang);
#X obj 120 -128 inlet;
#X text 90 -149 channel (byte);
#X obj 13 -128 inlet;
#X text -10 -149 delay (float);
#X obj -97 40 delay 0;
#X obj 235 135 list-rnd;
#X floatatom 226 230 5 0 0 0 - - -, f 5;
#X obj 270 -128 inlet;
#X msg 334 4 0;
#X msg 259 4 1;
#X msg 296 4 2;
#X obj 281 31 f 0;
#X obj 259 -18 route RND RNR;
#X obj 283 82 route 1 2;
#X obj 425 -128 inlet;
#X obj 601 -128 inlet;
#X obj 400 135 list-rnd;
#X obj 551 135 list-rnd;
#X msg 487 3 0;
#X msg 412 3 1;
#X msg 449 3 2;
#X obj 434 30 f 0;
#X obj 412 -19 route RND RNR;
#X obj 434 83 route 1 2;
#X msg 651 3 0;
#X msg 576 3 1;
#X msg 613 3 2;
#X obj 598 30 f 0;
#X obj 576 -19 route RND RNR;
#X obj 598 83 route 1 2;
#X obj 685 -128 inlet;
#X obj 733 -128 inlet;
#X obj 730 -68 route ms;
#X msg 775 -46 0;
#X msg 731 -46 1;
#X obj 750 -4 f 0;
#X obj 750 42 route 1;
#X obj 659 255 moses;
#X obj 419 257 add, f 6;
#X obj 549 218 count, f 8;
#X text 662 -160 total duration: notes (default) | 'ms';
#X connect 0 0 1 2;
#X connect 1 0 17 0;
#X connect 2 0 1 5;
#X connect 3 0 1 0;
#X connect 4 0 29 0;
#X connect 4 1 6 0;
#X connect 5 0 8 0;
#X connect 5 0 41 0;
#X connect 6 0 36 0;
#X connect 6 0 46 0;
#X connect 6 0 52 0;
#X connect 7 0 14 0;
#X connect 7 0 30 0;
#X connect 8 0 9 0;
#X connect 9 0 1 3;
#X connect 10 0 8 2;
#X connect 10 0 13 2;
#X connect 10 0 14 2;
#X connect 10 0 63 1;
#X connect 10 0 64 2;
#X connect 11 0 13 0;
#X connect 11 0 42 0;
#X connect 12 0 1 4;
#X connect 12 0 63 0;
#X connect 13 0 12 0;
#X connect 13 0 64 0;
#X connect 14 0 0 0;
#X connect 15 0 4 0;
#X connect 16 0 10 0;
#X connect 17 0 6 0;
#X connect 18 0 2 0;
#X connect 25 0 31 0;
#X connect 27 0 29 1;
#X connect 29 0 3 0;
#X connect 30 0 0 0;
#X connect 31 0 1 1;
#X connect 32 0 37 0;
#X connect 33 0 36 1;
#X connect 34 0 36 1;
#X connect 35 0 36 1;
#X connect 36 0 38 0;
#X connect 37 0 34 0;
#X connect 37 1 35 0;
#X connect 37 2 33 0;
#X connect 38 0 30 1;
#X connect 38 2 14 1;
#X connect 39 0 47 0;
#X connect 40 0 53 0;
#X connect 41 0 9 0;
#X connect 42 0 12 0;
#X connect 43 0 46 1;
#X connect 44 0 46 1;
#X connect 45 0 46 1;
#X connect 46 0 48 0;
#X connect 47 0 44 0;
#X connect 47 1 45 0;
#X connect 47 2 43 0;
#X connect 48 0 41 1;
#X connect 48 2 8 1;
#X connect 49 0 52 1;
#X connect 50 0 52 1;
#X connect 51 0 52 1;
#X connect 52 0 54 0;
#X connect 53 0 50 0;
#X connect 53 1 51 0;
#X connect 53 2 49 0;
#X connect 54 0 42 1;
#X connect 54 2 13 1;
#X connect 55 0 62 1;
#X connect 56 0 57 0;
#X connect 57 0 59 0;
#X connect 57 1 58 0;
#X connect 58 0 60 1;
#X connect 59 0 60 1;
#X connect 60 0 61 0;
#X connect 62 1 2 0;
