#N canvas 838 231 423 340 10;
#X obj -56 -75 metro;
#X obj -17 -41 f 64;
#X obj 42 27 noteout;
#X floatatom 184 -136 5 0 0 0 - - -, f 5;
#X floatatom 65 -135 5 0 0 0 - - -, f 5;
#X obj 20 -11 makenote 100;
#X floatatom 126 -136 5 0 0 0 - - -, f 5;
#X obj 54 -152 inlet;
#X obj -56 -152 inlet;
#X obj 111 -153 inlet;
#X obj 168 -153 inlet;
#X obj -36 75 outlet;
#X obj 137 76 outlet;
#X text 50 -171 pitch;
#X text 109 -172 velocity;
#X text 175 -171 duration;
#X text -56 96 pitch (1 bang);
#X text 105 95 velocity (2 bangs);
#X obj 269 -153 inlet;
#X obj 269 -131 s play-stop;
#X obj -39 -129 r play-stop;
#X text 267 -170 stop;
#X text -56 -171 start;
#X msg -39 -107 stop;
#X connect 0 0 1 0;
#X connect 1 0 5 0;
#X connect 1 0 11 0;
#X connect 5 0 2 0;
#X connect 5 1 2 1;
#X connect 5 1 12 0;
#X connect 7 0 1 1;
#X connect 7 0 4 0;
#X connect 8 0 0 0;
#X connect 9 0 6 0;
#X connect 9 0 5 1;
#X connect 10 0 3 0;
#X connect 10 0 5 2;
#X connect 10 0 0 1;
#X connect 18 0 19 0;
#X connect 20 0 23 0;
#X connect 23 0 0 0;
