#N canvas 617 121 941 624 10;
#X msg 111 -35 64 66 68;
#X obj 230 90 + 1;
#X floatatom 202 137 5 0 0 0 - - -, f 5;
#X obj 149 58 bng 15 250 50 0 empty empty empty 17 7 0 10 -262144 -1
-1;
#X obj 80 26 zl nth 1;
#X floatatom 104 127 5 0 0 0 - - -, f 5;
#X obj 226 197 + 1;
#X obj 253 25 zl len;
#X floatatom 253 137 5 0 0 0 - - -, f 5;
#X obj 226 156 %;
#X floatatom 226 178 5 0 0 0 - - -, f 5;
#X floatatom 112 284 5 0 0 0 - - -, f 5;
#X floatatom 332 291 5 0 0 0 - - -, f 5;
#X floatatom 372 289 5 0 0 0 - - -, f 5;
#X obj 283 366 play, f 10;
#X obj 310 -73 t b b;
#X obj 202 90 f 1;
#X msg 835 -84 0;
#X msg 761 -83 1;
#X obj 826 -124 bng 15 250 50 0 empty empty empty 17 7 0 10 -262144
-1 -1;
#X obj 450 302 bng 15 250 50 0 empty empty empty 17 7 0 10 -262144
-1 -1;
#X obj 835 -61 s reset0;
#X obj 761 -62 s reset1;
#X obj 144 98 r reset0;
#X obj 188 52 r reset1;
#X obj 188 -149 bng 15 250 50 0 empty empty empty 17 7 0 10 -262144
-1 -1;
#X obj 119 -81 s play-lists-start;
#X obj 47 332 r play-lists-start;
#X msg 168 349 1;
#X obj 188 -129 t b b;
#X obj 283 397 s play-lists-loop;
#X obj 310 -104 r play-lists-loop;
#X connect 0 0 7 0;
#X connect 0 0 4 0;
#X connect 1 0 16 1;
#X connect 2 0 9 0;
#X connect 3 0 16 0;
#X connect 4 0 3 0;
#X connect 4 0 11 0;
#X connect 5 0 4 1;
#X connect 6 0 5 0;
#X connect 7 0 8 0;
#X connect 8 0 9 1;
#X connect 9 0 10 0;
#X connect 10 0 6 0;
#X connect 11 0 14 1;
#X connect 12 0 14 2;
#X connect 13 0 14 3;
#X connect 14 0 30 0;
#X connect 15 0 0 0;
#X connect 15 1 13 0;
#X connect 15 1 12 0;
#X connect 16 0 1 0;
#X connect 16 0 2 0;
#X connect 17 0 21 0;
#X connect 18 0 22 0;
#X connect 19 0 18 0;
#X connect 19 0 17 0;
#X connect 20 0 14 4;
#X connect 23 0 2 0;
#X connect 23 0 8 0;
#X connect 23 0 5 0;
#X connect 23 0 10 0;
#X connect 23 0 11 0;
#X connect 24 0 16 1;
#X connect 25 0 29 0;
#X connect 27 0 28 0;
#X connect 28 0 14 0;
#X connect 29 0 26 0;
#X connect 29 1 15 0;
#X connect 31 0 15 0;
