#N canvas 20 543 1166 492 10;
#X floatatom 234 45 5 0 0 0 - - -, f 5;
#X obj 256 297 play, f 16;
#X obj 943 282 bng 15 250 50 0 empty empty empty 17 7 0 10 -262144
-1 -1;
#X msg -97 280 1;
#X obj -97 -87 t b b;
#X obj 381 -128 inlet;
#X obj 445 -70 bng 15 250 50 0 empty empty empty 17 7 0 10 -262144
-1 -1;
#X obj 231 -128 inlet;
#X floatatom 411 45 5 0 0 0 - - -, f 5;
#X obj 850 231 bng 15 250 50 0 empty empty empty 17 7 0 10 -262144
-1 -1;
#X obj 557 -128 inlet;
#X floatatom 557 45 5 0 0 0 - - -, f 5;
#X obj -97 -128 inlet;
#X obj 850 -128 inlet;
#X obj 31 15 bng 15 250 50 0 empty empty empty 17 7 0 10 -262144 -1
-1;
#X obj 943 -128 inlet;
#X text -117 -149 start (bang);
#X text 209 -149 pitches (list);
#X text 353 -149 velocities (list);
#X text 528 -149 durations (list);
#X text 831 -149 reset (bang);
#X text 928 -149 stop (bang);
#X obj 120 -128 inlet;
#X text 90 -149 channel (byte);
#X obj 13 -128 inlet;
#X text -10 -149 delay (float);
#X obj -97 40 delay 0;
#X floatatom 234 216 5 0 0 0 - - -, f 5;
#X obj 270 -128 inlet;
#X obj 425 -128 inlet;
#X obj 601 -128 inlet;
#X obj 725 -128 inlet;
#X obj 725 -68 route ms;
#X obj 602 252 add, f 6;
#X obj 652 203 count, f 8;
#X obj 234 21 list-item;
#X text 662 -160 total duration: 'ms' <number> | <number>;
#X floatatom 602 274 5 0 0 0 - - -, f 5;
#X floatatom 652 225 5 0 0 0 - - -, f 5;
#X floatatom -58 13 5 0 0 0 - - -, f 5;
#X obj -97 -106 bng 15 250 50 0 empty empty empty 17 7 0 10 -262144
-1 -1;
#X obj 411 21 list-item;
#X obj 557 21 list-item;
#X floatatom 729 -45 5 0 0 0 - - -, f 5;
#X floatatom 776 -45 5 0 0 0 - - -, f 5;
#X obj 723 -9 bng 15 250 50 0 empty empty empty 17 7 0 10 -262144 -1
-1;
#X obj 770 0 bng 15 250 50 0 empty empty empty 17 7 0 10 -262144 -1
-1;
#X connect 0 0 1 2;
#X connect 1 0 14 0;
#X connect 2 0 1 5;
#X connect 3 0 1 0;
#X connect 4 0 26 0;
#X connect 4 1 6 0;
#X connect 5 0 41 0;
#X connect 6 0 35 2;
#X connect 6 0 41 2;
#X connect 6 0 42 2;
#X connect 7 0 35 0;
#X connect 8 0 1 3;
#X connect 9 0 34 2;
#X connect 9 0 35 3;
#X connect 9 0 41 3;
#X connect 9 0 42 3;
#X connect 9 0 33 2;
#X connect 10 0 42 0;
#X connect 11 0 1 4;
#X connect 11 0 33 0;
#X connect 11 0 34 0;
#X connect 12 0 40 0;
#X connect 13 0 9 0;
#X connect 14 0 6 0;
#X connect 15 0 2 0;
#X connect 22 0 27 0;
#X connect 24 0 39 0;
#X connect 26 0 3 0;
#X connect 27 0 1 1;
#X connect 28 0 35 1;
#X connect 29 0 41 1;
#X connect 30 0 42 1;
#X connect 31 0 32 0;
#X connect 32 0 33 1;
#X connect 32 0 43 0;
#X connect 32 0 45 0;
#X connect 32 1 34 1;
#X connect 32 1 44 0;
#X connect 32 1 46 0;
#X connect 33 0 37 0;
#X connect 33 1 2 0;
#X connect 34 0 38 0;
#X connect 34 1 2 0;
#X connect 35 0 0 0;
#X connect 39 0 26 1;
#X connect 40 0 4 0;
#X connect 41 0 8 0;
#X connect 42 0 11 0;
