#N canvas 559 119 941 690 10;
#X obj 230 90 + 1;
#X floatatom 202 137 5 0 0 0 - - -, f 5;
#X obj 134 58 bng 15 250 50 0 empty empty empty 17 7 0 10 -262144 -1
-1;
#X obj 80 26 zl nth 1;
#X floatatom 104 127 5 0 0 0 - - -, f 5;
#X obj 226 197 + 1;
#X obj 253 25 zl len;
#X floatatom 253 137 5 0 0 0 - - -, f 5;
#X obj 226 156 %;
#X floatatom 226 178 5 0 0 0 - - -, f 5;
#X floatatom 112 284 5 0 0 0 - - -, f 5;
#X obj 283 366 play, f 29;
#X obj 202 90 f 1;
#X msg 835 -84 0;
#X msg 761 -83 1;
#X obj 826 -124 bng 15 250 50 0 empty empty empty 17 7 0 10 -262144
-1 -1;
#X obj 691 297 bng 15 250 50 0 empty empty empty 17 7 0 10 -262144
-1 -1;
#X obj 835 -61 s reset0;
#X obj 761 -62 s reset1;
#X obj 144 98 r reset0;
#X obj 164 48 r reset1;
#X obj 45 -172 bng 15 250 50 0 empty empty empty 17 7 0 10 -262144
-1 -1;
#X msg 46 349 1;
#X obj 45 -152 t b b;
#X obj 283 397 s play-lists-loop;
#X obj 341 -106 r play-lists-loop;
#X obj 318 -195 inlet;
#X obj 375 -72 bng 15 250 50 0 empty empty empty 17 7 0 10 -262144
-1 -1;
#X obj 127 -34 list;
#X obj 129 -198 inlet;
#X obj 129 -8 t a a;
#X obj 351 41 list-next;
#X floatatom 351 63 5 0 0 0 - - -, f 5;
#X obj 791 -166 bng 15 250 50 0 empty empty empty 17 7 0 10 -262144
-1 -1;
#X msg 365 -197 25 50 100;
#X msg 173 -200 64 66 68 71;
#X obj 546 -199 inlet;
#X obj 579 37 list-next;
#X floatatom 579 59 5 0 0 0 - - -, f 5;
#X msg 593 -200 300 600;
#X connect 0 0 12 1;
#X connect 1 0 8 0;
#X connect 2 0 12 0;
#X connect 3 0 2 0;
#X connect 3 0 10 0;
#X connect 4 0 3 1;
#X connect 5 0 4 0;
#X connect 6 0 7 0;
#X connect 7 0 8 1;
#X connect 8 0 9 0;
#X connect 9 0 5 0;
#X connect 10 0 11 1;
#X connect 11 0 24 0;
#X connect 12 0 0 0;
#X connect 12 0 1 0;
#X connect 13 0 17 0;
#X connect 14 0 18 0;
#X connect 15 0 14 0;
#X connect 15 0 13 0;
#X connect 16 0 11 4;
#X connect 19 0 1 0;
#X connect 19 0 7 0;
#X connect 19 0 9 0;
#X connect 19 0 10 0;
#X connect 20 0 12 1;
#X connect 21 0 23 0;
#X connect 22 0 11 0;
#X connect 23 0 22 0;
#X connect 23 1 27 0;
#X connect 25 0 27 0;
#X connect 26 0 31 0;
#X connect 27 0 28 0;
#X connect 27 0 31 1;
#X connect 27 0 37 1;
#X connect 28 0 30 0;
#X connect 29 0 28 1;
#X connect 30 0 3 0;
#X connect 30 1 6 0;
#X connect 31 0 32 0;
#X connect 32 0 11 2;
#X connect 33 0 31 2;
#X connect 33 0 37 2;
#X connect 34 0 31 0;
#X connect 35 0 28 1;
#X connect 36 0 37 0;
#X connect 37 0 38 0;
#X connect 38 0 11 3;
#X connect 39 0 37 0;
