#N canvas 563 113 941 690 10;
#X msg 173 -200 64 66 68;
#X obj 230 90 + 1;
#X floatatom 202 137 5 0 0 0 - - -, f 5;
#X obj 134 58 bng 15 250 50 0 empty empty empty 17 7 0 10 -262144 -1
-1;
#X obj 80 26 zl nth 1;
#X floatatom 104 127 5 0 0 0 - - -, f 5;
#X obj 226 197 + 1;
#X obj 253 25 zl len;
#X floatatom 253 137 5 0 0 0 - - -, f 5;
#X obj 226 156 %;
#X floatatom 226 178 5 0 0 0 - - -, f 5;
#X floatatom 112 284 5 0 0 0 - - -, f 5;
#X obj 283 366 play, f 29;
#X obj 202 90 f 1;
#X msg 835 -84 0;
#X msg 761 -83 1;
#X obj 826 -124 bng 15 250 50 0 empty empty empty 17 7 0 10 -262144
-1 -1;
#X obj 691 297 bng 15 250 50 0 empty empty empty 17 7 0 10 -262144
-1 -1;
#X obj 835 -61 s reset0;
#X obj 761 -62 s reset1;
#X obj 144 98 r reset0;
#X obj 164 48 r reset1;
#X obj 45 -172 bng 15 250 50 0 empty empty empty 17 7 0 10 -262144
-1 -1;
#X msg 46 349 1;
#X obj 45 -152 t b b;
#X obj 283 397 s play-lists-loop;
#X obj 341 -106 r play-lists-loop;
#X obj 347 -198 inlet;
#X obj 343 -34 list;
#X msg 695 -28 250;
#X obj 341 -75 bng 15 250 50 0 empty empty empty 17 7 0 10 -262144
-1 -1;
#X msg 396 -200 111;
#X obj 127 -34 list;
#X obj 129 -198 inlet;
#X obj 129 -8 t a a;
#X connect 0 0 32 1;
#X connect 1 0 13 1;
#X connect 2 0 9 0;
#X connect 3 0 13 0;
#X connect 4 0 3 0;
#X connect 4 0 11 0;
#X connect 5 0 4 1;
#X connect 6 0 5 0;
#X connect 7 0 8 0;
#X connect 8 0 9 1;
#X connect 9 0 10 0;
#X connect 10 0 6 0;
#X connect 11 0 12 1;
#X connect 12 0 25 0;
#X connect 13 0 1 0;
#X connect 13 0 2 0;
#X connect 14 0 18 0;
#X connect 15 0 19 0;
#X connect 16 0 15 0;
#X connect 16 0 14 0;
#X connect 17 0 12 4;
#X connect 20 0 2 0;
#X connect 20 0 8 0;
#X connect 20 0 10 0;
#X connect 20 0 11 0;
#X connect 21 0 13 1;
#X connect 22 0 24 0;
#X connect 23 0 12 0;
#X connect 24 0 23 0;
#X connect 24 1 30 0;
#X connect 26 0 30 0;
#X connect 27 0 28 1;
#X connect 29 0 12 3;
#X connect 30 0 29 0;
#X connect 30 0 28 0;
#X connect 30 0 32 0;
#X connect 31 0 28 1;
#X connect 31 0 12 2;
#X connect 32 0 34 0;
#X connect 33 0 32 1;
#X connect 34 0 4 0;
#X connect 34 1 7 0;
