#N canvas 1083 101 519 458 10;
#X obj 244 198 + 1;
#X floatatom 215 245 5 0 0 0 - - -, f 5;
#X obj 215 142 bng 15 250 50 0 empty empty empty 17 7 0 10 -262144
-1 -1;
#X obj 143 102 zl nth 1;
#X floatatom 368 210 5 0 0 0 - - -, f 5;
#X obj 239 319 + 1;
#X obj 300 127 zl len;
#X floatatom 256 245 5 0 0 0 - - -, f 5;
#X obj 229 264 %;
#X obj 143 24 inlet;
#X text 144 6 list;
#X obj 143 374 outlet;
#X floatatom 229 286 5 0 0 0 - - -, f 5;
#X obj 215 198 f 1;
#X obj 294 22 inlet;
#X msg 294 56 1;
#X text 274 4 bang (reset);
#X connect 0 0 13 1;
#X connect 1 0 8 0;
#X connect 2 0 13 0;
#X connect 3 0 2 0;
#X connect 3 0 11 0;
#X connect 4 0 3 1;
#X connect 5 0 4 0;
#X connect 6 0 7 0;
#X connect 7 0 8 1;
#X connect 8 0 12 0;
#X connect 9 0 6 0;
#X connect 9 0 3 0;
#X connect 12 0 5 0;
#X connect 13 0 0 0;
#X connect 13 0 1 0;
#X connect 14 0 15 0;
#X connect 15 0 3 1;
#X connect 15 0 13 1;
