#N canvas 771 156 450 500 10;
#X obj 73 -21 metro;
#X obj 83 28 f 64;
#X obj 142 133 noteout;
#X obj 78 -102 tgl 15 0 empty empty empty 17 7 0 10 -262144 -1 -1 0
1;
#X obj 251 -186 vsl 15 128 200 1000 0 0 empty empty empty 0 -9 0 10
-261682 -1 -1 3500 1;
#X floatatom 268 -55 5 0 0 0 - - -, f 5;
#X obj 128 -194 vsl 15 128 0 127 0 0 empty empty empty 0 -9 0 10 -204786
-1 -1 5300 1;
#X floatatom 146 -63 5 0 0 0 - - -, f 5;
#X obj 139 88 makenote 100;
#X obj 191 -203 vsl 15 128 0 127 0 0 empty empty empty 0 -9 0 10 -232576
-1 -1 9600 1;
#X floatatom 207 -72 5 0 0 0 - - -, f 5;
#X connect 0 0 1 0;
#X connect 1 0 8 0;
#X connect 3 0 0 0;
#X connect 4 0 0 1;
#X connect 4 0 5 0;
#X connect 4 0 8 2;
#X connect 6 0 1 1;
#X connect 6 0 7 0;
#X connect 8 0 2 0;
#X connect 8 1 2 1;
#X connect 9 0 8 1;
#X connect 9 0 10 0;
