#N canvas 504 259 749 526 10;
#X obj 138 -134 tgl 15 0 empty empty empty 17 7 0 10 -262144 -1 -1
0 1;
#X obj 157 -48 random 128;
#X obj 29 -87 bng 15 250 50 0 empty empty empty 17 7 0 10 -262144 -1
-1;
#X floatatom 176 -10 5 0 0 0 - - -, f 5;
#X floatatom 195 16 5 0 0 0 - - -, f 5;
#X msg 354 -45 64 66 68;
#X obj 138 53 play, f 10;
#X obj 433 84 + 1;
#X floatatom 405 131 5 0 0 0 - - -, f 5;
#X obj 382 51 bng 15 250 50 0 empty empty empty 17 7 0 10 -262144 -1
-1;
#X obj 354 18 zl nth 1;
#X floatatom 530 119 5 0 0 0 - - -, f 5;
#X obj 429 205 + 1;
#X obj 456 19 zl len;
#X floatatom 456 131 5 0 0 0 - - -, f 5;
#X obj 429 150 %;
#X floatatom 429 172 5 0 0 0 - - -, f 5;
#X floatatom 271 113 5 0 0 0 - - -, f 5;
#X floatatom 336 250 5 0 0 0 - - -, f 5;
#X floatatom 376 248 5 0 0 0 - - -, f 5;
#X obj 287 299 play, f 10;
#X obj 310 -104 r test04-2-l1;
#X obj 284 330 s test04-2-l1;
#X obj 310 -73 t b b;
#X obj 221 244 bng 15 250 50 0 empty empty empty 17 7 0 10 -262144
-1 -1;
#X obj 405 84 f 1;
#X msg 678 -18 0;
#X msg 640 -25 1;
#X obj 669 -59 bng 15 250 50 0 empty empty empty 17 7 0 10 -262144
-1 -1;
#X obj 454 261 bng 15 250 50 0 empty empty empty 17 7 0 10 -262144
-1 -1;
#X connect 0 0 6 0;
#X connect 1 0 6 1;
#X connect 2 0 1 0;
#X connect 2 0 3 0;
#X connect 2 0 4 0;
#X connect 3 0 6 2;
#X connect 4 0 6 3;
#X connect 5 0 13 0;
#X connect 5 0 10 0;
#X connect 6 0 2 0;
#X connect 7 0 25 1;
#X connect 8 0 15 0;
#X connect 9 0 25 0;
#X connect 10 0 9 0;
#X connect 10 0 17 0;
#X connect 11 0 10 1;
#X connect 12 0 11 0;
#X connect 13 0 14 0;
#X connect 14 0 15 1;
#X connect 15 0 16 0;
#X connect 16 0 12 0;
#X connect 17 0 20 1;
#X connect 18 0 20 2;
#X connect 19 0 20 3;
#X connect 20 0 22 0;
#X connect 21 0 23 0;
#X connect 23 0 5 0;
#X connect 23 1 19 0;
#X connect 23 1 18 0;
#X connect 24 0 20 0;
#X connect 25 0 7 0;
#X connect 25 0 8 0;
#X connect 26 0 8 0;
#X connect 26 0 14 0;
#X connect 26 0 11 0;
#X connect 26 0 16 0;
#X connect 26 0 17 0;
#X connect 27 0 25 1;
#X connect 28 0 27 0;
#X connect 28 0 26 0;
#X connect 29 0 20 4;
