#N canvas 579 456 450 300 10;
#X obj 164 80 print;
#X obj 164 58 seq-ord;
#X msg 164 36 a b c d;
#X obj 268 27 bng 15 250 50 0 empty empty empty 17 7 0 10 -262144 -1
-1;
#X connect 1 0 0 0;
#X connect 2 0 1 0;
#X connect 3 0 1 1;
