#N canvas 971 469 768 523 10;
#X obj -193 217 play-lists, f 38;
#X obj 53 170 bng 15 250 50 0 empty empty empty 17 7 0 10 -262144 -1
-1;
#X obj 99 169 bng 15 250 50 0 empty empty empty 17 7 0 10 -262144 -1
-1;
#X obj -207 57 t b b b, f 19;
#X obj -455 64 bng 15 250 50 0 empty empty empty 17 7 0 10 -262144
-1 -1;
#X msg 38 123 100 150 200 250 300;
#X obj -53 139 gen-rnd;
#X msg -14 117 31;
#X msg -146 173 1;
#X obj -343 107 hsl 128 15 0 5000 0 1 empty empty delay -2 -8 0 10
-262144 -1 -1 0 0;
#X obj -42 367 gen-rnd;
#X obj 144 398 bng 15 250 50 0 empty empty empty 17 7 0 10 -262144
-1 -1;
#X obj 190 397 bng 15 250 50 0 empty empty empty 17 7 0 10 -262144
-1 -1;
#X obj -118 288 t b b b, f 19;
#X obj 30 367 gen-rnd;
#X obj -244 358 hsl 128 15 0 5000 0 1 empty empty delay -2 -8 0 10
-262144 -1 -1 5100 0;
#X msg -55 404 2;
#X msg -7 344 37;
#X msg 69 345 61;
#X floatatom -180 189 5 0 0 0 - - -, f 5;
#X floatatom -91 418 5 0 0 0 - - -, f 5;
#X msg 129 351 2000 2500 3000 4000 5000;
#X obj -102 445 play-lists, f 38;
#X msg -95 160 RND;
#X msg -135 140 64 66 68 71;
#X connect 1 0 0 10;
#X connect 2 0 0 11;
#X connect 3 0 0 0;
#X connect 3 1 6 0;
#X connect 3 1 8 0;
#X connect 3 1 24 0;
#X connect 3 2 5 0;
#X connect 3 2 7 0;
#X connect 3 2 23 0;
#X connect 4 0 3 0;
#X connect 4 0 13 0;
#X connect 5 0 0 7;
#X connect 6 0 0 5;
#X connect 7 0 6 1;
#X connect 8 0 0 2;
#X connect 9 0 19 0;
#X connect 10 0 22 3;
#X connect 11 0 22 10;
#X connect 12 0 22 11;
#X connect 13 0 22 0;
#X connect 13 1 10 0;
#X connect 13 1 14 0;
#X connect 13 1 16 0;
#X connect 13 2 21 0;
#X connect 13 2 17 0;
#X connect 13 2 18 0;
#X connect 14 0 22 5;
#X connect 15 0 20 0;
#X connect 16 0 22 2;
#X connect 17 0 10 1;
#X connect 18 0 14 1;
#X connect 19 0 0 1;
#X connect 20 0 22 1;
#X connect 21 0 22 7;
#X connect 23 0 0 4;
#X connect 24 0 0 3;
