#N canvas 702 314 591 243 10;
#X obj 86 168 play-lists, f 40;
#X obj 19 16 bng 15 250 50 0 empty empty empty 17 7 0 10 -262144 -1
-1;
#X obj 528 97 bng 15 250 50 0 empty empty empty 17 7 0 10 -262144 -1
-1;
#X msg 181 105 64 66 68 71;
#X obj 100 46 t b b, f 29;
#X msg 118 105 1 2 3;
#X msg 282 106 30 50 70 90 110;
#X msg 414 108 500;
#X connect 1 0 4 0;
#X connect 2 0 0 12;
#X connect 3 0 0 4;
#X connect 4 0 0 0;
#X connect 4 1 5 0;
#X connect 4 1 3 0;
#X connect 4 1 6 0;
#X connect 4 1 7 0;
#X connect 5 0 0 2;
#X connect 6 0 0 6;
#X connect 7 0 0 8;
