#N canvas 1175 246 667 322 10;
#X obj 134 -897 fractal, f 26;
#X obj 56 -949 bng 15 250 50 0 empty empty empty 17 7 0 10 -262144
-1 -1;
#X msg 262 -950 0;
#X obj 42 -813 array set a1;
#X obj 213 -827 print FRACTAL;
#X obj 196 -1029 bng 15 250 50 0 empty empty empty 17 7 0 10 -262144
-1 -1;
#X obj 196 -1009 t b b;
#X obj 144 -844 t l l;
#X obj 144 -816 list-len;
#X obj 132 -794 array size a1;
#X msg 211 -952 1.5;
#X msg 304 -950 100;
#N canvas 0 50 450 250 (subpatch) 0;
#X array a1 625 float 0;
#X coords 0 0 624 100 200 140 1 0 0;
#X restore 409 -913 graph;
#X obj 264 -867 expr sin(6.28*$f1/$f2);
#X msg 162 -952 5;
#X msg 106 -951 4;
#X connect 0 1 4 0;
#X connect 0 1 7 0;
#X connect 0 2 13 0;
#X connect 0 3 13 1;
#X connect 1 0 0 0;
#X connect 2 0 0 4;
#X connect 5 0 6 0;
#X connect 6 0 1 0;
#X connect 6 1 15 0;
#X connect 6 1 14 0;
#X connect 6 1 10 0;
#X connect 6 1 2 0;
#X connect 6 1 11 0;
#X connect 7 0 3 0;
#X connect 7 1 8 0;
#X connect 8 0 9 0;
#X connect 10 0 0 3;
#X connect 11 0 0 5;
#X connect 13 0 0 6;
#X connect 14 0 0 2;
#X connect 15 0 0 1;
