#N canvas 644 112 450 427 10;
#X obj 190 209 test02;
#X obj 82 133 tgl 15 0 empty empty empty 17 7 0 10 -262144 -1 -1 0
1;
#X obj 266 27 vsl 15 128 200 1000 0 0 empty empty empty 0 -9 0 10 -261682
-1 -1 300 1;
#X floatatom 283 158 5 0 0 0 - - -, f 5;
#X obj 146 17 vsl 15 128 0 127 0 0 empty empty empty 0 -9 0 10 -204786
-1 -1 4000 1;
#X floatatom 161 150 5 0 0 0 - - -, f 5;
#X obj 210 11 vsl 15 128 0 127 0 0 empty empty empty 0 -9 0 10 -232576
-1 -1 11900 1;
#X floatatom 222 141 5 0 0 0 - - -, f 5;
#X floatatom 176 255 5 0 0 0 - - -, f 5;
#X floatatom 228 255 5 0 0 0 - - -, f 5;
#X obj 131 290 + 1;
#X floatatom 74 353 5 0 0 0 - - -, f 5;
#X obj 92 291 f 0;
#X floatatom 63 268 5 0 0 0 - - -, f 5;
#X floatatom 121 348 5 0 0 0 - - -, f 5;
#X obj 109 253 bng 15 250 50 0 empty empty empty 17 7 0 10 -262144
-1 -1;
#X connect 0 0 8 0;
#X connect 0 0 15 0;
#X connect 0 1 9 0;
#X connect 1 0 0 0;
#X connect 2 0 3 0;
#X connect 2 0 0 3;
#X connect 4 0 5 0;
#X connect 4 0 0 1;
#X connect 6 0 7 0;
#X connect 6 0 0 2;
#X connect 10 0 14 0;
#X connect 10 0 12 1;
#X connect 12 0 10 0;
#X connect 12 0 11 0;
#X connect 15 0 13 0;
#X connect 15 0 12 0;
