#N canvas 741 240 597 641 10;
#X obj 52 26 struct midinote float pitch float velocity float duration
;
#X obj 210 340 + 1;
#X floatatom 170 378 5 0 0 0 - - -, f 5;
#X obj 184 298 bng 15 250 50 0 empty empty empty 17 7 0 10 -262144
-1 -1;
#X msg 321 59 list 1 3 5 7 9;
#X msg 222 124 nstore 1 pitches 64 66 68;
#X obj 295 490 expr $i1 + $i2;
#X msg 46 54 nstore 2 velocities 80 100 120;
#X msg 47 76 nstore 3 durations 250 300 450;
#X floatatom 272 304 5 0 0 0 - - -, f 5;
#X floatatom 219 304 5 0 0 0 - - -, f 5;
#X obj 171 339 f;
#X msg 121 310 0;
#X msg 87 175 length;
#X floatatom 108 266 5 0 0 0 - - -, f 5;
#X obj 224 258 coll;
#C restore;
#X floatatom 261 182 5 0 0 0 - - -, f 5;
#X msg 239 147 store 2 70 72 74 76;
#X obj 111 225 coll;
#C restore;
#X msg 250 216 nth 1 \$1;
#X obj 306 167 bng 15 250 50 0 empty empty empty 17 7 0 10 -262144
-1 -1;
#X connect 1 0 11 1;
#X connect 3 0 11 0;
#X connect 5 0 15 0;
#X connect 5 0 18 0;
#X connect 11 0 1 0;
#X connect 11 0 2 0;
#X connect 12 0 11 0;
#X connect 13 0 18 0;
#X connect 15 0 10 0;
#X connect 15 0 3 0;
#X connect 15 1 9 0;
#X connect 16 0 19 0;
#X connect 18 0 14 0;
#X connect 19 0 15 0;
#X connect 20 0 16 0;
