#N canvas 1048 108 847 584 10;
#X obj 528 141 bng 15 250 50 0 empty empty empty 17 7 0 10 -262144
-1 -1;
#X obj 574 140 bng 15 250 50 0 empty empty empty 17 7 0 10 -262144
-1 -1;
#X obj 268 28 t b b b, f 19;
#X obj 20 35 bng 15 250 50 0 empty empty empty 17 7 0 10 -262144 -1
-1;
#X msg 513 94 100 150 200 250 300;
#X obj 430 110 gen-rnd;
#X msg 456 85 31;
#X obj 132 78 hsl 128 15 0 5000 0 1 empty empty delay -2 -8 0 10 -262144
-1 -1 0 0;
#X obj 433 357 gen-rnd;
#X obj 619 369 bng 15 250 50 0 empty empty empty 17 7 0 10 -262144
-1 -1;
#X obj 667 364 bng 15 250 50 0 empty empty empty 17 7 0 10 -262144
-1 -1;
#X obj 357 259 t b b b, f 19;
#X obj 512 338 gen-rnd;
#X obj 231 329 hsl 128 15 0 5000 0 1 empty empty delay -2 -8 0 10 -262144
-1 -1 5100 0;
#X msg 466 334 37;
#X msg 544 316 61;
#X floatatom 152 104 5 0 0 0 - - -, f 5;
#X floatatom 255 356 5 0 0 0 - - -, f 5;
#X msg 623 314 2000 2500 3000 4000 5000;
#X msg 383 141 RND;
#X msg 340 111 64 66 68 71;
#X msg 133 433 64 66 68 71;
#X obj 102 307 bng 15 250 50 0 empty empty empty 17 7 0 10 -262144
-1 -1;
#X obj 305 493 bng 15 250 50 0 empty empty empty 17 7 0 10 -262144
-1 -1;
#X obj 338 494 bng 15 250 50 0 empty empty empty 17 7 0 10 -262144
-1 -1;
#X msg 629 337 4;
#X obj 141 193 bng 15 250 50 0 empty empty empty 17 7 0 10 -262144
-1 -1;
#X obj 102 355 t b b;
#X msg 308 154 1 2 3;
#X msg 393 381 4 5 6;
#X msg 116 490 7 8 9;
#X obj 102 531 play-lists, f 31;
#X msg 278 456 6;
#X msg 152 455 110 100 50;
#X msg 200 477 1000;
#X obj 282 188 play-lists, f 38;
#X obj 373 416 play-lists, f 38;
#X connect 0 0 35 11;
#X connect 1 0 35 12;
#X connect 2 0 35 0;
#X connect 2 1 5 0;
#X connect 2 1 28 0;
#X connect 2 1 20 0;
#X connect 2 2 4 0;
#X connect 2 2 6 0;
#X connect 2 2 19 0;
#X connect 3 0 2 0;
#X connect 3 0 26 0;
#X connect 4 0 35 8;
#X connect 5 0 35 6;
#X connect 6 0 5 1;
#X connect 7 0 16 0;
#X connect 8 0 36 4;
#X connect 9 0 36 11;
#X connect 10 0 36 12;
#X connect 11 0 36 0;
#X connect 11 1 8 0;
#X connect 11 1 12 0;
#X connect 11 1 29 0;
#X connect 11 2 18 0;
#X connect 11 2 14 0;
#X connect 11 2 15 0;
#X connect 11 2 25 0;
#X connect 12 0 36 6;
#X connect 13 0 17 0;
#X connect 14 0 8 1;
#X connect 15 0 12 1;
#X connect 16 0 35 1;
#X connect 17 0 36 1;
#X connect 18 0 36 8;
#X connect 19 0 35 5;
#X connect 20 0 35 4;
#X connect 21 0 31 4;
#X connect 22 0 27 0;
#X connect 23 0 31 11;
#X connect 24 0 31 12;
#X connect 26 0 11 0;
#X connect 27 0 31 0;
#X connect 27 1 30 0;
#X connect 27 1 21 0;
#X connect 27 1 33 0;
#X connect 27 1 34 0;
#X connect 27 1 32 0;
#X connect 28 0 35 2;
#X connect 29 0 36 2;
#X connect 30 0 31 2;
#X connect 32 0 31 10;
#X connect 33 0 31 6;
#X connect 34 0 31 8;
