#N canvas 1133 380 717 299 10;
#X obj 39 213 print;
#X obj 39 132 augment, f 15;
#X obj 57 162 expr $f2 + $f1*($f3-$f2)/$f4;
#X msg 39 76 10 20 30 40 50 60;
#X msg 196 88 4;
#X obj 287 212 print;
#X obj 287 131 augment, f 15;
#X msg 287 75 10 20 30 40 50 60;
#X msg 444 87 4;
#X obj 327 164 expr $f2;
#X obj 510 213 print;
#X obj 510 132 augment, f 15;
#X msg 667 88 4;
#X obj 550 165 expr $f2/$f4;
#X msg 510 76 200 400 200;
#X text 52 51 interpolation;
#X text 293 51 tremolo (pitch);
#X text 496 53 tremolo (duration);
#X connect 1 0 0 0;
#X connect 1 1 2 0;
#X connect 1 2 2 1;
#X connect 1 3 2 2;
#X connect 1 4 2 3;
#X connect 2 0 1 2;
#X connect 3 0 1 0;
#X connect 4 0 1 1;
#X connect 6 0 5 0;
#X connect 6 1 9 0;
#X connect 6 2 9 1;
#X connect 7 0 6 0;
#X connect 8 0 6 1;
#X connect 9 0 6 2;
#X connect 11 0 10 0;
#X connect 11 1 13 0;
#X connect 11 2 13 1;
#X connect 11 4 13 3;
#X connect 12 0 11 1;
#X connect 13 0 11 2;
#X connect 14 0 11 0;
