#N canvas 547 486 450 300 10;
#X obj 170 81 bng 15 250 50 0 empty empty empty 17 7 0 10 -262144 -1
-1;
#X obj 173 129 gen-rnd;
#X text 250 87 143 -> buffer overflow;
#X obj 96 231 print len;
#X obj 217 208 print done;
#X obj 101 166 list length;
#X msg 210 90 500;
#X connect 0 0 1 0;
#X connect 1 0 4 0;
#X connect 5 0 3 0;
#X connect 6 0 1 1;
