#N canvas 1066 231 768 658 10;
#X obj 53 170 bng 15 250 50 0 empty empty empty 17 7 0 10 -262144 -1
-1;
#X obj 99 169 bng 15 250 50 0 empty empty empty 17 7 0 10 -262144 -1
-1;
#X obj -207 57 t b b b, f 19;
#X obj -455 64 bng 15 250 50 0 empty empty empty 17 7 0 10 -262144
-1 -1;
#X msg 38 123 100 150 200 250 300;
#X obj -53 139 gen-rnd;
#X msg -14 117 31;
#X msg -146 173 1;
#X obj -343 107 hsl 128 15 0 5000 0 1 empty empty delay -2 -8 0 10
-262144 -1 -1 0 0;
#X obj -42 367 gen-rnd;
#X obj 144 398 bng 15 250 50 0 empty empty empty 17 7 0 10 -262144
-1 -1;
#X obj 190 397 bng 15 250 50 0 empty empty empty 17 7 0 10 -262144
-1 -1;
#X obj -118 288 t b b b, f 19;
#X obj 30 367 gen-rnd;
#X obj -244 358 hsl 128 15 0 5000 0 1 empty empty delay -2 -8 0 10
-262144 -1 -1 5100 0;
#X msg -55 404 2;
#X msg -7 344 37;
#X msg 69 345 61;
#X floatatom -180 189 5 0 0 0 - - -, f 5;
#X floatatom -91 418 5 0 0 0 - - -, f 5;
#X msg 148 343 2000 2500 3000 4000 5000;
#X msg -95 160 RND;
#X msg -135 140 64 66 68 71;
#X obj -373 560 play-lists, f 31;
#X msg -342 462 64 66 68 71;
#X obj -373 336 bng 15 250 50 0 empty empty empty 17 7 0 10 -262144
-1 -1;
#X obj -206 528 bng 15 250 50 0 empty empty empty 17 7 0 10 -262144
-1 -1;
#X obj -174 533 bng 15 250 50 0 empty empty empty 17 7 0 10 -262144
-1 -1;
#X msg 154 366 4;
#X obj -334 222 bng 15 250 50 0 empty empty empty 17 7 0 10 -262144
-1 -1;
#X msg -323 484 110 100;
#X msg -292 506 1000 2000;
#X obj -373 384 t b b;
#X msg -359 519 6;
#X obj -193 217 play-lists, f 38;
#X obj -102 445 play-lists, f 38;
#X msg -218 488 ms 5000;
#X connect 0 0 34 10;
#X connect 1 0 34 11;
#X connect 2 0 34 0;
#X connect 2 1 5 0;
#X connect 2 1 7 0;
#X connect 2 1 22 0;
#X connect 2 2 4 0;
#X connect 2 2 6 0;
#X connect 2 2 21 0;
#X connect 3 0 2 0;
#X connect 3 0 29 0;
#X connect 4 0 34 7;
#X connect 5 0 34 5;
#X connect 6 0 5 1;
#X connect 7 0 34 2;
#X connect 8 0 18 0;
#X connect 9 0 35 3;
#X connect 10 0 35 10;
#X connect 11 0 35 11;
#X connect 12 0 35 0;
#X connect 12 1 9 0;
#X connect 12 1 13 0;
#X connect 12 1 15 0;
#X connect 12 2 20 0;
#X connect 12 2 16 0;
#X connect 12 2 17 0;
#X connect 12 2 28 0;
#X connect 13 0 35 5;
#X connect 14 0 19 0;
#X connect 15 0 35 2;
#X connect 16 0 9 1;
#X connect 17 0 13 1;
#X connect 18 0 34 1;
#X connect 19 0 35 1;
#X connect 20 0 35 7;
#X connect 21 0 34 4;
#X connect 22 0 34 3;
#X connect 24 0 23 3;
#X connect 25 0 32 0;
#X connect 26 0 23 10;
#X connect 27 0 23 11;
#X connect 29 0 12 0;
#X connect 30 0 23 5;
#X connect 31 0 23 7;
#X connect 32 0 23 0;
#X connect 32 1 33 0;
#X connect 32 1 24 0;
#X connect 32 1 30 0;
#X connect 32 1 31 0;
#X connect 32 1 36 0;
#X connect 33 0 23 2;
#X connect 36 0 23 9;
