#N canvas 664 174 450 300 10;
#X msg 115 94 2;
#X msg 149 94 64;
#X msg 184 94 110;
#X obj 22 51 t b b;
#X obj 318 8 bng 15 250 50 0 empty empty empty 17 7 0 10 -262144 -1
-1;
#X obj 366 29 bng 15 250 50 0 empty empty empty 17 7 0 10 -262144 -1
-1;
#X msg 220 94 3000;
#X obj 124 143 play, f 16;
#X connect 0 0 7 1;
#X connect 1 0 7 2;
#X connect 2 0 7 3;
#X connect 3 0 7 0;
#X connect 3 1 0 0;
#X connect 3 1 6 0;
#X connect 3 1 2 0;
#X connect 3 1 1 0;
#X connect 4 0 3 0;
#X connect 5 0 7 5;
#X connect 6 0 7 4;
