#N canvas 648 148 911 766 10;
#X msg 268 171 64 66 68 69 71 73 75;
#X msg 479 171 RNR;
#X msg 532 171 100;
#X obj 272 229 play-lists, f 51;
#X obj 196 67 t b b;
#X obj 105 190 bng 15 250 50 0 empty empty empty 17 7 0 10 -262144
-1 -1;
#X obj 203 20 bng 15 250 50 0 empty empty empty 17 7 0 10 -262144 -1
-1;
#X msg 517 355 100;
#X obj 251 459 play-lists, f 51;
#X obj 835 361 bng 15 250 50 0 empty empty empty 17 7 0 10 -262144
-1 -1;
#X obj 276 341 t b b;
#X obj 98 409 bng 15 250 50 0 empty empty empty 17 7 0 10 -262144 -1
-1;
#X msg 450 355 RNR;
#X obj 268 115 bng 15 250 50 0 empty empty empty 17 7 0 10 -262144
-1 -1;
#X obj 213 292 bng 15 250 50 0 empty empty empty 17 7 0 10 -262144
-1 -1;
#X msg 216 619 64 66 68 69 71 73 75;
#X msg 515 598 100;
#X obj 249 702 play-lists, f 51;
#X obj 274 584 t b b;
#X obj 96 652 bng 15 250 50 0 empty empty empty 17 7 0 10 -262144 -1
-1;
#X msg 448 598 RNR;
#X obj 156 535 bng 15 250 50 0 empty empty empty 17 7 0 10 -262144
-1 -1;
#X msg 380 619 24;
#X msg 596 171 200;
#X msg 581 355 300;
#X msg 569 598 600;
#X msg 382 376 12;
#X obj 831 173 bng 15 250 50 0 empty empty empty 17 7 0 10 -262144
-1 -1;
#X msg 218 376 64 66 68 69 71 73 75;
#X obj 309 411 list-math -;
#X obj 307 654 list-math -;
#X connect 0 0 3 4;
#X connect 1 0 3 5;
#X connect 2 0 3 6;
#X connect 4 0 5 0;
#X connect 4 0 11 0;
#X connect 4 0 19 0;
#X connect 4 1 13 0;
#X connect 4 1 14 0;
#X connect 4 1 21 0;
#X connect 5 0 3 0;
#X connect 6 0 4 0;
#X connect 7 0 8 6;
#X connect 9 0 8 12;
#X connect 9 0 3 12;
#X connect 9 0 17 12;
#X connect 10 0 28 0;
#X connect 10 1 26 0;
#X connect 11 0 8 0;
#X connect 12 0 8 5;
#X connect 13 0 0 0;
#X connect 13 0 1 0;
#X connect 13 0 2 0;
#X connect 13 0 23 0;
#X connect 14 0 10 0;
#X connect 14 0 12 0;
#X connect 14 0 7 0;
#X connect 14 0 24 0;
#X connect 15 0 30 0;
#X connect 16 0 17 6;
#X connect 18 0 15 0;
#X connect 18 1 22 0;
#X connect 19 0 17 0;
#X connect 20 0 17 5;
#X connect 21 0 18 0;
#X connect 21 0 20 0;
#X connect 21 0 16 0;
#X connect 21 0 25 0;
#X connect 22 0 30 1;
#X connect 23 0 3 8;
#X connect 24 0 8 8;
#X connect 25 0 17 8;
#X connect 26 0 29 1;
#X connect 27 0 3 11;
#X connect 27 0 8 11;
#X connect 27 0 17 11;
#X connect 28 0 29 0;
#X connect 29 0 8 4;
#X connect 30 0 17 4;
