#N canvas 546 103 450 300 10;
#X obj 186 96 gen-fun;
#X obj 263 95 expr $i1;
#X floatatom 216 61 5 0 1023 0 - - -, f 5;
#X obj 167 44 bng 15 250 50 0 empty empty empty 17 7 0 10 -262144 -1
-1;
#X obj 59 142 print ORIGINAL;
#X obj 186 118 list-shuffle;
#X obj 67 201 print SHUFFLED;
#X connect 0 0 4 0;
#X connect 0 0 5 0;
#X connect 0 1 1 0;
#X connect 1 0 0 2;
#X connect 2 0 0 1;
#X connect 3 0 0 0;
#X connect 5 0 6 0;
