#N canvas 1402 299 450 588 10;
#X obj 35 26 bng 15 250 50 0 empty empty empty 17 7 0 10 -262144 -1
-1;
#X msg 136 180 1;
#X obj 35 46 t b b;
#X msg 235 180 0 127;
#X obj 370 35 bng 15 250 50 0 empty empty empty 17 7 0 10 -262144 -1
-1;
#X obj 415 35 bng 15 250 50 0 empty empty empty 17 7 0 10 -262144 -1
-1;
#X floatatom 78 356 0 0 0 0 - - -;
#X obj 138 468 noteout;
#X obj 78 435 makenote 64 250;
#X obj 78 382 metro 500;
#X msg 78 329 1;
#X msg 110 329 0;
#X msg 78 409 60;
#X msg 201 436 1;
#X msg 285 180 500;
#X obj 127 235 play-ctl, f 37;
#X obj 405 276 bng 15 250 50 0 empty empty empty 17 7 0 10 -262144
-1 -1;
#X msg 185 180 10;
#X connect 0 0 2 0;
#X connect 1 0 15 2;
#X connect 2 0 15 0;
#X connect 2 0 10 0;
#X connect 2 1 1 0;
#X connect 2 1 17 0;
#X connect 2 1 3 0;
#X connect 2 1 14 0;
#X connect 3 0 15 6;
#X connect 4 0 15 11;
#X connect 5 0 15 12;
#X connect 5 0 16 0;
#X connect 6 0 9 0;
#X connect 8 0 7 0;
#X connect 8 1 7 1;
#X connect 9 0 12 0;
#X connect 10 0 6 0;
#X connect 11 0 6 0;
#X connect 12 0 8 0;
#X connect 13 0 7 2;
#X connect 14 0 15 8;
#X connect 16 0 11 0;
#X connect 17 0 15 4;
