#N canvas 801 101 688 883 10;
#X obj 244 198 + 1;
#X floatatom 215 245 5 0 0 0 - - -, f 5;
#X obj 215 142 bng 15 250 50 0 empty empty empty 17 7 0 10 -262144
-1 -1;
#X obj 215 198 f;
#X msg 234 167 0;
#X floatatom 144 343 5 0 0 0 - - -, f 5;
#X obj 143 102 zl nth 1;
#X floatatom 368 210 5 0 0 0 - - -, f 5;
#X obj 239 285 + 1;
#X obj 300 127 zl len;
#X floatatom 256 245 5 0 0 0 - - -, f 5;
#X obj 229 264 %;
#X msg 143 40 1 3 5 7 9 11 13 15 17 19;
#X obj 303 435 + 1;
#X obj 274 379 bng 15 250 50 0 empty empty empty 17 7 0 10 -262144
-1 -1;
#X obj 274 435 f;
#X msg 293 404 0;
#X obj 273 501 print;
#X floatatom 236 461 5 0 0 0 - - -, f 5;
#X obj 273 479 expr 2 * $i1;
#X obj 390 664 print uno;
#X obj 523 654 print dos;
#X msg 486 418 list expr $i1 * 3;
#X obj 486 440 list trim;
#X obj 513 495 print;
#X floatatom 486 462 5 0 0 0 - - -, f 5;
#X msg 396 529 symbol foo=1;
#X obj 411 573 symbol 2*3;
#X obj 418 614 expr $s1;
#X connect 0 0 3 1;
#X connect 1 0 11 0;
#X connect 2 0 3 0;
#X connect 3 0 0 0;
#X connect 3 0 1 0;
#X connect 4 0 3 0;
#X connect 6 0 5 0;
#X connect 6 0 2 0;
#X connect 7 0 6 1;
#X connect 8 0 7 0;
#X connect 9 0 10 0;
#X connect 10 0 11 1;
#X connect 11 0 8 0;
#X connect 12 0 6 0;
#X connect 12 0 9 0;
#X connect 13 0 15 1;
#X connect 14 0 15 0;
#X connect 15 0 13 0;
#X connect 15 0 18 0;
#X connect 15 0 19 0;
#X connect 16 0 15 0;
#X connect 19 0 17 0;
#X connect 22 0 23 0;
#X connect 23 0 25 0;
#X connect 25 0 24 0;
#X connect 26 0 27 0;
#X connect 27 0 28 0;
#X connect 28 0 20 0;
