#N canvas 275 690 450 300 10;
#X obj 155 40 bng 15 250 50 0 empty empty empty 17 7 0 10 -262144 -1
-1;
#X floatatom 188 43 5 0 0 0 - - -, f 5;
#X obj 149 140 print;
#X obj 178 94 gen-fun;
#X obj 236 94 expr 64 + 8 * sin($i1);
#X obj 285 124 array 6;
#X connect 0 0 3 0;
#X connect 1 0 3 1;
#X connect 3 0 2 0;
#X connect 3 0 5 0;
#X connect 3 1 4 0;
#X connect 4 0 3 2;
