#N canvas 357 399 450 300 10;
#X obj 169 230 print;
#X obj 119 101 list-next;
#X obj 286 106 list-rnd;
#X obj 232 12 bng 15 250 50 0 empty empty empty 17 7 0 10 -262144 -1
-1;
#X floatatom 118 132 5 0 0 0 - - -, f 5;
#X floatatom 286 128 5 0 0 0 - - -, f 5;
#X msg 96 14 23 34 45 56 78 89;
#X obj 185 76 bng 15 250 50 0 empty empty empty 17 7 0 10 -262144 -1
-1;
#X connect 1 0 4 0;
#X connect 2 0 5 0;
#X connect 3 0 1 1;
#X connect 3 0 2 0;
#X connect 6 0 1 0;
#X connect 6 0 2 1;
#X connect 7 0 1 2;
