#N canvas 258 272 912 519 10;
#X obj 32 35 bng 15 250 50 0 empty empty empty 17 7 0 10 -262144 -1
-1;
#X floatatom 176 139 5 0 127 0 - - -, f 5;
#X floatatom 189 167 5 100 2000 0 - - -, f 5;
#X msg 472 107 64 66 68;
#X obj 136 205 play, f 10;
#X obj 551 236 + 1;
#X floatatom 523 283 5 0 0 0 - - -, f 5;
#X obj 500 203 bng 15 250 50 0 empty empty empty 17 7 0 10 -262144
-1 -1;
#X obj 472 170 zl nth 1;
#X floatatom 648 271 5 0 0 0 - - -, f 5;
#X obj 547 357 + 1;
#X obj 574 171 zl len;
#X floatatom 574 283 5 0 0 0 - - -, f 5;
#X obj 547 302 %;
#X floatatom 547 324 5 0 0 0 - - -, f 5;
#X floatatom 389 265 5 0 0 0 - - -, f 5;
#X floatatom 454 402 5 0 127 0 - - -, f 5;
#X floatatom 494 400 5 100 1000 0 - - -, f 5;
#X obj 428 48 r test04-2-l1;
#X obj 402 482 s test04-2-l1;
#X obj 428 79 t b b;
#X obj 324 116 bng 15 250 50 0 empty empty empty 17 7 0 10 -262144
-1 -1;
#X obj 523 236 f 1;
#X msg 796 134 0;
#X msg 758 127 1;
#X obj 787 93 bng 15 250 50 0 empty empty empty 17 7 0 10 -262144 -1
-1;
#X obj 572 413 bng 15 250 50 0 empty empty empty 17 7 0 10 -262144
-1 -1;
#X obj 136 36 bng 15 250 50 0 empty empty empty 17 7 0 10 -262144 -1
-1;
#X floatatom 162 114 5 0 127 0 - - -, f 5;
#X obj 405 451 play, f 10;
#X msg 149 85 1;
#X obj 105 205 bng 15 250 50 0 empty empty empty 17 7 0 10 -262144
-1 -1;
#X obj 250 158 bng 15 250 50 0 empty empty empty 17 7 0 10 -262144
-1 -1;
#X connect 0 0 1 0;
#X connect 0 0 2 0;
#X connect 0 0 28 0;
#X connect 0 0 30 0;
#X connect 1 0 4 3;
#X connect 2 0 4 4;
#X connect 3 0 11 0;
#X connect 3 0 8 0;
#X connect 4 0 0 0;
#X connect 4 0 31 0;
#X connect 5 0 22 1;
#X connect 6 0 13 0;
#X connect 7 0 22 0;
#X connect 8 0 7 0;
#X connect 8 0 15 0;
#X connect 9 0 8 1;
#X connect 10 0 9 0;
#X connect 11 0 12 0;
#X connect 12 0 13 1;
#X connect 13 0 14 0;
#X connect 14 0 10 0;
#X connect 15 0 29 2;
#X connect 16 0 29 3;
#X connect 17 0 29 4;
#X connect 18 0 20 0;
#X connect 18 0 21 0;
#X connect 20 0 3 0;
#X connect 20 1 17 0;
#X connect 20 1 16 0;
#X connect 21 0 29 0;
#X connect 22 0 5 0;
#X connect 22 0 6 0;
#X connect 23 0 6 0;
#X connect 23 0 12 0;
#X connect 23 0 9 0;
#X connect 23 0 14 0;
#X connect 23 0 15 0;
#X connect 24 0 22 1;
#X connect 25 0 24 0;
#X connect 25 0 23 0;
#X connect 26 0 29 5;
#X connect 27 0 4 0;
#X connect 28 0 4 2;
#X connect 29 0 19 0;
#X connect 30 0 4 1;
#X connect 31 0 4 0;
#X connect 32 0 4 5;
