#N canvas 718 80 942 996 10;
#X obj 256 771 + 1;
#X floatatom 217 801 5 0 0 0 - - -, f 5;
#X obj 230 729 bng 15 250 50 0 empty empty empty 17 7 0 10 -262144
-1 -1;
#X msg 367 490 list 1 3 5 7 9;
#X msg 268 555 nstore 1 pitches 64 66 68;
#X msg 92 485 nstore 2 velocities 80 100 120;
#X msg 93 507 nstore 3 durations 250 300 450;
#X floatatom 318 735 5 0 0 0 - - -, f 5;
#X floatatom 265 735 5 0 0 0 - - -, f 5;
#X obj 217 770 f;
#X msg 167 741 0;
#X msg 133 606 length;
#X floatatom 154 697 5 0 0 0 - - -, f 5;
#X obj 270 689 coll;
#X floatatom 307 613 5 0 0 0 - - -, f 5;
#X msg 285 578 store 2 70 72 74 76;
#X obj 157 656 coll;
#X msg 296 647 nth 1 \$1;
#X obj 352 598 bng 15 250 50 0 empty empty empty 17 7 0 10 -262144
-1 -1;
#X text 45 459 For nstore et al. see coll's help;
#X msg 38 120 clear;
#X obj 221 251 append note pitch velocity duration;
#N canvas 539 343 450 300 note-data 0;
#X restore 36 59 pd note-data;
#N canvas 903 724 186 165 note-template 0;
#X obj 22 24 struct note float channel float silence float pitch float
velocity float duration, f 14;
#X restore 35 39 pd note-template;
#X obj 297 100 pointer;
#X obj 262 53 bng 15 250 50 0 empty empty empty 17 7 0 10 -262144 -1
-1;
#X obj 191 139 print pointer;
#X msg 297 36 traverse pd-note-data;
#X obj 403 115 print end of note-data;
#X floatatom 230 215 5 0 127 0 - - -, f 5;
#X floatatom 295 215 5 0 127 0 - - -, f 5;
#X floatatom 357 215 5 100 2000 0 - - -, f 5;
#X obj 165 279 print pointer post-append;
#X obj 652 96 pointer;
#X msg 652 38 traverse pd-note-data;
#X msg 607 61 next;
#X obj 652 151 get note pitch velocity duration;
#X obj 714 192 print velocity;
#X obj 822 192 print duration;
#X obj 625 192 print pitch;
#X text 602 215 1) traverse: initialize;
#X text 615 232 2) next: get data items;
#X text 187 326 1) traverse to pointer: initialize;
#X text 200 343 2) bang to pointer: send first pointer;
#X text 220 361 3) send values to 1st inlet of append (it keeps an
internal pointer);
#X obj 711 123 print end of note-data;
#N canvas 6 76 542 262 listas-dltm 0;
#X obj 365 164 expr $i1 + $i2;
#X obj 52 43 struct notes list pitches list velocities list durations
;
#X obj 72 77 struct notes2 array notes_array midinote;
#X obj 39 100 struct midinote float pitch float velocity float duration
;
#X restore 808 941 pd listas-dltm;
#X obj 38 155 s pd-note-data;
#X obj 752 614 s \$0-zzz;
#X obj 756 649 r \$0-zzz;
#X floatatom 759 590 5 0 0 0 - - -, f 5;
#X floatatom 756 672 5 0 0 0 - - -, f 5;
#X connect 0 0 9 1;
#X connect 2 0 9 0;
#X connect 4 0 13 0;
#X connect 4 0 16 0;
#X connect 9 0 0 0;
#X connect 9 0 1 0;
#X connect 10 0 9 0;
#X connect 11 0 16 0;
#X connect 13 0 8 0;
#X connect 13 0 2 0;
#X connect 13 1 7 0;
#X connect 14 0 17 0;
#X connect 16 0 12 0;
#X connect 17 0 13 0;
#X connect 18 0 14 0;
#X connect 20 0 47 0;
#X connect 21 0 32 0;
#X connect 24 0 26 0;
#X connect 24 0 21 3;
#X connect 24 1 28 0;
#X connect 25 0 24 0;
#X connect 27 0 24 0;
#X connect 29 0 21 0;
#X connect 30 0 21 1;
#X connect 31 0 21 2;
#X connect 33 0 36 0;
#X connect 33 1 45 0;
#X connect 34 0 33 0;
#X connect 35 0 33 0;
#X connect 36 0 39 0;
#X connect 36 1 37 0;
#X connect 36 2 38 0;
#X connect 49 0 51 0;
#X connect 50 0 48 0;
