#N canvas 562 93 1105 942 10;
#X msg 242 110 69 68 69 66 68 64 66 66;
#X msg 421 111 100;
#X obj 205 175 play-lists, f 37;
#X obj 33 18 bng 15 250 50 0 empty empty empty 17 7 0 10 -262144 -1
-1;
#X obj 836 700 bng 15 250 50 0 empty empty empty 17 7 0 10 -262144
-1 -1;
#X msg 203 128 1;
#X obj 289 449 expr $f2;
#X obj 213 492 play-lists, f 34;
#X obj 144 41 t b b b;
#X obj 628 77 bng 15 250 50 0 empty empty empty 17 7 0 10 -262144 -1
-1;
#X obj -40 480 bng 15 250 50 0 empty empty empty 17 7 0 10 -262144
-1 -1;
#X obj 258 383 list-math - 12;
#X msg 220 422 4;
#X obj 277 700 expr $f2;
#X obj 206 746 play-lists, f 34;
#X obj 253 629 list-math + 12;
#X obj 195 360 bng 15 250 50 0 empty empty empty 17 7 0 10 -262144
-1 -1;
#X obj 197 610 bng 15 250 50 0 empty empty empty 17 7 0 10 -262144
-1 -1;
#X msg 218 677 6;
#X obj 552 708 expr $f2/$f4;
#X obj 544 450 expr $f2/$f4;
#X obj 120 467 ctlout 10;
#X msg 126 720 127;
#X msg 120 443 0;
#X obj 126 742 ctlout 10;
#X obj 583 322 bng 15 250 50 0 empty empty empty 17 7 0 10 -262144
-1 -1;
#X obj 642 562 bng 15 250 50 0 empty empty empty 17 7 0 10 -262144
-1 -1;
#X obj 51 628 vsl 15 128 0 127 0 0 empty empty empty 0 -9 0 10 -262144
-1 -1 0 1;
#X obj 77 314 vsl 15 128 0 127 0 0 empty empty empty 0 -9 0 10 -262144
-1 -1 0 1;
#X msg 397 370 4;
#X msg 365 629 6;
#X obj 370 423 augment, f 14;
#X obj 261 421 augment, f 15;
#X obj 511 422 augment, f 16;
#X obj 254 675 augment, f 16;
#X obj 519 678 augment, f 16;
#X msg 474 109 1000;
#X msg 182 425 8000;
#X msg 175 683 16000;
#X obj 378 676 augment, f 16;
#X obj 324 533 print seq2;
#X obj 359 784 print seq3;
#X obj 373 702 expr $f2-$f2*($f4-$f1-1)/$f4;
#X obj 364 452 expr $f2-$f2*$f1/$f4;
#N canvas 104 575 971 410 seq3 1;
#X obj 28 22 inlet start;
#X obj 890 20 inlet stop;
#X obj 836 220 bng 15 250 50 0 empty empty empty 17 7 0 10 -262144
-1 -1;
#X obj 251 370 play-lists, f 64;
#X obj 254 268 bng 15 250 50 0 empty empty empty 17 7 0 10 -262144
-1 -1;
#X obj 627 300 expr $f2/$f4;
#X msg 115 328 127;
#X obj 123 369 ctlout 10;
#X obj 642 82 bng 15 250 50 0 empty empty empty 17 7 0 10 -262144 -1
-1;
#X obj 90 213 vsl 15 128 0 127 0 0 empty empty empty 0 -9 0 10 -262144
-1 -1 0 1;
#X obj 265 193 augment, f 16;
#X obj 609 270 augment, f 16;
#X obj 481 240 augment, f 16;
#X msg 234 302 24000;
#X msg 275 301 8;
#X obj 734 20 inlet config;
#X obj 154 133 t b b, f 6;
#X obj 206 19 inlet pitches;
#X obj 353 20 inlet velocities;
#X obj 596 21 inlet durations;
#X obj 245 156 list-math + 24;
#X msg 470 135 5;
#X obj 501 266 expr $f2+0*$f4;
#X obj 11 231 print seq4, f 22;
#X obj 287 222 expr $f2+sin(6.2832*$i1/($i4-1));
#X connect 0 0 3 0;
#X connect 1 0 2 0;
#X connect 2 0 3 11;
#X connect 4 0 14 0;
#X connect 4 0 13 0;
#X connect 5 0 11 2;
#X connect 6 0 7 0;
#X connect 8 0 21 0;
#X connect 8 0 16 0;
#X connect 9 0 7 0;
#X connect 10 0 3 3;
#X connect 10 0 23 0;
#X connect 10 1 24 0;
#X connect 10 2 24 1;
#X connect 10 3 24 2;
#X connect 10 4 24 3;
#X connect 11 0 3 7;
#X connect 11 1 5 0;
#X connect 11 2 5 1;
#X connect 11 3 5 2;
#X connect 11 4 5 3;
#X connect 12 0 3 5;
#X connect 12 1 22 0;
#X connect 12 2 22 1;
#X connect 12 3 22 2;
#X connect 12 4 22 3;
#X connect 13 0 3 1;
#X connect 14 0 3 2;
#X connect 14 0 7 2;
#X connect 15 0 8 0;
#X connect 16 0 6 0;
#X connect 16 1 4 0;
#X connect 17 0 20 0;
#X connect 18 0 12 0;
#X connect 19 0 11 0;
#X connect 20 0 10 0;
#X connect 21 0 10 1;
#X connect 21 0 11 1;
#X connect 21 0 12 1;
#X connect 22 0 12 2;
#X connect 24 0 10 2;
#X restore 253 855 pd seq3;
#X connect 0 0 2 3;
#X connect 0 0 11 0;
#X connect 0 0 15 0;
#X connect 0 0 44 1;
#X connect 1 0 2 5;
#X connect 1 0 31 0;
#X connect 1 0 39 0;
#X connect 1 0 44 2;
#X connect 3 0 8 0;
#X connect 4 0 2 11;
#X connect 4 0 7 11;
#X connect 4 0 14 11;
#X connect 4 0 44 5;
#X connect 5 0 2 2;
#X connect 6 0 32 2;
#X connect 8 0 10 0;
#X connect 8 1 36 0;
#X connect 8 1 1 0;
#X connect 8 1 0 0;
#X connect 8 1 5 0;
#X connect 8 1 23 0;
#X connect 8 1 22 0;
#X connect 8 2 9 0;
#X connect 9 0 25 0;
#X connect 9 0 26 0;
#X connect 9 0 44 4;
#X connect 10 0 2 0;
#X connect 10 0 7 0;
#X connect 10 0 14 0;
#X connect 10 0 44 0;
#X connect 11 0 32 0;
#X connect 12 0 7 2;
#X connect 12 0 21 2;
#X connect 13 0 34 2;
#X connect 15 0 34 0;
#X connect 16 0 37 0;
#X connect 16 0 12 0;
#X connect 17 0 38 0;
#X connect 17 0 18 0;
#X connect 18 0 14 2;
#X connect 18 0 24 2;
#X connect 19 0 35 2;
#X connect 20 0 33 2;
#X connect 22 0 24 0;
#X connect 23 0 21 0;
#X connect 25 0 16 0;
#X connect 25 0 29 0;
#X connect 26 0 17 0;
#X connect 26 0 30 0;
#X connect 27 0 24 0;
#X connect 28 0 21 0;
#X connect 29 0 31 1;
#X connect 29 0 32 1;
#X connect 29 0 33 1;
#X connect 30 0 34 1;
#X connect 30 0 35 1;
#X connect 30 0 39 1;
#X connect 31 0 7 5;
#X connect 31 0 40 0;
#X connect 31 1 43 0;
#X connect 31 2 43 1;
#X connect 31 3 43 2;
#X connect 31 4 43 3;
#X connect 32 0 7 3;
#X connect 32 1 6 0;
#X connect 32 2 6 1;
#X connect 33 0 7 7;
#X connect 33 1 20 0;
#X connect 33 2 20 1;
#X connect 33 3 20 2;
#X connect 33 4 20 3;
#X connect 34 0 14 3;
#X connect 34 1 13 0;
#X connect 34 2 13 1;
#X connect 35 0 14 7;
#X connect 35 1 19 0;
#X connect 35 2 19 1;
#X connect 35 3 19 2;
#X connect 35 4 19 3;
#X connect 36 0 2 7;
#X connect 36 0 33 0;
#X connect 36 0 35 0;
#X connect 36 0 44 3;
#X connect 37 0 7 1;
#X connect 38 0 14 1;
#X connect 39 0 14 5;
#X connect 39 0 41 0;
#X connect 39 1 42 0;
#X connect 39 2 42 1;
#X connect 39 3 42 2;
#X connect 39 4 42 3;
#X connect 42 0 39 2;
#X connect 43 0 31 2;
