#N canvas 132 82 1767 825 10;
#X obj 125 22 bng 15 250 50 0 empty empty empty 17 7 0 10 -262144 -1
-1;
#X obj 223 521 play-lists, f 49;
#X obj 1502 586 bng 15 250 50 0 empty empty empty 17 7 0 10 -262144
-1 -1;
#X obj 52 586 bng 15 250 50 0 empty empty empty 17 7 0 10 -262144 -1
-1;
#X obj 125 49 t b b b, f 89;
#X obj 493 211 bng 15 250 50 0 empty empty empty 17 7 0 10 -262144
-1 -1;
#X obj 726 225 bng 15 250 50 0 empty empty empty 17 7 0 10 -262144
-1 -1;
#X msg 551 251 125;
#X msg 516 251 50;
#X msg 449 251 4;
#X obj 242 221 bng 15 250 50 0 empty empty empty 17 7 0 10 -262144
-1 -1;
#X obj 1077 520 play-lists, f 49;
#X obj 1245 215 bng 15 250 50 0 empty empty empty 17 7 0 10 -262144
-1 -1;
#X obj 1541 179 bng 15 250 50 0 empty empty empty 17 7 0 10 -262144
-1 -1;
#X msg 1599 219 300;
#X msg 1316 253 125;
#X msg 1281 253 50;
#X msg 1564 219 50;
#X obj 1032 241 bng 15 250 50 0 empty empty empty 17 7 0 10 -262144
-1 -1;
#X msg 318 272 64;
#X msg 1074 278 64;
#X msg 283 272 28;
#X msg 1109 278 90;
#X msg 784 265 500;
#X msg 749 265 100;
#X msg 482 251 0.25;
#X msg 715 265 0.25;
#X msg 1040 278 0.25;
#X msg 1247 253 0.25;
#X msg 1530 219 0.25;
#N canvas 0 50 450 250 (subpatch) 0;
#X array v1 16 float 0;
#X coords 0 127 15 0 200 140 1 0 0;
#X restore 243 641 graph;
#N canvas 0 50 450 250 (subpatch) 0;
#X array d1 9 float 0;
#X coords 0 500 8 0 200 140 1 0 0;
#X restore 451 641 graph;
#N canvas 0 50 450 250 (subpatch) 0;
#X array p2 25 float 0;
#X coords 0 127 24 0 200 140 1 0 0;
#X restore 710 641 graph;
#N canvas 1 65 682 512 (subpatch) 0;
#X array v2 16 float 0;
#X coords 0 127 15 0 200 140 1 0 0;
#X restore 921 641 graph;
#N canvas 0 50 450 250 (subpatch) 0;
#X array d2 9 float 0;
#X coords 0 500 8 0 200 140 1 0 0;
#X restore 1133 641 graph;
#X msg 249 272 0.25;
#N canvas 0 50 450 250 (subpatch) 0;
#X array p1 25 float 0;
#X coords 0 127 24 0 200 140 1 0 0;
#X restore 35 641 graph;
#X msg 216 272 5;
#X obj 1481 251 fractal, f 19;
#X obj 1523 277 expr sin(6.2832*$i1/$i2);
#X obj 1193 286 fractal, f 19;
#X obj 1235 312 expr sin(6.2832*$i1/$i2);
#X obj 978 308 fractal, f 19;
#X obj 1041 333 expr sin(6.2832*$i1/$i2);
#X obj 1572 325 list-len;
#X obj 1498 300 t l l;
#X obj 1305 367 list-len;
#X obj 1227 341 t l l;
#X obj 1221 367 array set v2;
#X obj 1288 389 array size v2;
#X obj 976 363 list-len;
#X obj 950 342 t l l;
#X obj 892 363 array set p2;
#X obj 964 385 array size p2;
#X obj 1478 325 array set d2;
#X obj 1560 347 array size d2;
#X obj 639 299 fractal, f 19;
#X obj 702 324 expr sin(6.2832*$i1/$i2);
#X obj 736 370 list-len;
#X obj 680 346 t l l;
#X obj 652 370 array set d1;
#X obj 724 392 array size d1;
#X obj 394 288 fractal, f 19;
#X obj 457 313 expr sin(6.2832*$i1/$i2);
#X obj 505 359 list-len;
#X obj 440 335 t l l;
#X obj 421 359 array set v1;
#X obj 493 381 array size v1;
#X obj 134 307 fractal, f 19;
#X obj 197 332 expr sin(6.2832*$i1/$i2);
#X obj 186 367 list-len;
#X obj 121 343 t l l;
#X obj 89 367 array set p1;
#X obj 174 389 array size p1;
#X msg 180 272 2;
#X msg 972 279 2;
#X msg 415 251 2;
#X msg 651 267 2;
#X msg 1183 253 2;
#X msg 1457 220 2;
#X msg 1007 278 5;
#X msg 1214 253 4;
#X msg 1497 219 3;
#X msg 682 265 3;
#X connect 0 0 4 0;
#X connect 2 0 1 12;
#X connect 2 0 11 12;
#X connect 3 0 1 0;
#X connect 3 0 11 0;
#X connect 4 0 3 0;
#X connect 4 1 38 0;
#X connect 4 1 40 0;
#X connect 4 1 42 0;
#X connect 4 1 56 0;
#X connect 4 1 62 0;
#X connect 4 1 68 0;
#X connect 4 2 5 0;
#X connect 4 2 6 0;
#X connect 4 2 10 0;
#X connect 4 2 18 0;
#X connect 4 2 12 0;
#X connect 4 2 13 0;
#X connect 5 0 9 0;
#X connect 5 0 25 0;
#X connect 5 0 8 0;
#X connect 5 0 7 0;
#X connect 5 0 76 0;
#X connect 6 0 83 0;
#X connect 6 0 26 0;
#X connect 6 0 24 0;
#X connect 6 0 23 0;
#X connect 6 0 77 0;
#X connect 7 0 62 5;
#X connect 8 0 62 4;
#X connect 9 0 62 2;
#X connect 10 0 37 0;
#X connect 10 0 35 0;
#X connect 10 0 21 0;
#X connect 10 0 19 0;
#X connect 10 0 74 0;
#X connect 12 0 81 0;
#X connect 12 0 28 0;
#X connect 12 0 16 0;
#X connect 12 0 15 0;
#X connect 12 0 78 0;
#X connect 13 0 82 0;
#X connect 13 0 29 0;
#X connect 13 0 17 0;
#X connect 13 0 14 0;
#X connect 13 0 79 0;
#X connect 14 0 38 5;
#X connect 15 0 40 5;
#X connect 16 0 40 4;
#X connect 17 0 38 4;
#X connect 18 0 80 0;
#X connect 18 0 27 0;
#X connect 18 0 20 0;
#X connect 18 0 22 0;
#X connect 18 0 75 0;
#X connect 19 0 68 5;
#X connect 20 0 42 4;
#X connect 21 0 68 4;
#X connect 22 0 42 5;
#X connect 23 0 56 5;
#X connect 24 0 56 4;
#X connect 25 0 62 3;
#X connect 26 0 56 3;
#X connect 27 0 42 3;
#X connect 28 0 40 3;
#X connect 29 0 38 3;
#X connect 35 0 68 3;
#X connect 37 0 68 2;
#X connect 38 1 45 0;
#X connect 38 1 11 8;
#X connect 38 2 39 0;
#X connect 38 3 39 1;
#X connect 39 0 38 6;
#X connect 40 1 47 0;
#X connect 40 1 11 6;
#X connect 40 2 41 0;
#X connect 40 3 41 1;
#X connect 41 0 40 6;
#X connect 42 1 51 0;
#X connect 42 1 11 4;
#X connect 42 2 43 0;
#X connect 42 3 43 1;
#X connect 43 0 42 6;
#X connect 44 0 55 0;
#X connect 45 0 54 0;
#X connect 45 1 44 0;
#X connect 46 0 49 0;
#X connect 47 0 48 0;
#X connect 47 1 46 0;
#X connect 50 0 53 0;
#X connect 51 0 52 0;
#X connect 51 1 50 0;
#X connect 56 1 59 0;
#X connect 56 1 1 8;
#X connect 56 2 57 0;
#X connect 56 3 57 1;
#X connect 57 0 56 6;
#X connect 58 0 61 0;
#X connect 59 0 60 0;
#X connect 59 1 58 0;
#X connect 62 1 65 0;
#X connect 62 1 1 6;
#X connect 62 2 63 0;
#X connect 62 3 63 1;
#X connect 63 0 62 6;
#X connect 64 0 67 0;
#X connect 65 0 66 0;
#X connect 65 1 64 0;
#X connect 68 1 71 0;
#X connect 68 1 1 4;
#X connect 68 2 69 0;
#X connect 68 3 69 1;
#X connect 69 0 68 6;
#X connect 70 0 73 0;
#X connect 71 0 72 0;
#X connect 71 1 70 0;
#X connect 74 0 68 1;
#X connect 75 0 42 1;
#X connect 76 0 62 1;
#X connect 77 0 56 1;
#X connect 78 0 40 1;
#X connect 79 0 38 1;
#X connect 80 0 42 2;
#X connect 81 0 40 2;
#X connect 82 0 38 2;
#X connect 83 0 56 2;
