#N canvas 548 147 1368 526 10;
#X obj 190 21 bng 15 250 50 0 empty empty empty 17 7 0 10 -262144 -1
-1;
#X obj 674 481 bng 15 250 50 0 empty empty empty 17 7 0 10 -262144
-1 -1;
#X obj 29 307 play-lists, f 32;
#X obj 59 106 t b b;
#X msg 114 190 RND;
#X msg 149 236 RND;
#X msg 97 170 64 69 71 76;
#X msg 52 269 9;
#X msg 166 257 200;
#X obj 274 311 play-lists, f 32;
#X obj 302 91 t b b;
#X msg 342 194 RND;
#X msg 377 240 RND;
#X msg 325 174 63 64 66 69 71 73;
#X msg 297 273 11;
#X msg 359 220 80 90 100;
#X msg 394 261 4000;
#X msg 248 232 5000;
#X obj 510 311 play-lists, f 32;
#X obj 532 92 t b b;
#X msg 572 195 RND;
#X msg 607 241 RND;
#X msg 589 221 80 90 100;
#X msg 624 262 4000;
#X obj 742 309 play-lists, f 32;
#X obj 754 85 t b b;
#X msg 794 188 RND;
#X msg 829 234 RND;
#X msg 777 168 63 64 66 69 71 73;
#X msg 811 214 80 90 100;
#X msg 846 255 4000;
#X msg 478 233 11000;
#X msg 700 226 16000;
#X msg 749 267 6;
#X msg 527 274 14;
#X obj 975 303 play-lists, f 32;
#X obj 1003 83 t b b;
#X msg 1043 186 RND;
#X msg 1078 232 RND;
#X msg 998 265 3;
#X msg 1095 253 3000;
#X msg 949 224 18000;
#X msg 1060 212 99 99 1 1 1 1 1;
#X msg 1026 166 33 28;
#X msg 555 175 63 64 66 68 71 73;
#X msg 131 216 40 50 60;
#X obj 569 480 bng 15 250 50 0 empty empty empty 17 7 0 10 -262144
-1 -1;
#X connect 0 0 3 0;
#X connect 0 0 10 0;
#X connect 0 0 19 0;
#X connect 0 0 25 0;
#X connect 0 0 36 0;
#X connect 1 0 2 12;
#X connect 1 0 9 12;
#X connect 1 0 24 12;
#X connect 1 0 35 12;
#X connect 1 0 18 12;
#X connect 3 0 2 0;
#X connect 3 1 6 0;
#X connect 3 1 7 0;
#X connect 3 1 4 0;
#X connect 3 1 45 0;
#X connect 3 1 8 0;
#X connect 3 1 5 0;
#X connect 4 0 2 5;
#X connect 5 0 2 7;
#X connect 6 0 2 4;
#X connect 7 0 2 2;
#X connect 8 0 2 8;
#X connect 10 0 9 0;
#X connect 10 1 13 0;
#X connect 10 1 14 0;
#X connect 10 1 11 0;
#X connect 10 1 15 0;
#X connect 10 1 16 0;
#X connect 10 1 12 0;
#X connect 10 1 17 0;
#X connect 11 0 9 5;
#X connect 12 0 9 7;
#X connect 13 0 9 4;
#X connect 14 0 9 2;
#X connect 15 0 9 6;
#X connect 16 0 9 8;
#X connect 17 0 9 1;
#X connect 19 0 18 0;
#X connect 19 1 44 0;
#X connect 19 1 34 0;
#X connect 19 1 20 0;
#X connect 19 1 22 0;
#X connect 19 1 23 0;
#X connect 19 1 21 0;
#X connect 19 1 31 0;
#X connect 20 0 18 5;
#X connect 21 0 18 7;
#X connect 22 0 18 6;
#X connect 23 0 18 8;
#X connect 25 0 24 0;
#X connect 25 1 28 0;
#X connect 25 1 33 0;
#X connect 25 1 26 0;
#X connect 25 1 29 0;
#X connect 25 1 30 0;
#X connect 25 1 27 0;
#X connect 25 1 32 0;
#X connect 26 0 24 5;
#X connect 27 0 24 7;
#X connect 28 0 24 4;
#X connect 29 0 24 6;
#X connect 30 0 24 8;
#X connect 31 0 18 1;
#X connect 32 0 24 1;
#X connect 33 0 24 2;
#X connect 34 0 18 2;
#X connect 36 0 35 0;
#X connect 36 1 43 0;
#X connect 36 1 39 0;
#X connect 36 1 37 0;
#X connect 36 1 42 0;
#X connect 36 1 40 0;
#X connect 36 1 38 0;
#X connect 36 1 41 0;
#X connect 37 0 35 5;
#X connect 38 0 35 7;
#X connect 39 0 35 2;
#X connect 40 0 35 8;
#X connect 41 0 35 1;
#X connect 42 0 35 6;
#X connect 43 0 35 4;
#X connect 44 0 18 4;
#X connect 45 0 2 6;
#X connect 46 0 2 11;
#X connect 46 0 9 11;
#X connect 46 0 18 11;
#X connect 46 0 24 11;
#X connect 46 0 35 11;
