#N canvas 589 155 450 300 10;
#X obj 151 222 play-lists, f 32;
#X obj 138 4 bng 15 250 50 0 empty empty empty 17 7 0 10 -262144 -1
-1;
#X obj 170 30 t b b;
#X msg 202 85 22 23 24 25 26 27 28 29 30 31 32 33 34;
#X msg 173 184 3;
#X msg 219 105 RND;
#X obj 392 159 bng 15 250 50 0 empty empty empty 17 7 0 10 -262144
-1 -1;
#X msg 236 133 100;
#X msg 271 133 500;
#X connect 1 0 2 0;
#X connect 2 0 0 0;
#X connect 2 1 3 0;
#X connect 2 1 4 0;
#X connect 2 1 5 0;
#X connect 2 1 7 0;
#X connect 2 1 8 0;
#X connect 3 0 0 3;
#X connect 4 0 0 2;
#X connect 5 0 0 4;
#X connect 6 0 0 11;
#X connect 7 0 0 5;
#X connect 8 0 0 7;
