#N canvas 37 144 1879 657 10;
#X obj 44 532 play-lists, f 72;
#X obj 6 16 bng 15 250 50 0 empty empty empty 17 7 0 10 -262144 -1
-1;
#X obj 593 492 bng 15 250 50 0 empty empty empty 17 7 0 10 -262144
-1 -1;
#X obj 527 484 bng 15 250 50 0 empty empty empty 17 7 0 10 -262144
-1 -1;
#X obj 182 343 bng 15 250 50 0 empty empty empty 17 7 0 10 -262144
-1 -1;
#X msg 149 493 RNR;
#X msg 900 85 0;
#X obj 900 110 ctlout 10 1;
#X obj 990 110 ctlout 10 2;
#X obj 1080 110 ctlout 10 3;
#X obj 1170 110 ctlout 10 4;
#X msg 1170 85 127;
#X msg 990 85 42;
#X msg 1080 85 84;
#X obj 916 53 bng 15 250 50 0 empty empty empty 17 7 0 10 -262144 -1
-1;
#X msg 248 494 100 80 90 60 70 50 40;
#X obj 193 494 list;
#X msg 270 362 list;
#X obj 6 36 t b b b b;
#X obj 888 481 play-ctl, f 28;
#X msg 920 337 1;
#X msg 952 337 7;
#X msg 1162 337 7;
#X msg 1130 337 2;
#X msg 1194 337 0 127;
#X floatatom 529 253 10 0 0 0 - - -, f 10;
#X msg 1382 337 7;
#X msg 1414 337 0 127;
#X msg 1602 337 7;
#X msg 1634 337 0 127;
#X msg 1350 337 3;
#X msg 1570 337 4;
#X obj 850 429 bng 15 250 50 0 empty empty empty 17 7 0 10 -262144
-1 -1;
#X obj 1404 604 r esquizo3-stop;
#X obj 1233 604 r esquizo3-reset;
#X obj 1526 33 bng 15 250 50 0 empty empty empty 17 7 0 10 -262144
-1 -1;
#X obj 1543 64 s esquizo3-reset;
#X obj 1733 33 bng 15 250 50 0 empty empty empty 17 7 0 10 -262144
-1 -1;
#X obj 1733 63 s esquizo3-stop;
#X obj 608 458 r esquizo3-stop;
#X obj 545 424 r esquizo3-reset;
#X obj 7 126 s esquizo3-start;
#X obj 13 402 r esquizo3-start;
#X obj 761 402 r esquizo3-start;
#X obj 1098 481 play-ctl, f 28;
#X obj 1318 481 play-ctl, f 28;
#X obj 1538 481 play-ctl, f 28;
#X obj 118 65 s esquizo3-init1;
#X obj 1289 157 r esquizo3-init1;
#N canvas 100 174 1749 662 pitches 0;
#X obj 197 370 list-emath +;
#X msg 210 342 0 0 0 1 0 0 0;
#X obj 327 370 list-emath +;
#X obj 457 370 list-emath +;
#X obj 587 370 list-emath +;
#X obj 717 370 list-emath +;
#X obj 847 370 list-emath +;
#X obj 977 370 list-emath +;
#X obj 1107 370 list-emath +;
#X obj 1237 370 list-emath +;
#X obj 1367 370 list-emath +;
#X obj 1497 370 list-emath +;
#X msg 340 342 1 0 0 1 0 0 0;
#X msg 470 342 1 0 0 1 1 0 0;
#X msg 600 342 1 1 0 1 1 0 0;
#X msg 730 342 1 1 0 1 1 1 0;
#X msg 860 342 1 1 1 1 1 1 0;
#X msg 990 342 1 1 1 1 1 1 1;
#X msg 1120 342 1 1 1 2 1 1 1;
#X msg 1250 342 2 1 1 2 1 1 1;
#X msg 1380 342 2 1 1 2 2 1 1;
#X msg 1510 342 2 2 1 2 2 1 1;
#X obj 67 275 t a a a a a a a a a a a a, f 205;
#X obj 936 528 list;
#X obj 977 549 list;
#X msg 1142 558 list;
#X obj 1142 503 r esquizo3-init1;
#X obj 850 609 outlet;
#X obj 46 29 inlet;
#X obj 1155 525 r esquizo3-reset;
#X msg 180 143 2;
#X obj 1497 397 list-shuffle-x;
#X obj 1367 397 list-shuffle-x;
#X obj 1237 397 list-shuffle-x;
#X obj 1108 397 list-shuffle-x;
#X obj 977 397 list-shuffle-x;
#X obj 847 397 list-shuffle-x;
#X obj 717 397 list-shuffle-x;
#X obj 588 397 list-shuffle-x;
#X obj 457 397 list-shuffle-x;
#X obj 327 397 list-shuffle-x;
#X obj 198 397 list-shuffle-x;
#X obj 67 397 list-shuffle-x;
#X obj 180 252 t f b f b f b f b f b f b f b f b f b f b f b f, f
202;
#X obj 1499 419 list length;
#X obj 67 143 scale DIA 60;
#X obj 1499 601 outlet chunk length (notes);
#X obj 46 89 t b b b, f 8;
#X obj 46 453 bng 15 250 50 0 empty empty empty 17 7 0 10 -262144 -1
-1;
#X obj 850 567 list;
#X connect 0 0 41 0;
#X connect 1 0 0 1;
#X connect 2 0 40 0;
#X connect 3 0 39 0;
#X connect 4 0 38 0;
#X connect 5 0 37 0;
#X connect 6 0 36 0;
#X connect 7 0 35 0;
#X connect 8 0 34 0;
#X connect 9 0 33 0;
#X connect 10 0 32 0;
#X connect 11 0 31 0;
#X connect 12 0 2 1;
#X connect 13 0 3 1;
#X connect 14 0 4 1;
#X connect 15 0 5 1;
#X connect 16 0 6 1;
#X connect 17 0 7 1;
#X connect 18 0 8 1;
#X connect 19 0 9 1;
#X connect 20 0 10 1;
#X connect 21 0 11 1;
#X connect 22 0 42 0;
#X connect 22 1 0 0;
#X connect 22 2 2 0;
#X connect 22 3 3 0;
#X connect 22 4 4 0;
#X connect 22 5 5 0;
#X connect 22 6 6 0;
#X connect 22 7 7 0;
#X connect 22 8 8 0;
#X connect 22 9 9 0;
#X connect 22 10 10 0;
#X connect 22 11 11 0;
#X connect 23 0 24 0;
#X connect 23 0 49 1;
#X connect 24 0 23 1;
#X connect 25 0 23 1;
#X connect 25 0 24 1;
#X connect 26 0 25 0;
#X connect 28 0 47 0;
#X connect 29 0 25 0;
#X connect 30 0 43 0;
#X connect 31 0 23 0;
#X connect 31 0 44 0;
#X connect 32 0 23 0;
#X connect 33 0 23 0;
#X connect 34 0 23 0;
#X connect 35 0 23 0;
#X connect 36 0 23 0;
#X connect 37 0 23 0;
#X connect 38 0 23 0;
#X connect 39 0 23 0;
#X connect 40 0 23 0;
#X connect 41 0 23 0;
#X connect 42 0 23 0;
#X connect 43 0 42 1;
#X connect 43 1 1 0;
#X connect 43 2 41 1;
#X connect 43 3 12 0;
#X connect 43 4 40 1;
#X connect 43 5 13 0;
#X connect 43 6 39 1;
#X connect 43 7 14 0;
#X connect 43 8 38 1;
#X connect 43 9 15 0;
#X connect 43 10 37 1;
#X connect 43 11 16 0;
#X connect 43 12 36 1;
#X connect 43 13 17 0;
#X connect 43 14 35 1;
#X connect 43 15 18 0;
#X connect 43 16 34 1;
#X connect 43 17 19 0;
#X connect 43 18 33 1;
#X connect 43 19 20 0;
#X connect 43 20 32 1;
#X connect 43 21 21 0;
#X connect 43 22 31 1;
#X connect 44 0 46 0;
#X connect 45 0 22 0;
#X connect 47 0 48 0;
#X connect 47 1 45 0;
#X connect 47 2 30 0;
#X connect 48 0 49 0;
#X connect 49 0 27 0;
#X restore 218 170 pd pitches;
#X obj 218 138 bng 15 250 50 0 empty empty empty 17 7 0 10 -262144
-1 -1;
#X obj 529 231 expr $f1 * $f2;
#X text 604 251 chunk duration (ms);
#N canvas 5 86 1493 349 mixer 0;
#X obj 157 28 inlet chunk duration (ms);
#X obj 519 194 list-math *;
#X obj 179 194 list-math *;
#X obj 1209 194 list-math *;
#X obj 859 194 list-math *;
#X obj 146 269 outlet;
#X obj 197 247 list length;
#X obj 197 269 outlet;
#X obj 486 269 outlet;
#X obj 537 247 list length;
#X obj 537 269 outlet;
#X obj 846 269 outlet;
#X obj 897 247 list length;
#X obj 897 269 outlet;
#X obj 1196 269 outlet;
#X obj 1247 247 list length;
#X obj 1247 269 outlet;
#X obj 157 50 t b f b f b f b f, f 158;
#X msg 495 146 12 36 2 4 2 1 2 2 2 1 1 5 6 6 2;
#X msg 799 147 24 24 2 1 2 4 2 1 1 2 2 7 6 3 3;
#X msg 1187 141 36 12 2 1 2 1 2 4 1 1 1 2 1 17 1;
#X msg 11 145 51 2 1 2 1 2 2 1 1 1 1 1 2 6 10 1;
#X obj 11 194 list-accum;
#X obj 426 194 list-accum;
#X obj 768 194 list-accum;
#X obj 1118 194 list-accum;
#X floatatom 11 216 5 0 0 0 - - -, f 5;
#X floatatom 426 216 5 0 0 0 - - -, f 5;
#X floatatom 768 216 5 0 0 0 - - -, f 5;
#X floatatom 1118 216 5 0 0 0 - - -, f 5;
#X connect 0 0 17 0;
#X connect 1 0 9 0;
#X connect 1 0 8 0;
#X connect 2 0 5 0;
#X connect 2 0 6 0;
#X connect 3 0 15 0;
#X connect 3 0 14 0;
#X connect 4 0 12 0;
#X connect 4 0 11 0;
#X connect 6 0 7 0;
#X connect 9 0 10 0;
#X connect 12 0 13 0;
#X connect 15 0 16 0;
#X connect 17 0 21 0;
#X connect 17 1 2 1;
#X connect 17 2 18 0;
#X connect 17 3 1 1;
#X connect 17 4 19 0;
#X connect 17 5 4 1;
#X connect 17 6 20 0;
#X connect 17 7 3 1;
#X connect 18 0 1 0;
#X connect 18 0 23 0;
#X connect 19 0 4 0;
#X connect 19 0 24 0;
#X connect 20 0 3 0;
#X connect 20 0 25 0;
#X connect 21 0 2 0;
#X connect 21 0 22 0;
#X connect 22 0 26 0;
#X connect 23 0 27 0;
#X connect 24 0 28 0;
#X connect 25 0 29 0;
#X restore 1016 399 pd mixer times;
#X msg 984 337 127 0;
#X msg 410 494 150;
#X obj 13 486 bng 15 250 50 0 empty empty empty 17 7 0 10 -262144 -1
-1;
#X obj 1526 86 reset-ctls;
#X obj 1494 58 bng 15 250 50 0 empty empty empty 17 7 0 10 -262144
-1 -1;
#X msg 83 493 1 2 3 4;
#X connect 1 0 18 0;
#X connect 2 0 0 12;
#X connect 3 0 0 11;
#X connect 4 0 55 0;
#X connect 4 0 15 0;
#X connect 4 0 59 0;
#X connect 4 0 5 0;
#X connect 4 0 16 0;
#X connect 5 0 0 3;
#X connect 6 0 7 0;
#X connect 11 0 10 0;
#X connect 12 0 8 0;
#X connect 13 0 9 0;
#X connect 14 0 6 0;
#X connect 14 0 12 0;
#X connect 14 0 13 0;
#X connect 14 0 11 0;
#X connect 15 0 0 6;
#X connect 16 0 0 4;
#X connect 17 0 16 1;
#X connect 18 0 41 0;
#X connect 18 1 4 0;
#X connect 18 2 14 0;
#X connect 18 2 50 0;
#X connect 18 3 47 0;
#X connect 20 0 19 2;
#X connect 21 0 19 4;
#X connect 22 0 44 4;
#X connect 23 0 44 2;
#X connect 24 0 44 6;
#X connect 25 0 53 0;
#X connect 26 0 45 4;
#X connect 27 0 45 6;
#X connect 28 0 46 4;
#X connect 29 0 46 6;
#X connect 30 0 45 2;
#X connect 31 0 46 2;
#X connect 32 0 44 0;
#X connect 32 0 45 0;
#X connect 32 0 46 0;
#X connect 32 0 19 0;
#X connect 33 0 19 12;
#X connect 33 0 44 12;
#X connect 33 0 45 12;
#X connect 33 0 46 12;
#X connect 34 0 19 11;
#X connect 34 0 44 11;
#X connect 34 0 45 11;
#X connect 34 0 46 11;
#X connect 35 0 36 0;
#X connect 35 0 57 0;
#X connect 37 0 38 0;
#X connect 39 0 2 0;
#X connect 40 0 3 0;
#X connect 42 0 56 0;
#X connect 43 0 32 0;
#X connect 48 0 20 0;
#X connect 48 0 21 0;
#X connect 48 0 54 0;
#X connect 48 0 23 0;
#X connect 48 0 22 0;
#X connect 48 0 24 0;
#X connect 48 0 30 0;
#X connect 48 0 26 0;
#X connect 48 0 27 0;
#X connect 48 0 31 0;
#X connect 48 0 28 0;
#X connect 48 0 29 0;
#X connect 48 0 17 0;
#X connect 49 0 16 1;
#X connect 49 1 51 1;
#X connect 50 0 49 0;
#X connect 51 0 25 0;
#X connect 53 0 19 8;
#X connect 53 1 19 10;
#X connect 53 2 44 8;
#X connect 53 3 44 10;
#X connect 53 4 45 8;
#X connect 53 5 45 10;
#X connect 53 6 46 8;
#X connect 53 7 46 10;
#X connect 54 0 19 6;
#X connect 55 0 0 8;
#X connect 55 0 51 0;
#X connect 56 0 0 0;
#X connect 58 0 57 0;
#X connect 59 0 0 2;
