#N canvas 9 81 1899 825 10;
#X obj 6 6 bng 15 250 50 0 empty empty empty 17 7 0 10 -262144 -1 -1
;
#X obj 223 521 play-lists, f 49;
#X obj 1827 600 bng 15 250 50 0 empty empty empty 17 7 0 10 -262144
-1 -1;
#X obj 52 609 bng 15 250 50 0 empty empty empty 17 7 0 10 -262144 -1
-1;
#X obj 6 33 t b b b, f 172;
#X obj 402 168 bng 15 250 50 0 empty empty empty 17 7 0 10 -262144
-1 -1;
#X obj 513 289 bng 15 250 50 0 empty empty empty 17 7 0 10 -262144
-1 -1;
#X msg 460 208 125;
#X msg 425 208 50;
#X msg 358 208 4;
#X obj 167 262 bng 15 250 50 0 empty empty empty 17 7 0 10 -262144
-1 -1;
#X msg 391 208 0.25;
#X msg 537 329 0.25;
#N canvas 0 50 450 250 (subpatch) 0;
#X array v1 64 float 0;
#X coords 0 127 63 0 200 140 1 0 0;
#X restore 209 641 graph;
#N canvas 0 50 450 250 (subpatch) 0;
#X array d1 216 float 0;
#X coords 0 4000 215 0 200 140 1 0 0;
#X restore 411 641 graph;
#N canvas 0 50 450 250 (subpatch) 0;
#X array p2 64 float 0;
#X coords 0 127 63 0 200 140 1 0 0;
#X restore 639 641 graph;
#N canvas 1 65 682 512 (subpatch) 0;
#X array v2 216 float 0;
#X coords 0 127 215 0 200 140 1 0 0;
#X restore 841 641 graph;
#N canvas 0 50 450 250 (subpatch) 0;
#X array d2 125 float 0;
#X coords 0 4000 124 0 200 140 1 0 0;
#X restore 1043 641 graph;
#X msg 174 313 0.25;
#N canvas 0 50 450 250 (subpatch) 0;
#X array p1 125 float 0;
#X coords 0 127 124 0 200 140 1 0 0;
#X restore 7 641 graph;
#X msg 141 313 5;
#X obj 468 355 fractal, f 19;
#X obj 506 429 list-len;
#X obj 493 406 t l l;
#X obj 473 474 array set d1;
#X obj 494 451 array size d1;
#X obj 311 241 fractal, f 19;
#X obj 319 290 list-len;
#X obj 309 266 t l l;
#X obj 288 333 array set v1;
#X obj 307 312 array size v1;
#X obj 87 345 fractal, f 19;
#X obj 90 393 list-len;
#X obj 79 370 t l l;
#X obj 70 439 array set p1;
#X obj 83 416 array size p1;
#X obj 840 525 play-lists, f 49;
#X obj 1019 172 bng 15 250 50 0 empty empty empty 17 7 0 10 -262144
-1 -1;
#X obj 1150 285 bng 15 250 50 0 empty empty empty 17 7 0 10 -262144
-1 -1;
#X msg 1077 212 125;
#X msg 1042 212 50;
#X obj 784 266 bng 15 250 50 0 empty empty empty 17 7 0 10 -262144
-1 -1;
#X msg 1008 212 0.25;
#X msg 1139 325 0.25;
#X msg 791 317 0.25;
#X obj 1063 359 fractal, f 19;
#X obj 1126 384 expr sin(6.2832*$i1/$i2);
#X obj 1106 433 list-len;
#X obj 1093 410 t l l;
#X obj 928 245 fractal, f 19;
#X obj 991 270 expr sin(6.2832*$i1/$i2);
#X obj 936 294 list-len;
#X obj 926 270 t l l;
#X obj 704 349 fractal, f 19;
#X obj 767 374 expr sin(6.2832*$i1/$i2);
#X obj 707 397 list-len;
#X obj 696 374 t l l;
#X obj 1429 536 play-lists, f 49;
#X obj 1608 183 bng 15 250 50 0 empty empty empty 17 7 0 10 -262144
-1 -1;
#X obj 1739 296 bng 15 250 50 0 empty empty empty 17 7 0 10 -262144
-1 -1;
#X msg 1666 223 125;
#X msg 1631 223 50;
#X obj 1373 277 bng 15 250 50 0 empty empty empty 17 7 0 10 -262144
-1 -1;
#X msg 1597 223 0.25;
#X msg 1728 336 0.25;
#X msg 1380 328 0.25;
#X obj 1652 370 fractal, f 19;
#X obj 1695 444 list-len;
#X obj 1682 421 t l l;
#X obj 1517 256 fractal, f 19;
#X obj 1525 305 list-len;
#X obj 1515 281 t l l;
#X obj 1293 360 fractal, f 19;
#X obj 1296 408 list-len;
#X obj 1285 385 t l l;
#X obj 1633 110 bng 15 250 50 0 empty empty empty 17 7 0 10 -262144
-1 -1;
#X obj 1067 109 bng 15 250 50 0 empty empty empty 17 7 0 10 -262144
-1 -1;
#X obj 435 114 bng 15 250 50 0 empty empty empty 17 7 0 10 -262144
-1 -1;
#X obj 199 96 bng 15 250 50 0 empty empty empty 17 7 0 10 -262144 -1
-1;
#X obj 745 160 bng 15 250 50 0 empty empty empty 17 7 0 10 -262144
-1 -1;
#X obj 1406 109 bng 15 250 50 0 empty empty empty 17 7 0 10 -262144
-1 -1;
#X obj 700 420 array size p2;
#X obj 687 443 array set p2;
#X obj 924 316 array size v2;
#X obj 905 337 array set v2;
#X obj 1094 455 array size d2;
#X obj 1073 478 array set d2;
#X obj 1289 431 array size p3;
#X obj 1276 454 array set p3;
#X obj 1513 327 array size v3;
#X obj 1494 348 array set v3;
#X obj 1683 466 array size d3;
#X obj 1662 489 array set d3;
#N canvas 0 50 450 250 (subpatch) 0;
#X array p3 216 float 0;
#X coords 0 127 215 0 200 140 1 0 0;
#X restore 1280 642 graph;
#N canvas 0 50 450 250 (subpatch) 0;
#X array v3 125 float 0;
#X coords 0 127 124 0 200 140 1 0 0;
#X restore 1482 642 graph;
#N canvas 0 50 450 250 (subpatch) 0;
#X array d3 64 float 0;
#X coords 0 4000 63 0 200 140 1 0 0;
#X restore 1684 642 graph;
#X msg 758 317 4;
#X msg 1106 325 5;
#X obj 150 370 expr sin(6.2832*($i1-1)/$i2);
#X obj 374 266 expr sin(6.2832*($i1-1)/$i2);
#X obj 509 380 expr sin(6.2832*($i1-1)/$i2);
#X obj 1356 385 expr sin(6.2832*($i1+1)/$i2);
#X obj 1580 281 expr sin(6.2832*($i1+1)/$i2);
#X obj 1715 395 expr sin(6.2832*($i1+1)/$i2);
#X msg 213 471 1;
#X msg 834 478 2;
#X msg 1426 480 3;
#X obj 157 493 pgmout;
#X msg 126 469 0;
#X obj 177 441 bng 15 250 50 0 empty empty empty 17 7 0 10 -262144
-1 -1;
#X obj 779 499 pgmout;
#X obj 764 523 ctlout 10;
#X obj 799 447 bng 15 250 50 0 empty empty empty 17 7 0 10 -262144
-1 -1;
#X msg 748 475 64;
#X obj 1373 507 pgmout;
#X obj 1393 455 bng 15 250 50 0 empty empty empty 17 7 0 10 -262144
-1 -1;
#X msg 1342 483 127;
#X obj 1358 531 ctlout 10;
#X obj 142 516 ctlout 10;
#X msg 105 313 3;
#X msg 324 208 3;
#X msg 480 329 3;
#X msg 722 317 3;
#X msg 941 212 3;
#X msg 1075 327 3;
#X msg 1311 328 3;
#X msg 1530 223 3;
#X msg 1664 338 3;
#X msg 508 329 6;
#X msg 975 212 6;
#X msg 1347 328 6;
#X msg 1564 223 5;
#X msg 1695 336 4;
#X msg 208 313 35;
#X msg 573 329 100;
#X msg 1173 325 100;
#X msg 1762 336 100;
#X msg 1414 328 65;
#X msg 825 317 50;
#X msg 860 317 80;
#X msg 243 313 65;
#X msg 1449 328 95;
#X msg 605 329 2000;
#X msg 1208 325 2000;
#X msg 1797 336 2000;
#X msg 157 469 90;
#X msg 779 475 90;
#X msg 1373 483 90;
#X connect 0 0 4 0;
#X connect 2 0 1 11;
#X connect 2 0 57 11;
#X connect 2 0 36 11;
#X connect 3 0 1 0;
#X connect 3 0 36 0;
#X connect 3 0 57 0;
#X connect 4 0 3 0;
#X connect 4 1 78 0;
#X connect 4 1 79 0;
#X connect 4 1 80 0;
#X connect 4 2 75 0;
#X connect 4 2 76 0;
#X connect 4 2 77 0;
#X connect 5 0 9 0;
#X connect 5 0 11 0;
#X connect 5 0 8 0;
#X connect 5 0 7 0;
#X connect 5 0 120 0;
#X connect 6 0 128 0;
#X connect 6 0 12 0;
#X connect 6 0 134 0;
#X connect 6 0 142 0;
#X connect 6 0 121 0;
#X connect 7 0 26 5;
#X connect 8 0 26 4;
#X connect 9 0 26 2;
#X connect 10 0 20 0;
#X connect 10 0 18 0;
#X connect 10 0 133 0;
#X connect 10 0 140 0;
#X connect 10 0 119 0;
#X connect 11 0 26 3;
#X connect 12 0 21 3;
#X connect 18 0 31 3;
#X connect 20 0 31 2;
#X connect 21 1 23 0;
#X connect 21 1 1 7;
#X connect 21 2 100 0;
#X connect 21 3 100 1;
#X connect 22 0 25 0;
#X connect 23 0 24 0;
#X connect 23 1 22 0;
#X connect 26 1 28 0;
#X connect 26 1 1 5;
#X connect 26 2 99 0;
#X connect 26 3 99 1;
#X connect 27 0 30 0;
#X connect 28 0 29 0;
#X connect 28 1 27 0;
#X connect 31 1 33 0;
#X connect 31 1 1 3;
#X connect 31 2 98 0;
#X connect 31 3 98 1;
#X connect 32 0 35 0;
#X connect 33 0 34 0;
#X connect 33 1 32 0;
#X connect 37 0 129 0;
#X connect 37 0 42 0;
#X connect 37 0 40 0;
#X connect 37 0 39 0;
#X connect 37 0 123 0;
#X connect 38 0 97 0;
#X connect 38 0 43 0;
#X connect 38 0 135 0;
#X connect 38 0 143 0;
#X connect 38 0 124 0;
#X connect 39 0 49 5;
#X connect 40 0 49 4;
#X connect 41 0 96 0;
#X connect 41 0 44 0;
#X connect 41 0 138 0;
#X connect 41 0 139 0;
#X connect 41 0 122 0;
#X connect 42 0 49 3;
#X connect 43 0 45 3;
#X connect 44 0 53 3;
#X connect 45 1 48 0;
#X connect 45 1 36 7;
#X connect 45 2 46 0;
#X connect 45 3 46 1;
#X connect 46 0 45 6;
#X connect 47 0 85 0;
#X connect 48 0 86 0;
#X connect 48 1 47 0;
#X connect 49 1 52 0;
#X connect 49 1 36 5;
#X connect 49 2 50 0;
#X connect 49 3 50 1;
#X connect 50 0 49 6;
#X connect 51 0 83 0;
#X connect 52 0 84 0;
#X connect 52 1 51 0;
#X connect 53 1 56 0;
#X connect 53 1 36 3;
#X connect 53 2 54 0;
#X connect 53 3 54 1;
#X connect 54 0 53 6;
#X connect 55 0 81 0;
#X connect 56 0 82 0;
#X connect 56 1 55 0;
#X connect 58 0 131 0;
#X connect 58 0 63 0;
#X connect 58 0 61 0;
#X connect 58 0 60 0;
#X connect 58 0 126 0;
#X connect 59 0 132 0;
#X connect 59 0 64 0;
#X connect 59 0 136 0;
#X connect 59 0 144 0;
#X connect 59 0 127 0;
#X connect 60 0 69 5;
#X connect 61 0 69 4;
#X connect 62 0 130 0;
#X connect 62 0 65 0;
#X connect 62 0 137 0;
#X connect 62 0 141 0;
#X connect 62 0 125 0;
#X connect 63 0 69 3;
#X connect 64 0 66 3;
#X connect 65 0 72 3;
#X connect 66 1 68 0;
#X connect 66 1 57 7;
#X connect 66 2 103 0;
#X connect 66 3 103 1;
#X connect 67 0 91 0;
#X connect 68 0 92 0;
#X connect 68 1 67 0;
#X connect 69 1 71 0;
#X connect 69 1 57 5;
#X connect 69 2 102 0;
#X connect 69 3 102 1;
#X connect 70 0 89 0;
#X connect 71 0 90 0;
#X connect 71 1 70 0;
#X connect 72 1 74 0;
#X connect 72 1 57 3;
#X connect 72 2 101 0;
#X connect 72 3 101 1;
#X connect 73 0 87 0;
#X connect 74 0 88 0;
#X connect 74 1 73 0;
#X connect 75 0 59 0;
#X connect 75 0 58 0;
#X connect 75 0 62 0;
#X connect 75 0 106 0;
#X connect 76 0 38 0;
#X connect 76 0 37 0;
#X connect 76 0 41 0;
#X connect 76 0 105 0;
#X connect 77 0 6 0;
#X connect 77 0 5 0;
#X connect 77 0 10 0;
#X connect 77 0 104 0;
#X connect 78 0 21 0;
#X connect 78 0 26 0;
#X connect 78 0 31 0;
#X connect 78 0 109 0;
#X connect 79 0 53 0;
#X connect 79 0 49 0;
#X connect 79 0 45 0;
#X connect 79 0 112 0;
#X connect 80 0 72 0;
#X connect 80 0 69 0;
#X connect 80 0 66 0;
#X connect 80 0 115 0;
#X connect 96 0 53 2;
#X connect 97 0 45 2;
#X connect 98 0 31 6;
#X connect 99 0 26 6;
#X connect 100 0 21 6;
#X connect 101 0 72 6;
#X connect 102 0 69 6;
#X connect 103 0 66 6;
#X connect 104 0 1 2;
#X connect 104 0 107 1;
#X connect 104 0 118 2;
#X connect 105 0 36 2;
#X connect 105 0 110 1;
#X connect 105 0 111 2;
#X connect 106 0 57 2;
#X connect 106 0 114 1;
#X connect 106 0 117 2;
#X connect 108 0 118 0;
#X connect 109 0 108 0;
#X connect 109 0 145 0;
#X connect 112 0 113 0;
#X connect 112 0 146 0;
#X connect 113 0 111 0;
#X connect 115 0 116 0;
#X connect 115 0 147 0;
#X connect 116 0 117 0;
#X connect 119 0 31 1;
#X connect 120 0 26 1;
#X connect 121 0 21 1;
#X connect 122 0 53 1;
#X connect 123 0 49 1;
#X connect 124 0 45 1;
#X connect 125 0 72 1;
#X connect 126 0 69 1;
#X connect 127 0 66 1;
#X connect 128 0 21 2;
#X connect 129 0 49 2;
#X connect 130 0 72 2;
#X connect 131 0 69 2;
#X connect 132 0 66 2;
#X connect 133 0 31 4;
#X connect 134 0 21 4;
#X connect 135 0 45 4;
#X connect 136 0 66 4;
#X connect 137 0 72 4;
#X connect 138 0 53 4;
#X connect 139 0 53 5;
#X connect 140 0 31 5;
#X connect 141 0 72 5;
#X connect 142 0 21 5;
#X connect 143 0 45 5;
#X connect 144 0 66 5;
#X connect 145 0 107 0;
#X connect 146 0 110 0;
#X connect 147 0 114 0;
