#N canvas 133 73 1767 825 10;
#X obj 125 22 bng 15 250 50 0 empty empty empty 17 7 0 10 -262144 -1
-1;
#X obj 223 521 play-lists, f 49;
#X obj 1502 586 bng 15 250 50 0 empty empty empty 17 7 0 10 -262144
-1 -1;
#X obj 52 586 bng 15 250 50 0 empty empty empty 17 7 0 10 -262144 -1
-1;
#X obj 125 49 t b b b, f 89;
#X obj 493 211 bng 15 250 50 0 empty empty empty 17 7 0 10 -262144
-1 -1;
#X obj 726 225 bng 15 250 50 0 empty empty empty 17 7 0 10 -262144
-1 -1;
#X msg 551 251 125;
#X msg 516 251 50;
#X msg 682 265 5;
#X msg 449 251 4;
#X obj 242 221 bng 15 250 50 0 empty empty empty 17 7 0 10 -262144
-1 -1;
#X obj 1077 520 play-lists, f 49;
#X obj 1245 215 bng 15 250 50 0 empty empty empty 17 7 0 10 -262144
-1 -1;
#X obj 1541 179 bng 15 250 50 0 empty empty empty 17 7 0 10 -262144
-1 -1;
#X msg 1599 219 300;
#X msg 1316 253 125;
#X msg 1281 253 50;
#X msg 1564 219 50;
#X obj 1032 241 bng 15 250 50 0 empty empty empty 17 7 0 10 -262144
-1 -1;
#X msg 1214 253 5;
#X msg 1497 219 6;
#X msg 318 272 64;
#X msg 1074 278 64;
#X msg 283 272 28;
#X msg 1109 278 90;
#X msg 784 265 500;
#X msg 749 265 100;
#X msg 482 251 0.25;
#X msg 715 265 0.25;
#X msg 1040 278 0.25;
#X msg 1247 253 0.25;
#X msg 1530 219 0.25;
#X msg 1007 278 7;
#N canvas 0 50 450 250 (subpatch) 0;
#X array v1 64 float 0;
#X coords 0 0 63 127 200 140 1 0 0;
#X restore 243 641 graph;
#N canvas 0 50 450 250 (subpatch) 0;
#X array d1 125 float 0;
#X coords 0 0 124 500 200 140 1 0 0;
#X restore 451 641 graph;
#N canvas 0 50 450 250 (subpatch) 0;
#X array p2 343 float 0;
#X coords 0 0 342 127 200 140 1 0 0;
#X restore 710 641 graph;
#N canvas 1 65 682 512 (subpatch) 0;
#X array v2 125 float 0;
#X coords 0 0 124 127 200 140 1 0 0;
#X restore 921 641 graph;
#N canvas 0 50 450 250 (subpatch) 0;
#X array d2 216 float 0;
#X coords 0 0 215 500 200 140 1 0 0;
#X restore 1133 641 graph;
#X msg 249 272 0.25;
#N canvas 0 50 450 250 (subpatch) 0;
#X array p1 125 float 0;
#X coords 0 0 124 127 200 140 1 0 0;
#X restore 35 641 graph;
#X msg 216 272 5;
#X obj 1481 251 fractal, f 19;
#X msg 1457 220 3;
#X obj 1523 277 expr sin(6.2832*$i1/$i2);
#X msg 1183 253 3;
#X msg 972 279 3;
#X msg 651 267 3;
#X msg 415 251 3;
#X msg 180 272 3;
#X obj 1193 286 fractal, f 19;
#X obj 1235 312 expr sin(6.2832*$i1/$i2);
#X obj 978 308 fractal, f 19;
#X obj 1041 333 expr sin(6.2832*$i1/$i2);
#X obj 1572 325 list-len;
#X obj 1498 300 t l l;
#X obj 1305 367 list-len;
#X obj 1227 341 t l l;
#X obj 1221 367 array set v2;
#X obj 1288 389 array size v2;
#X obj 976 363 list-len;
#X obj 950 342 t l l;
#X obj 892 363 array set p2;
#X obj 964 385 array size p2;
#X obj 1478 325 array set d2;
#X obj 1560 347 array size d2;
#X obj 639 299 fractal, f 19;
#X obj 702 324 expr sin(6.2832*$i1/$i2);
#X obj 736 370 list-len;
#X obj 680 346 t l l;
#X obj 652 370 array set d1;
#X obj 724 392 array size d1;
#X obj 394 288 fractal, f 19;
#X obj 457 313 expr sin(6.2832*$i1/$i2);
#X obj 505 359 list-len;
#X obj 440 335 t l l;
#X obj 421 359 array set v1;
#X obj 493 381 array size v1;
#X obj 134 307 fractal, f 19;
#X obj 197 332 expr sin(6.2832*$i1/$i2);
#X obj 186 367 list-len;
#X obj 121 343 t l l;
#X obj 102 367 array set p1;
#X obj 174 389 array size p1;
#X connect 0 0 4 0;
#X connect 2 0 1 11;
#X connect 2 0 12 11;
#X connect 3 0 1 0;
#X connect 3 0 12 0;
#X connect 4 0 3 0;
#X connect 4 1 42 0;
#X connect 4 1 50 0;
#X connect 4 1 52 0;
#X connect 4 1 66 0;
#X connect 4 1 72 0;
#X connect 4 1 78 0;
#X connect 4 2 5 0;
#X connect 4 2 6 0;
#X connect 4 2 11 0;
#X connect 4 2 19 0;
#X connect 4 2 13 0;
#X connect 4 2 14 0;
#X connect 5 0 10 0;
#X connect 5 0 28 0;
#X connect 5 0 8 0;
#X connect 5 0 7 0;
#X connect 5 0 48 0;
#X connect 6 0 9 0;
#X connect 6 0 29 0;
#X connect 6 0 27 0;
#X connect 6 0 26 0;
#X connect 6 0 47 0;
#X connect 7 0 72 5;
#X connect 8 0 72 4;
#X connect 9 0 66 2;
#X connect 10 0 72 2;
#X connect 11 0 41 0;
#X connect 11 0 39 0;
#X connect 11 0 24 0;
#X connect 11 0 22 0;
#X connect 11 0 49 0;
#X connect 13 0 20 0;
#X connect 13 0 31 0;
#X connect 13 0 17 0;
#X connect 13 0 16 0;
#X connect 13 0 45 0;
#X connect 14 0 21 0;
#X connect 14 0 32 0;
#X connect 14 0 18 0;
#X connect 14 0 15 0;
#X connect 14 0 43 0;
#X connect 15 0 42 5;
#X connect 16 0 50 5;
#X connect 17 0 50 4;
#X connect 18 0 42 4;
#X connect 19 0 33 0;
#X connect 19 0 30 0;
#X connect 19 0 23 0;
#X connect 19 0 25 0;
#X connect 19 0 46 0;
#X connect 20 0 50 2;
#X connect 21 0 42 2;
#X connect 22 0 78 5;
#X connect 23 0 52 4;
#X connect 24 0 78 4;
#X connect 25 0 52 5;
#X connect 26 0 66 5;
#X connect 27 0 66 4;
#X connect 28 0 72 3;
#X connect 29 0 66 3;
#X connect 30 0 52 3;
#X connect 31 0 50 3;
#X connect 32 0 42 3;
#X connect 33 0 52 2;
#X connect 39 0 78 3;
#X connect 41 0 78 2;
#X connect 42 1 12 7;
#X connect 42 1 55 0;
#X connect 42 2 44 0;
#X connect 42 3 44 1;
#X connect 43 0 42 1;
#X connect 44 0 42 6;
#X connect 45 0 50 1;
#X connect 46 0 52 1;
#X connect 47 0 66 1;
#X connect 48 0 72 1;
#X connect 49 0 78 1;
#X connect 50 1 12 5;
#X connect 50 1 57 0;
#X connect 50 2 51 0;
#X connect 50 3 51 1;
#X connect 51 0 50 6;
#X connect 52 1 12 3;
#X connect 52 1 61 0;
#X connect 52 2 53 0;
#X connect 52 3 53 1;
#X connect 53 0 52 6;
#X connect 54 0 65 0;
#X connect 55 0 64 0;
#X connect 55 1 54 0;
#X connect 56 0 59 0;
#X connect 57 0 58 0;
#X connect 57 1 56 0;
#X connect 60 0 63 0;
#X connect 61 0 62 0;
#X connect 61 1 60 0;
#X connect 66 1 69 0;
#X connect 66 1 1 7;
#X connect 66 2 67 0;
#X connect 66 3 67 1;
#X connect 67 0 66 6;
#X connect 68 0 71 0;
#X connect 69 0 70 0;
#X connect 69 1 68 0;
#X connect 72 1 75 0;
#X connect 72 1 1 5;
#X connect 72 2 73 0;
#X connect 72 3 73 1;
#X connect 73 0 72 6;
#X connect 74 0 77 0;
#X connect 75 0 76 0;
#X connect 75 1 74 0;
#X connect 78 1 81 0;
#X connect 78 1 1 3;
#X connect 78 2 79 0;
#X connect 78 3 79 1;
#X connect 79 0 78 6;
#X connect 80 0 83 0;
#X connect 81 0 82 0;
#X connect 81 1 80 0;
