#N canvas 4 83 1544 470 10;
#X msg 145 97 64 66 68 64 64 66 68 64 68 69 71 68 69 71 71 73 71 69
68 64 71 73 71 69 68 64 66 59 64 66 59 64;
#X msg 1084 68 500 500 500 500 500 500 500 500 500 500 1000 500 500
1000 250 250 250 250 500 500 250 250 250 250 500 500 500 500 1000 500
500 1000;
#X msg 772 83 100;
#X obj 97 370 play-lists, f 34;
#X obj 754 439 bng 15 250 50 0 empty empty empty 17 7 0 10 -262144
-1 -1;
#X obj 118 54 t b b;
#X obj 85 25 bng 15 250 50 0 empty empty empty 17 7 0 10 -262144 -1
-1;
#X obj 283 196 list-rev;
#X obj 1091 146 list-rev;
#X obj 1209 171 list-math / 2;
#X obj 1315 171 list-math * 2;
#X obj 385 370 play-lists, f 34;
#X obj 268 162 list-math - 12;
#X obj 168 173 list length;
#X floatatom 168 195 5 0 0 0 - - -, f 5;
#X obj 965 156 list-accum;
#X floatatom 965 178 5 0 0 0 - - -, f 5;
#X obj 663 369 play-lists, f 35;
#X obj 994 219 * 2;
#X floatatom 994 241 5 0 0 0 - - -, f 5;
#X obj 384 159 list-math + 12;
#X obj 986 370 play-lists, f 34;
#X obj 1046 190 * 3;
#X floatatom 1046 212 5 0 0 0 - - -, f 5;
#X obj 498 157 list-math - 24;
#X connect 0 0 13 0;
#X connect 0 0 20 0;
#X connect 0 0 12 0;
#X connect 0 0 24 0;
#X connect 0 0 3 4;
#X connect 1 0 8 0;
#X connect 1 0 9 0;
#X connect 1 0 10 0;
#X connect 1 0 15 0;
#X connect 1 0 3 8;
#X connect 2 0 3 6;
#X connect 2 0 11 6;
#X connect 2 0 21 6;
#X connect 2 0 17 6;
#X connect 4 0 3 12;
#X connect 4 0 11 12;
#X connect 4 0 17 12;
#X connect 4 0 21 12;
#X connect 5 0 11 0;
#X connect 5 0 3 0;
#X connect 5 0 17 0;
#X connect 5 0 21 0;
#X connect 5 1 0 0;
#X connect 5 1 2 0;
#X connect 5 1 1 0;
#X connect 6 0 5 0;
#X connect 7 0 11 4;
#X connect 8 0 11 8;
#X connect 9 0 17 8;
#X connect 10 0 21 8;
#X connect 12 0 7 0;
#X connect 13 0 14 0;
#X connect 15 0 16 0;
#X connect 15 0 18 0;
#X connect 15 0 22 0;
#X connect 15 0 11 1;
#X connect 18 0 19 0;
#X connect 18 0 17 1;
#X connect 20 0 17 4;
#X connect 22 0 23 0;
#X connect 22 0 21 1;
#X connect 24 0 21 4;
