#N canvas 557 106 982 942 10;
#X msg 472 111 69 68 69 66 68 64 66 66;
#X msg 661 111 100;
#X obj 102 476 play-lists, f 37;
#X obj 33 18 bng 15 250 50 0 empty empty empty 17 7 0 10 -262144 -1
-1;
#X obj 857 395 bng 15 250 50 0 empty empty empty 17 7 0 10 -262144
-1 -1;
#X msg 141 442 1;
#X obj 144 41 t b b b;
#X obj 796 100 bng 15 250 50 0 empty empty empty 17 7 0 10 -262144
-1 -1;
#X obj 1 525 bng 15 250 50 0 empty empty empty 17 7 0 10 -262144 -1
-1;
#X msg 706 111 1000;
#N canvas 245 606 971 410 ------ 0;
#X obj 28 22 inlet start;
#X obj 890 20 inlet stop;
#X obj 891 306 bng 15 250 50 0 empty empty empty 17 7 0 10 -262144
-1 -1;
#X obj 251 370 play-lists, f 64;
#X obj 254 268 bng 15 250 50 0 empty empty empty 17 7 0 10 -262144
-1 -1;
#X msg 115 328 127;
#X obj 123 369 ctlout 10;
#X obj 642 82 bng 15 250 50 0 empty empty empty 17 7 0 10 -262144 -1
-1;
#X obj 88 210 vsl 15 128 0 127 0 0 empty empty empty 0 -9 0 10 -262144
-1 -1 12300 1;
#X obj 265 193 augment, f 16;
#X obj 609 270 augment, f 16;
#X obj 481 240 augment, f 16;
#X msg 234 302 24000;
#X msg 275 301 8;
#X obj 734 20 inlet config;
#X obj 154 133 t b b, f 6;
#X obj 206 19 inlet pitches;
#X obj 373 20 inlet velocities;
#X obj 576 21 inlet durations;
#X obj 245 156 list-math + 24;
#X msg 470 135 5;
#X obj 287 222 expr $f2+sin(6.2832*$i1/($i4-1));
#X obj 632 322 expr if ($i1 < 4 \, $f2/8 \, $f2/2);
#X obj 285 254 list-round;
#X obj 530 267 expr $f1;
#X connect 0 0 3 0;
#X connect 1 0 2 0;
#X connect 2 0 3 12;
#X connect 4 0 13 0;
#X connect 4 0 12 0;
#X connect 5 0 6 0;
#X connect 7 0 20 0;
#X connect 7 0 15 0;
#X connect 8 0 6 0;
#X connect 9 0 23 0;
#X connect 9 1 21 0;
#X connect 9 2 21 1;
#X connect 9 3 21 2;
#X connect 9 4 21 3;
#X connect 10 0 3 8;
#X connect 10 1 22 0;
#X connect 10 2 22 1;
#X connect 11 0 3 6;
#X connect 11 2 24 0;
#X connect 12 0 3 1;
#X connect 13 0 3 2;
#X connect 13 0 6 2;
#X connect 14 0 7 0;
#X connect 15 0 5 0;
#X connect 15 1 4 0;
#X connect 16 0 19 0;
#X connect 17 0 11 0;
#X connect 18 0 10 0;
#X connect 19 0 9 0;
#X connect 20 0 9 1;
#X connect 20 0 10 1;
#X connect 20 0 11 1;
#X connect 21 0 9 2;
#X connect 22 0 10 2;
#X connect 23 0 3 4;
#X connect 24 0 11 2;
#X restore 537 852 pd ------ seq4;
#N canvas 141 442 995 455 ------ 0;
#X obj 348 243 expr $f2;
#X obj 297 400 play-lists, f 59;
#X obj 316 179 list-math + 12;
#X obj 289 299 bng 15 250 50 0 empty empty empty 17 7 0 10 -262144
-1 -1;
#X msg 336 344 6;
#X obj 680 250 expr $f2/$f4;
#X obj 131 397 ctlout 10;
#X obj 713 105 bng 15 250 50 0 empty empty empty 17 7 0 10 -262144
-1 -1;
#X obj 81 245 vsl 15 128 0 127 0 0 empty empty empty 0 -9 0 10 -262144
-1 -1 6100 1;
#X msg 461 162 6;
#X obj 325 218 augment, f 16;
#X obj 647 220 augment, f 16;
#X msg 287 343 16000;
#X obj 449 219 augment, f 16;
#X obj 444 245 expr $f2-$f2*($f4-$f1-1)/$f4;
#X obj 36 29 inlet start;
#X obj 898 29 inlet stop;
#X obj 745 29 inlet config;
#X obj 208 29 inlet pitches;
#X obj 374 29 inlet velocities;
#X obj 583 29 inlet durations;
#X obj 890 335 bng 15 250 50 0 empty empty empty 17 7 0 10 -262144
-1 -1;
#X obj 346 285 list-round;
#X msg 131 375 0;
#X obj 163 152 t b b, f 6;
#X connect 0 0 10 2;
#X connect 2 0 10 0;
#X connect 3 0 12 0;
#X connect 3 0 4 0;
#X connect 4 0 1 2;
#X connect 4 0 6 2;
#X connect 5 0 11 2;
#X connect 7 0 9 0;
#X connect 7 0 24 0;
#X connect 8 0 6 0;
#X connect 9 0 10 1;
#X connect 9 0 11 1;
#X connect 9 0 13 1;
#X connect 10 0 22 0;
#X connect 10 1 0 0;
#X connect 10 2 0 1;
#X connect 11 0 1 8;
#X connect 11 1 5 0;
#X connect 11 2 5 1;
#X connect 11 3 5 2;
#X connect 11 4 5 3;
#X connect 12 0 1 1;
#X connect 13 1 14 0;
#X connect 13 2 14 1;
#X connect 13 3 14 2;
#X connect 13 4 14 3;
#X connect 14 0 13 2;
#X connect 14 0 1 6;
#X connect 15 0 1 0;
#X connect 16 0 21 0;
#X connect 17 0 7 0;
#X connect 18 0 2 0;
#X connect 19 0 13 0;
#X connect 20 0 11 0;
#X connect 21 0 1 12;
#X connect 22 0 1 4;
#X connect 23 0 6 0;
#X connect 24 0 23 0;
#X connect 24 1 3 0;
#X restore 406 748 pd ------ seq3;
#N canvas 29 251 1077 472 ------ 0;
#X obj 423 294 expr $f2;
#X obj 362 406 play-lists, f 63;
#X obj 392 228 list-math - 12;
#X msg 402 352 4;
#X obj 369 303 bng 15 250 50 0 empty empty empty 17 7 0 10 -262144
-1 -1;
#X obj 745 298 expr $f2/$f4;
#X obj 145 389 ctlout 10;
#X obj 735 129 bng 15 250 50 0 empty empty empty 17 7 0 10 -262144
-1 -1;
#X obj 101 230 vsl 15 128 0 127 0 0 empty empty empty 0 -9 0 10 -262144
-1 -1 900 1;
#X msg 531 215 4;
#X obj 533 264 augment, f 14;
#X obj 395 266 augment, f 15;
#X obj 712 270 augment, f 16;
#X msg 351 342 8000;
#X obj 555 293 expr $f2-$f2*$f1/$f4;
#X obj 28 22 inlet start;
#X obj 890 20 inlet stop;
#X obj 734 20 inlet config;
#X obj 206 19 inlet pitches;
#X obj 373 20 inlet velocities;
#X obj 576 21 inlet durations;
#X obj 910 323 bng 15 250 50 0 empty empty empty 17 7 0 10 -262144
-1 -1;
#X msg 144 359 85;
#X obj 211 182 t b b, f 6;
#X obj 424 320 list-round;
#X connect 0 0 11 2;
#X connect 2 0 11 0;
#X connect 3 0 1 2;
#X connect 3 0 6 2;
#X connect 4 0 13 0;
#X connect 4 0 3 0;
#X connect 5 0 12 2;
#X connect 7 0 9 0;
#X connect 7 0 23 0;
#X connect 8 0 6 0;
#X connect 9 0 10 1;
#X connect 9 0 11 1;
#X connect 9 0 12 1;
#X connect 10 0 1 6;
#X connect 10 1 14 0;
#X connect 10 2 14 1;
#X connect 10 3 14 2;
#X connect 10 4 14 3;
#X connect 11 0 24 0;
#X connect 11 1 0 0;
#X connect 11 2 0 1;
#X connect 12 0 1 8;
#X connect 12 1 5 0;
#X connect 12 2 5 1;
#X connect 12 3 5 2;
#X connect 12 4 5 3;
#X connect 13 0 1 1;
#X connect 14 0 10 2;
#X connect 15 0 1 0;
#X connect 16 0 21 0;
#X connect 17 0 7 0;
#X connect 18 0 2 0;
#X connect 19 0 10 0;
#X connect 20 0 12 0;
#X connect 21 0 1 12;
#X connect 22 0 6 0;
#X connect 23 0 22 0;
#X connect 23 1 4 0;
#X connect 24 0 1 4;
#X restore 283 649 pd ------ seq2;
#X text 321 671 tremolo dim;
#X text 450 770 tremolo cresc;
#X connect 0 0 10 1;
#X connect 0 0 11 1;
#X connect 0 0 12 1;
#X connect 0 0 2 4;
#X connect 1 0 10 2;
#X connect 1 0 11 2;
#X connect 1 0 12 2;
#X connect 1 0 2 6;
#X connect 3 0 6 0;
#X connect 4 0 10 5;
#X connect 4 0 12 5;
#X connect 4 0 11 5;
#X connect 4 0 2 12;
#X connect 5 0 2 2;
#X connect 6 0 8 0;
#X connect 6 1 9 0;
#X connect 6 1 1 0;
#X connect 6 1 0 0;
#X connect 6 1 5 0;
#X connect 6 2 7 0;
#X connect 7 0 10 4;
#X connect 7 0 11 4;
#X connect 7 0 12 4;
#X connect 8 0 2 0;
#X connect 8 0 10 0;
#X connect 8 0 11 0;
#X connect 8 0 12 0;
#X connect 9 0 10 3;
#X connect 9 0 11 3;
#X connect 9 0 12 3;
#X connect 9 0 2 8;
