#N canvas 568 84 918 675 10;
#X msg 242 110 69 68 69 66 68 64 66 66;
#X msg 421 111 100;
#X obj 205 175 play-lists, f 37;
#X obj 33 18 bng 15 250 50 0 empty empty empty 17 7 0 10 -262144 -1
-1;
#X obj 789 530 bng 15 250 50 0 empty empty empty 17 7 0 10 -262144
-1 -1;
#X msg 474 109 500;
#X msg 203 128 1;
#X obj 261 291 augment, f 16;
#X msg 378 240 2;
#X obj 300 321 expr $f2;
#X obj 395 292 augment, f 16;
#X obj 213 362 play-lists, f 34;
#X obj 144 41 t b b b;
#X obj 628 77 bng 15 250 50 0 empty empty empty 17 7 0 10 -262144 -1
-1;
#X obj 11 371 bng 15 250 50 0 empty empty empty 17 7 0 10 -262144 -1
-1;
#X obj 258 253 list-math - 12;
#X msg 182 295 4000;
#X msg 220 292 4;
#X obj 254 495 augment, f 16;
#X obj 308 527 expr $f2;
#X obj 389 498 augment, f 16;
#X obj 206 566 play-lists, f 34;
#X obj 253 449 list-math + 12;
#X msg 365 449 3;
#X msg 175 503 8000;
#X obj 195 230 bng 15 250 50 0 empty empty empty 17 7 0 10 -262144
-1 -1;
#X obj 197 430 bng 15 250 50 0 empty empty empty 17 7 0 10 -262144
-1 -1;
#X msg 218 497 6;
#X obj 422 528 expr $f2/$f4;
#X obj 428 320 expr $f2/$f4;
#X obj 120 337 ctlout 10;
#X msg 126 540 127;
#X msg 120 313 0;
#X obj 126 562 ctlout 10;
#X obj 608 181 bng 15 250 50 0 empty empty empty 17 7 0 10 -262144
-1 -1;
#X obj 653 369 bng 15 250 50 0 empty empty empty 17 7 0 10 -262144
-1 -1;
#X obj 51 448 vsl 15 128 0 127 0 0 empty empty empty 0 -9 0 10 -262144
-1 -1 0 1;
#X obj 77 184 vsl 15 128 0 127 0 0 empty empty empty 0 -9 0 10 -262144
-1 -1 12700 1;
#X connect 0 0 2 3;
#X connect 0 0 15 0;
#X connect 0 0 22 0;
#X connect 1 0 2 5;
#X connect 1 0 11 5;
#X connect 1 0 21 5;
#X connect 3 0 12 0;
#X connect 4 0 2 11;
#X connect 4 0 11 11;
#X connect 4 0 21 11;
#X connect 5 0 2 7;
#X connect 5 0 10 0;
#X connect 5 0 20 0;
#X connect 6 0 2 2;
#X connect 7 0 11 3;
#X connect 7 1 9 0;
#X connect 7 2 9 1;
#X connect 8 0 7 1;
#X connect 8 0 10 1;
#X connect 9 0 7 2;
#X connect 10 0 11 7;
#X connect 10 1 29 0;
#X connect 10 2 29 1;
#X connect 10 4 29 3;
#X connect 12 0 14 0;
#X connect 12 1 5 0;
#X connect 12 1 1 0;
#X connect 12 1 0 0;
#X connect 12 1 6 0;
#X connect 12 1 32 0;
#X connect 12 1 31 0;
#X connect 12 2 13 0;
#X connect 13 0 34 0;
#X connect 13 0 35 0;
#X connect 14 0 2 0;
#X connect 14 0 11 0;
#X connect 14 0 21 0;
#X connect 15 0 7 0;
#X connect 16 0 11 1;
#X connect 17 0 11 2;
#X connect 17 0 30 2;
#X connect 18 0 21 3;
#X connect 18 1 19 0;
#X connect 18 2 19 1;
#X connect 19 0 18 2;
#X connect 20 0 21 7;
#X connect 20 1 28 0;
#X connect 20 2 28 1;
#X connect 20 4 28 3;
#X connect 22 0 18 0;
#X connect 23 0 18 1;
#X connect 23 0 20 1;
#X connect 24 0 21 1;
#X connect 25 0 16 0;
#X connect 25 0 17 0;
#X connect 26 0 24 0;
#X connect 26 0 27 0;
#X connect 27 0 21 2;
#X connect 27 0 33 2;
#X connect 28 0 20 2;
#X connect 29 0 10 2;
#X connect 31 0 33 0;
#X connect 32 0 30 0;
#X connect 34 0 25 0;
#X connect 34 0 8 0;
#X connect 35 0 26 0;
#X connect 35 0 23 0;
#X connect 36 0 33 0;
#X connect 37 0 30 0;
