#N canvas 579 189 1299 563 10;
#N canvas 334 273 763 471 pitches 0;
#X obj 159 67 gen-fun;
#X obj 159 117 augment, f 17;
#X obj 159 332 fit, f 9;
#X obj 159 367 list-round;
#X obj 218 66 expr sin(6.2832*$i1/$i2);
#X obj 183 165 expr $f2 + ($f3-$f2)*$i1/$i4 + $f5 * sin(6.2832*$i1/$i4)
;
#X obj 183 252 expr $f2 + ($f3-$f2)*$i1/$i4 + $f5 * sin(6.2832*$i1/$i4)
;
#X obj 546 184 t f f;
#X obj 546 206 *;
#X floatatom 546 228 5 0 0 0 - - -, f 5;
#X obj 649 249 i;
#X obj 692 258 i;
#X obj 159 421 outlet;
#X obj 195 13 inlet;
#X obj 605 15 inlet;
#X obj 724 17 inlet;
#X obj 126 13 inlet;
#X obj 516 18 inlet;
#X obj 159 210 augment, f 17;
#X obj 56 425 outlet;
#X connect 0 0 1 0;
#X connect 0 1 4 0;
#X connect 1 0 18 0;
#X connect 1 1 5 0;
#X connect 1 2 5 1;
#X connect 1 3 5 2;
#X connect 1 4 5 3;
#X connect 2 0 3 0;
#X connect 3 0 12 0;
#X connect 4 0 0 2;
#X connect 5 0 1 2;
#X connect 6 0 18 2;
#X connect 7 0 8 0;
#X connect 7 1 8 1;
#X connect 8 0 6 4;
#X connect 8 0 9 0;
#X connect 10 0 2 1;
#X connect 11 0 2 2;
#X connect 13 0 0 1;
#X connect 13 0 1 1;
#X connect 13 0 4 1;
#X connect 13 0 18 1;
#X connect 14 0 10 0;
#X connect 15 0 11 0;
#X connect 16 0 0 0;
#X connect 17 0 5 4;
#X connect 17 0 7 0;
#X connect 18 0 2 0;
#X connect 18 0 19 0;
#X connect 18 1 6 0;
#X connect 18 2 6 1;
#X connect 18 3 6 2;
#X connect 18 4 6 3;
#X restore 149 302 pd pitches;
#X obj 125 22 bng 15 250 50 0 empty empty empty 17 7 0 10 -262144 -1
-1;
#X obj 223 401 play-lists, f 49;
#X obj 727 491 bng 15 250 50 0 empty empty empty 17 7 0 10 -262144
-1 -1;
#X obj 112 352 bng 15 250 50 0 empty empty empty 17 7 0 10 -262144
-1 -1;
#X obj 125 49 t b b b, f 89;
#X obj 394 219 bng 15 250 50 0 empty empty empty 17 7 0 10 -262144
-1 -1;
#X obj 572 215 bng 15 250 50 0 empty empty empty 17 7 0 10 -262144
-1 -1;
#N canvas 361 434 763 471 velocities 0;
#X obj 159 67 gen-fun;
#X obj 159 117 augment, f 17;
#X obj 159 210 augment, f 17;
#X obj 159 332 fit, f 9;
#X obj 159 367 list-round;
#X obj 218 66 expr sin(6.2832*$i1/$i2);
#X obj 183 165 expr $f2 + ($f3-$f2)*$i1/$i4 + $f5 * sin(6.2832*$i1/$i4)
;
#X obj 183 252 expr $f2 + ($f3-$f2)*$i1/$i4 + $f5 * sin(6.2832*$i1/$i4)
;
#X obj 546 184 t f f;
#X obj 546 206 *;
#X floatatom 546 228 5 0 0 0 - - -, f 5;
#X obj 649 249 i;
#X obj 692 258 i;
#X obj 159 421 outlet;
#X obj 195 13 inlet;
#X obj 605 15 inlet;
#X obj 724 17 inlet;
#X obj 126 13 inlet;
#X obj 516 18 inlet;
#X obj 54 422 outlet;
#X connect 0 0 1 0;
#X connect 0 1 5 0;
#X connect 1 0 2 0;
#X connect 1 1 6 0;
#X connect 1 2 6 1;
#X connect 1 3 6 2;
#X connect 1 4 6 3;
#X connect 2 0 3 0;
#X connect 2 0 19 0;
#X connect 2 1 7 0;
#X connect 2 2 7 1;
#X connect 2 3 7 2;
#X connect 2 4 7 3;
#X connect 3 0 4 0;
#X connect 4 0 13 0;
#X connect 5 0 0 2;
#X connect 6 0 1 2;
#X connect 7 0 2 2;
#X connect 8 0 9 0;
#X connect 8 1 9 1;
#X connect 9 0 7 4;
#X connect 9 0 10 0;
#X connect 11 0 3 1;
#X connect 12 0 3 2;
#X connect 14 0 0 1;
#X connect 14 0 1 1;
#X connect 14 0 2 1;
#X connect 14 0 5 1;
#X connect 15 0 11 0;
#X connect 16 0 12 0;
#X connect 17 0 0 0;
#X connect 18 0 6 4;
#X connect 18 0 8 0;
#X restore 331 290 pd velocities;
#N canvas 363 431 763 471 durations 0;
#X obj 159 67 gen-fun;
#X obj 159 117 augment, f 17;
#X obj 159 210 augment, f 17;
#X obj 159 332 fit, f 9;
#X obj 159 367 list-round;
#X obj 218 66 expr sin(6.2832*$i1/$i2);
#X obj 183 165 expr $f2 + ($f3-$f2)*$i1/$i4 + $f5 * sin(6.2832*$i1/$i4)
;
#X obj 183 252 expr $f2 + ($f3-$f2)*$i1/$i4 + $f5 * sin(6.2832*$i1/$i4)
;
#X obj 546 184 t f f;
#X obj 546 206 *;
#X floatatom 546 228 5 0 0 0 - - -, f 5;
#X obj 649 249 i;
#X obj 692 258 i;
#X obj 159 421 outlet;
#X obj 195 13 inlet;
#X obj 605 15 inlet;
#X obj 724 17 inlet;
#X obj 126 13 inlet;
#X obj 516 18 inlet;
#X obj 64 420 outlet;
#X connect 0 0 1 0;
#X connect 0 1 5 0;
#X connect 1 0 2 0;
#X connect 1 1 6 0;
#X connect 1 2 6 1;
#X connect 1 3 6 2;
#X connect 1 4 6 3;
#X connect 2 0 3 0;
#X connect 2 0 19 0;
#X connect 2 1 7 0;
#X connect 2 2 7 1;
#X connect 2 3 7 2;
#X connect 2 4 7 3;
#X connect 3 0 4 0;
#X connect 4 0 13 0;
#X connect 5 0 0 2;
#X connect 6 0 1 2;
#X connect 7 0 2 2;
#X connect 8 0 9 0;
#X connect 8 1 9 1;
#X connect 9 0 7 4;
#X connect 9 0 10 0;
#X connect 11 0 3 1;
#X connect 12 0 3 2;
#X connect 14 0 0 1;
#X connect 14 0 1 1;
#X connect 14 0 2 1;
#X connect 14 0 5 1;
#X connect 15 0 11 0;
#X connect 16 0 12 0;
#X connect 17 0 0 0;
#X connect 18 0 6 4;
#X connect 18 0 8 0;
#X restore 523 284 pd durations;
#X msg 452 259 125;
#X msg 417 259 50;
#X msg 528 255 5;
#X msg 350 259 4;
#X obj 242 221 bng 15 250 50 0 empty empty empty 17 7 0 10 -262144
-1 -1;
#N canvas 336 270 763 471 pitches 0;
#X obj 159 67 gen-fun;
#X obj 159 117 augment, f 17;
#X obj 159 210 augment, f 17;
#X obj 159 332 fit, f 9;
#X obj 159 367 list-round;
#X obj 218 66 expr sin(6.2832*$i1/$i2);
#X obj 183 165 expr $f2 + ($f3-$f2)*$i1/$i4 + $f5 * sin(6.2832*$i1/$i4)
;
#X obj 183 252 expr $f2 + ($f3-$f2)*$i1/$i4 + $f5 * sin(6.2832*$i1/$i4)
;
#X obj 546 184 t f f;
#X obj 546 206 *;
#X floatatom 546 228 5 0 0 0 - - -, f 5;
#X obj 649 249 i;
#X obj 692 258 i;
#X obj 159 421 outlet;
#X obj 195 13 inlet;
#X obj 605 15 inlet;
#X obj 724 17 inlet;
#X obj 126 13 inlet;
#X obj 516 18 inlet;
#X obj 60 422 outlet;
#X connect 0 0 1 0;
#X connect 0 1 5 0;
#X connect 1 0 2 0;
#X connect 1 1 6 0;
#X connect 1 2 6 1;
#X connect 1 3 6 2;
#X connect 1 4 6 3;
#X connect 2 0 3 0;
#X connect 2 0 19 0;
#X connect 2 1 7 0;
#X connect 2 2 7 1;
#X connect 2 3 7 2;
#X connect 2 4 7 3;
#X connect 3 0 4 0;
#X connect 4 0 13 0;
#X connect 5 0 0 2;
#X connect 6 0 1 2;
#X connect 7 0 2 2;
#X connect 8 0 9 0;
#X connect 8 1 9 1;
#X connect 9 0 7 4;
#X connect 9 0 10 0;
#X connect 11 0 3 1;
#X connect 12 0 3 2;
#X connect 14 0 0 1;
#X connect 14 0 1 1;
#X connect 14 0 2 1;
#X connect 14 0 5 1;
#X connect 15 0 11 0;
#X connect 16 0 12 0;
#X connect 17 0 0 0;
#X connect 18 0 6 4;
#X connect 18 0 8 0;
#X restore 715 299 pd pitches;
#X obj 789 398 play-lists, f 49;
#X obj 678 349 bng 15 250 50 0 empty empty empty 17 7 0 10 -262144
-1 -1;
#X obj 937 199 bng 15 250 50 0 empty empty empty 17 7 0 10 -262144
-1 -1;
#X obj 1163 158 bng 15 250 50 0 empty empty empty 17 7 0 10 -262144
-1 -1;
#N canvas 361 434 763 471 velocities 0;
#X obj 159 67 gen-fun;
#X obj 159 117 augment, f 17;
#X obj 159 210 augment, f 17;
#X obj 159 332 fit, f 9;
#X obj 159 367 list-round;
#X obj 218 66 expr sin(6.2832*$i1/$i2);
#X obj 183 165 expr $f2 + ($f3-$f2)*$i1/$i4 + $f5 * sin(6.2832*$i1/$i4)
;
#X obj 183 252 expr $f2 + ($f3-$f2)*$i1/$i4 + $f5 * sin(6.2832*$i1/$i4)
;
#X obj 546 184 t f f;
#X obj 546 206 *;
#X floatatom 546 228 5 0 0 0 - - -, f 5;
#X obj 649 249 i;
#X obj 692 258 i;
#X obj 159 421 outlet;
#X obj 195 13 inlet;
#X obj 605 15 inlet;
#X obj 724 17 inlet;
#X obj 126 13 inlet;
#X obj 516 18 inlet;
#X obj 61 420 outlet;
#X connect 0 0 1 0;
#X connect 0 1 5 0;
#X connect 1 0 2 0;
#X connect 1 1 6 0;
#X connect 1 2 6 1;
#X connect 1 3 6 2;
#X connect 1 4 6 3;
#X connect 2 0 3 0;
#X connect 2 0 19 0;
#X connect 2 1 7 0;
#X connect 2 2 7 1;
#X connect 2 3 7 2;
#X connect 2 4 7 3;
#X connect 3 0 4 0;
#X connect 4 0 13 0;
#X connect 5 0 0 2;
#X connect 6 0 1 2;
#X connect 7 0 2 2;
#X connect 8 0 9 0;
#X connect 8 1 9 1;
#X connect 9 0 7 4;
#X connect 9 0 10 0;
#X connect 11 0 3 1;
#X connect 12 0 3 2;
#X connect 14 0 0 1;
#X connect 14 0 1 1;
#X connect 14 0 2 1;
#X connect 14 0 5 1;
#X connect 15 0 11 0;
#X connect 16 0 12 0;
#X connect 17 0 0 0;
#X connect 18 0 6 4;
#X connect 18 0 8 0;
#X restore 898 263 pd velocities;
#N canvas 363 431 763 471 durations 0;
#X obj 159 67 gen-fun;
#X obj 159 117 augment, f 17;
#X obj 159 210 augment, f 17;
#X obj 159 332 fit, f 9;
#X obj 159 367 list-round;
#X obj 218 66 expr sin(6.2832*$i1/$i2);
#X obj 183 165 expr $f2 + ($f3-$f2)*$i1/$i4 + $f5 * sin(6.2832*$i1/$i4)
;
#X obj 183 252 expr $f2 + ($f3-$f2)*$i1/$i4 + $f5 * sin(6.2832*$i1/$i4)
;
#X obj 546 184 t f f;
#X obj 546 206 *;
#X floatatom 546 228 5 0 0 0 - - -, f 5;
#X obj 649 249 i;
#X obj 692 258 i;
#X obj 159 421 outlet;
#X obj 195 13 inlet;
#X obj 605 15 inlet;
#X obj 724 17 inlet;
#X obj 126 13 inlet;
#X obj 516 18 inlet;
#X obj 64 420 outlet;
#X connect 0 0 1 0;
#X connect 0 1 5 0;
#X connect 1 0 2 0;
#X connect 1 1 6 0;
#X connect 1 2 6 1;
#X connect 1 3 6 2;
#X connect 1 4 6 3;
#X connect 2 0 3 0;
#X connect 2 0 19 0;
#X connect 2 1 7 0;
#X connect 2 2 7 1;
#X connect 2 3 7 2;
#X connect 2 4 7 3;
#X connect 3 0 4 0;
#X connect 4 0 13 0;
#X connect 5 0 0 2;
#X connect 6 0 1 2;
#X connect 7 0 2 2;
#X connect 8 0 9 0;
#X connect 8 1 9 1;
#X connect 9 0 7 4;
#X connect 9 0 10 0;
#X connect 11 0 3 1;
#X connect 12 0 3 2;
#X connect 14 0 0 1;
#X connect 14 0 1 1;
#X connect 14 0 2 1;
#X connect 14 0 5 1;
#X connect 15 0 11 0;
#X connect 16 0 12 0;
#X connect 17 0 0 0;
#X connect 18 0 6 4;
#X connect 18 0 8 0;
#X restore 1120 227 pd durations;
#X msg 1221 198 300;
#X msg 997 233 125;
#X msg 962 233 50;
#X msg 1186 198 50;
#X obj 758 218 bng 15 250 50 0 empty empty empty 17 7 0 10 -262144
-1 -1;
#X msg 895 233 5;
#X msg 1119 198 6;
#X msg 294 268 64;
#X msg 775 265 64;
#X msg 259 268 28;
#X msg 810 265 90;
#X msg 630 255 500;
#X msg 595 255 100;
#X obj 142 330 array;
#X obj 308 316 array;
#X obj 502 307 array;
#X obj 708 327 array;
#X obj 887 289 array;
#X obj 1113 251 array;
#X msg 225 268 0.25;
#X msg 383 259 0.25;
#X msg 561 255 0.25;
#X msg 741 265 0.25;
#X msg 928 233 0.25;
#X msg 1152 198 0.25;
#X msg 192 268 6;
#X msg 708 265 7;
#X connect 0 0 35 0;
#X connect 0 1 2 3;
#X connect 1 0 5 0;
#X connect 3 0 2 11;
#X connect 3 0 16 11;
#X connect 4 0 2 0;
#X connect 5 0 4 0;
#X connect 5 0 17 0;
#X connect 5 1 0 0;
#X connect 5 1 8 0;
#X connect 5 1 9 0;
#X connect 5 1 15 0;
#X connect 5 1 20 0;
#X connect 5 1 21 0;
#X connect 5 2 6 0;
#X connect 5 2 7 0;
#X connect 5 2 14 0;
#X connect 5 2 26 0;
#X connect 5 2 18 0;
#X connect 5 2 19 0;
#X connect 6 0 13 0;
#X connect 6 0 42 0;
#X connect 6 0 11 0;
#X connect 6 0 10 0;
#X connect 7 0 12 0;
#X connect 7 0 43 0;
#X connect 7 0 34 0;
#X connect 7 0 33 0;
#X connect 8 0 36 0;
#X connect 8 1 2 5;
#X connect 9 0 37 0;
#X connect 9 1 2 7;
#X connect 10 0 8 4;
#X connect 11 0 8 3;
#X connect 12 0 9 1;
#X connect 13 0 8 1;
#X connect 14 0 47 0;
#X connect 14 0 41 0;
#X connect 14 0 31 0;
#X connect 14 0 29 0;
#X connect 15 0 38 0;
#X connect 15 1 16 3;
#X connect 17 0 16 0;
#X connect 18 0 27 0;
#X connect 18 0 45 0;
#X connect 18 0 24 0;
#X connect 18 0 23 0;
#X connect 19 0 28 0;
#X connect 19 0 46 0;
#X connect 19 0 25 0;
#X connect 19 0 22 0;
#X connect 20 0 39 0;
#X connect 20 1 16 5;
#X connect 21 0 40 0;
#X connect 21 1 16 7;
#X connect 22 0 21 4;
#X connect 23 0 20 4;
#X connect 24 0 20 3;
#X connect 25 0 21 3;
#X connect 26 0 48 0;
#X connect 26 0 44 0;
#X connect 26 0 30 0;
#X connect 26 0 32 0;
#X connect 27 0 20 1;
#X connect 28 0 21 1;
#X connect 29 0 0 4;
#X connect 30 0 15 3;
#X connect 31 0 0 3;
#X connect 32 0 15 4;
#X connect 33 0 9 4;
#X connect 34 0 9 3;
#X connect 41 0 0 2;
#X connect 42 0 8 2;
#X connect 43 0 9 2;
#X connect 44 0 15 2;
#X connect 45 0 20 2;
#X connect 46 0 21 2;
#X connect 47 0 0 1;
#X connect 48 0 15 1;
