#N canvas 364 247 1189 607 10;
#X obj 154 171 gen-fun;
#X obj 109 -3 bng 15 250 50 0 empty empty empty 17 7 0 10 -262144 -1
-1;
#X obj 109 25 t b b b;
#X msg 501 57 90;
#X obj 95 255 bng 15 250 50 0 empty empty empty 17 7 0 10 -262144 -1
-1;
#X obj 610 171 gen-fun;
#X obj 881 171 gen-fun;
#X obj 613 562 bng 15 250 50 0 empty empty empty 17 7 0 10 -262144
-1 -1;
#X obj 447 42 bng 15 250 50 0 empty empty empty 17 7 0 10 -262144 -1
-1;
#N canvas 430 579 641 414 (subpatch) 0;
#X obj 147 84 inlet;
#X obj 207 84 inlet;
#X obj 302 84 inlet;
#X obj 395 84 inlet;
#X obj 207 192 fit, f 8;
#X obj 189 333 play-lists, f 31;
#X msg 261 170 76;
#X msg 229 170 40;
#X obj 207 215 list-round;
#X obj 302 190 fit, f 8;
#X obj 302 213 list-round;
#X obj 395 189 fit, f 8;
#X obj 395 212 list-round;
#X msg 324 168 20;
#X msg 356 168 110;
#X msg 417 167 100;
#X msg 449 167 500;
#X msg 147 203 3;
#X obj 46 84 inlet;
#X obj 571 84 inlet;
#X text 43 64 start;
#X text 140 64 config;
#X text 200 64 pitches;
#X text 288 64 velocities;
#X text 389 64 durations;
#X text 572 64 stop;
#X connect 0 0 17 0;
#X connect 0 0 7 0;
#X connect 0 0 6 0;
#X connect 0 0 13 0;
#X connect 0 0 14 0;
#X connect 0 0 15 0;
#X connect 0 0 16 0;
#X connect 1 0 4 0;
#X connect 2 0 9 0;
#X connect 3 0 11 0;
#X connect 4 0 8 0;
#X connect 6 0 4 2;
#X connect 7 0 4 1;
#X connect 8 0 5 3;
#X connect 9 0 10 0;
#X connect 10 0 5 5;
#X connect 11 0 12 0;
#X connect 12 0 5 7;
#X connect 13 0 9 1;
#X connect 14 0 9 2;
#X connect 15 0 11 1;
#X connect 16 0 11 2;
#X connect 17 0 5 2;
#X connect 18 0 5 0;
#X connect 19 0 5 11;
#X coords 0 0 1 1 85 60 0;
#X restore 459 399 pd, f 13;
#N canvas 424 588 641 414 (subpatch) 0;
#X obj 147 84 inlet;
#X obj 207 84 inlet;
#X obj 302 84 inlet;
#X obj 395 84 inlet;
#X obj 207 192 fit, f 8;
#X obj 189 333 play-lists, f 31;
#X msg 261 170 76;
#X msg 229 170 40;
#X obj 207 215 list-round;
#X obj 302 190 fit, f 8;
#X obj 302 213 list-round;
#X obj 395 189 fit, f 8;
#X obj 395 212 list-round;
#X msg 324 168 20;
#X msg 356 168 110;
#X msg 417 167 100;
#X msg 449 167 500;
#X obj 46 84 inlet;
#X obj 571 84 inlet;
#X text 43 64 start;
#X text 140 64 config;
#X text 200 64 pitches;
#X text 288 64 velocities;
#X text 389 64 durations;
#X text 572 64 stop, f 35;
#X msg 147 203 2;
#X connect 0 0 25 0;
#X connect 0 0 7 0;
#X connect 0 0 6 0;
#X connect 0 0 13 0;
#X connect 0 0 14 0;
#X connect 0 0 15 0;
#X connect 0 0 16 0;
#X connect 1 0 4 0;
#X connect 2 0 9 0;
#X connect 3 0 11 0;
#X connect 4 0 8 0;
#X connect 6 0 4 2;
#X connect 7 0 4 1;
#X connect 8 0 5 3;
#X connect 9 0 10 0;
#X connect 10 0 5 5;
#X connect 11 0 12 0;
#X connect 12 0 5 7;
#X connect 13 0 9 1;
#X connect 14 0 9 2;
#X connect 15 0 11 1;
#X connect 16 0 11 2;
#X connect 17 0 5 0;
#X connect 18 0 5 11;
#X connect 25 0 5 2;
#X coords 0 0 1 1 85 60 0;
#X restore 347 399 pd, f 14;
#N canvas 422 591 641 414 (subpatch) 0;
#X obj 147 84 inlet;
#X obj 207 84 inlet;
#X obj 302 84 inlet;
#X obj 395 84 inlet;
#X obj 207 192 fit, f 8;
#X obj 189 333 play-lists, f 31;
#X msg 261 170 76;
#X msg 229 170 40;
#X obj 207 215 list-round;
#X obj 302 190 fit, f 8;
#X obj 302 213 list-round;
#X obj 395 189 fit, f 8;
#X obj 395 212 list-round;
#X msg 324 168 20;
#X msg 356 168 110;
#X msg 417 167 100;
#X msg 449 167 500;
#X obj 46 84 inlet;
#X obj 571 84 inlet;
#X text 43 64 start;
#X text 140 64 config;
#X text 200 64 pitches;
#X text 288 64 velocities;
#X text 389 64 durations;
#X text 572 64 stop, f 34;
#X msg 147 203 1;
#X connect 0 0 25 0;
#X connect 0 0 7 0;
#X connect 0 0 6 0;
#X connect 0 0 13 0;
#X connect 0 0 14 0;
#X connect 0 0 15 0;
#X connect 0 0 16 0;
#X connect 1 0 4 0;
#X connect 2 0 9 0;
#X connect 3 0 11 0;
#X connect 4 0 8 0;
#X connect 6 0 4 2;
#X connect 7 0 4 1;
#X connect 8 0 5 3;
#X connect 9 0 10 0;
#X connect 10 0 5 5;
#X connect 11 0 12 0;
#X connect 12 0 5 7;
#X connect 13 0 9 1;
#X connect 14 0 9 2;
#X connect 15 0 11 1;
#X connect 16 0 11 2;
#X connect 17 0 5 0;
#X connect 18 0 5 11;
#X connect 25 0 5 2;
#X coords 0 0 1 1 85 60 0;
#X restore 237 398 pd, f 13;
#N canvas 430 579 641 414 (subpatch) 0;
#X obj 147 84 inlet;
#X obj 207 84 inlet;
#X obj 302 84 inlet;
#X obj 395 84 inlet;
#X obj 207 192 fit, f 8;
#X obj 189 333 play-lists, f 31;
#X msg 261 170 76;
#X msg 229 170 40;
#X obj 207 215 list-round;
#X obj 302 190 fit, f 8;
#X obj 302 213 list-round;
#X obj 395 189 fit, f 8;
#X obj 395 212 list-round;
#X msg 324 168 20;
#X msg 356 168 110;
#X msg 417 167 100;
#X msg 449 167 500;
#X obj 46 84 inlet;
#X obj 571 84 inlet;
#X text 43 64 start;
#X text 140 64 config;
#X text 200 64 pitches;
#X text 288 64 velocities;
#X text 389 64 durations;
#X text 572 64 stop, f 35;
#X msg 147 203 4;
#X connect 0 0 25 0;
#X connect 0 0 7 0;
#X connect 0 0 6 0;
#X connect 0 0 13 0;
#X connect 0 0 14 0;
#X connect 0 0 15 0;
#X connect 0 0 16 0;
#X connect 1 0 4 0;
#X connect 2 0 9 0;
#X connect 3 0 11 0;
#X connect 4 0 8 0;
#X connect 6 0 4 2;
#X connect 7 0 4 1;
#X connect 8 0 5 3;
#X connect 9 0 10 0;
#X connect 10 0 5 5;
#X connect 11 0 12 0;
#X connect 12 0 5 7;
#X connect 13 0 9 1;
#X connect 14 0 9 2;
#X connect 15 0 11 1;
#X connect 16 0 11 2;
#X connect 17 0 5 0;
#X connect 18 0 5 11;
#X connect 25 0 5 2;
#X coords 0 0 1 1 85 60 0;
#X restore 562 397 pd, f 14;
#N canvas 430 579 641 414 (subpatch) 0;
#X obj 147 84 inlet;
#X obj 207 84 inlet;
#X obj 302 84 inlet;
#X obj 395 84 inlet;
#X obj 207 192 fit, f 8;
#X obj 189 333 play-lists, f 31;
#X msg 261 170 76;
#X msg 229 170 40;
#X obj 207 215 list-round;
#X obj 302 190 fit, f 8;
#X obj 302 213 list-round;
#X obj 395 189 fit, f 8;
#X obj 395 212 list-round;
#X msg 324 168 20;
#X msg 356 168 110;
#X msg 417 167 100;
#X msg 449 167 500;
#X obj 46 84 inlet;
#X obj 571 84 inlet;
#X text 43 64 start;
#X text 140 64 config;
#X text 200 64 pitches;
#X text 288 64 velocities;
#X text 389 64 durations;
#X text 572 64 stop, f 18;
#X msg 147 203 6;
#X connect 0 0 25 0;
#X connect 0 0 7 0;
#X connect 0 0 6 0;
#X connect 0 0 13 0;
#X connect 0 0 14 0;
#X connect 0 0 15 0;
#X connect 0 0 16 0;
#X connect 1 0 4 0;
#X connect 2 0 9 0;
#X connect 3 0 11 0;
#X connect 4 0 8 0;
#X connect 6 0 4 2;
#X connect 7 0 4 1;
#X connect 8 0 5 3;
#X connect 9 0 10 0;
#X connect 10 0 5 5;
#X connect 11 0 12 0;
#X connect 12 0 5 7;
#X connect 13 0 9 1;
#X connect 14 0 9 2;
#X connect 15 0 11 1;
#X connect 16 0 11 2;
#X connect 17 0 5 0;
#X connect 18 0 5 11;
#X connect 25 0 5 2;
#X coords 0 0 1 1 85 60 0;
#X restore 783 395 pd, f 14;
#N canvas 430 579 641 414 (subpatch) 0;
#X obj 147 84 inlet;
#X obj 207 84 inlet;
#X obj 302 84 inlet;
#X obj 395 84 inlet;
#X obj 207 192 fit, f 8;
#X obj 189 333 play-lists, f 31;
#X msg 261 170 76;
#X msg 229 170 40;
#X obj 207 215 list-round;
#X obj 302 190 fit, f 8;
#X obj 302 213 list-round;
#X obj 395 189 fit, f 8;
#X obj 395 212 list-round;
#X msg 324 168 20;
#X msg 356 168 110;
#X msg 417 167 100;
#X msg 449 167 500;
#X obj 46 84 inlet;
#X obj 571 84 inlet;
#X text 43 64 start;
#X text 140 64 config;
#X text 200 64 pitches;
#X text 288 64 velocities;
#X text 389 64 durations;
#X text 572 64 stop, f 18;
#X msg 147 203 5;
#X connect 0 0 25 0;
#X connect 0 0 7 0;
#X connect 0 0 6 0;
#X connect 0 0 13 0;
#X connect 0 0 14 0;
#X connect 0 0 15 0;
#X connect 0 0 16 0;
#X connect 1 0 4 0;
#X connect 2 0 9 0;
#X connect 3 0 11 0;
#X connect 4 0 8 0;
#X connect 6 0 4 2;
#X connect 7 0 4 1;
#X connect 8 0 5 3;
#X connect 9 0 10 0;
#X connect 10 0 5 5;
#X connect 11 0 12 0;
#X connect 12 0 5 7;
#X connect 13 0 9 1;
#X connect 14 0 9 2;
#X connect 15 0 11 1;
#X connect 16 0 11 2;
#X connect 17 0 5 0;
#X connect 18 0 5 11;
#X connect 25 0 5 2;
#X coords 0 0 1 1 85 60 0;
#X restore 672 395 pd, f 15;
#X text 254 417 1-2-3;
#X text 365 418 1-3-2;
#X text 477 421 2-1-3;
#X text 583 417 2-3-1;
#X text 691 417 3-1-2;
#X text 802 416 3-2-1;
#X obj 216 171 expr sin($f1);
#X obj 672 171 expr sin($f1/3);
#X obj 943 171 expr sin($f1/5);
#X obj 155 195 array;
#X obj 610 193 array;
#X obj 881 193 array;
#X connect 0 0 11 2;
#X connect 0 0 10 2;
#X connect 0 0 9 3;
#X connect 0 0 12 4;
#X connect 0 0 14 3;
#X connect 0 0 13 4;
#X connect 0 0 24 0;
#X connect 0 1 21 0;
#X connect 1 0 2 0;
#X connect 2 0 4 0;
#X connect 2 1 0 0;
#X connect 2 1 5 0;
#X connect 2 1 6 0;
#X connect 2 2 8 0;
#X connect 3 0 0 1;
#X connect 3 0 5 1;
#X connect 3 0 6 1;
#X connect 4 0 11 0;
#X connect 4 0 10 0;
#X connect 4 0 9 0;
#X connect 4 0 12 0;
#X connect 4 0 14 0;
#X connect 4 0 13 0;
#X connect 5 0 11 3;
#X connect 5 0 10 4;
#X connect 5 0 9 2;
#X connect 5 0 12 2;
#X connect 5 0 14 4;
#X connect 5 0 13 3;
#X connect 5 0 25 0;
#X connect 5 1 22 0;
#X connect 6 0 11 4;
#X connect 6 0 10 3;
#X connect 6 0 9 4;
#X connect 6 0 12 3;
#X connect 6 0 14 2;
#X connect 6 0 13 2;
#X connect 6 0 26 0;
#X connect 6 1 23 0;
#X connect 7 0 11 5;
#X connect 7 0 10 5;
#X connect 7 0 9 5;
#X connect 7 0 12 5;
#X connect 7 0 14 5;
#X connect 7 0 13 5;
#X connect 8 0 3 0;
#X connect 8 0 9 1;
#X connect 8 0 10 1;
#X connect 8 0 11 1;
#X connect 8 0 12 1;
#X connect 8 0 14 1;
#X connect 8 0 13 1;
#X connect 21 0 0 2;
#X connect 22 0 5 2;
#X connect 23 0 6 2;
