#N canvas 431 209 1189 774 10;
#X obj 176 210 gen-fun;
#X obj 97 6 bng 15 250 50 0 empty empty empty 17 7 0 10 -262144 -1
-1;
#X obj 130 30 t b b b;
#X obj 130 316 bng 15 250 50 0 empty empty empty 17 7 0 10 -262144
-1 -1;
#X obj 647 210 gen-fun;
#X obj 941 198 gen-fun;
#X obj 613 732 bng 15 250 50 0 empty empty empty 17 7 0 10 -262144
-1 -1;
#X obj 511 27 bng 15 250 50 0 empty empty empty 17 7 0 10 -262144 -1
-1;
#X text 254 587 1-2-3;
#X text 365 588 1-3-2;
#X text 477 591 2-1-3;
#X text 583 587 2-3-1;
#X text 691 587 3-1-2;
#X text 802 586 3-2-1;
#X obj 176 232 array;
#X obj 647 232 array;
#X obj 941 220 array;
#X obj 238 210 expr sin(6.2832*$f1/$i2);
#X obj 709 210 expr sin(6.2832*$f1/$i2);
#X obj 1003 198 expr sin(6.2832*$f1/$i2);
#X text 803 19 rotación Tierra: 1 día;
#X text 809 36 traslación Luna: 28 días;
#X text 823 55 traslación Tierra: 365 días;
#X msg 681 160 28;
#X obj 666 185 *;
#X msg 975 146 365;
#X obj 960 173 *;
#X obj 601 57 t b b;
#N canvas 425 592 641 414 --- 0;
#X obj 147 84 inlet;
#X obj 207 84 inlet;
#X obj 302 84 inlet;
#X obj 395 84 inlet;
#X obj 207 192 fit, f 8;
#X obj 189 333 play-lists, f 31;
#X msg 261 170 76;
#X msg 229 170 40;
#X obj 207 215 list-round;
#X obj 302 190 fit, f 8;
#X obj 302 213 list-round;
#X obj 395 189 fit, f 8;
#X obj 395 212 list-round;
#X msg 324 168 20;
#X msg 356 168 110;
#X msg 417 167 100;
#X msg 449 167 500;
#X obj 46 84 inlet;
#X obj 571 84 inlet;
#X text 43 64 start;
#X text 140 64 config;
#X text 200 64 pitches;
#X text 288 64 velocities;
#X text 389 64 durations;
#X text 572 64 stop, f 35;
#X msg 147 203 2;
#X connect 0 0 25 0;
#X connect 0 0 7 0;
#X connect 0 0 6 0;
#X connect 0 0 13 0;
#X connect 0 0 14 0;
#X connect 0 0 15 0;
#X connect 0 0 16 0;
#X connect 1 0 4 0;
#X connect 2 0 9 0;
#X connect 3 0 11 0;
#X connect 4 0 8 0;
#X connect 6 0 4 2;
#X connect 7 0 4 1;
#X connect 8 0 5 4;
#X connect 9 0 10 0;
#X connect 10 0 5 6;
#X connect 11 0 12 0;
#X connect 12 0 5 8;
#X connect 13 0 9 1;
#X connect 14 0 9 2;
#X connect 15 0 11 1;
#X connect 16 0 11 2;
#X connect 17 0 5 0;
#X connect 18 0 5 12;
#X connect 25 0 5 2;
#X coords 0 0 1 1 85 60 0;
#X restore 347 569 pd --- 1-3-2;
#N canvas 421 598 641 414 --- 0;
#X obj 147 84 inlet;
#X obj 207 84 inlet;
#X obj 302 84 inlet;
#X obj 395 84 inlet;
#X obj 207 192 fit, f 8;
#X obj 189 333 play-lists, f 31;
#X msg 261 170 76;
#X msg 229 170 40;
#X obj 207 215 list-round;
#X obj 302 190 fit, f 8;
#X obj 302 213 list-round;
#X obj 395 189 fit, f 8;
#X obj 395 212 list-round;
#X msg 324 168 20;
#X msg 356 168 110;
#X msg 417 167 100;
#X msg 449 167 500;
#X obj 46 84 inlet;
#X obj 571 84 inlet;
#X text 43 64 start;
#X text 140 64 config;
#X text 200 64 pitches;
#X text 288 64 velocities;
#X text 389 64 durations;
#X text 572 64 stop, f 34;
#X msg 147 203 1;
#X connect 0 0 25 0;
#X connect 0 0 7 0;
#X connect 0 0 6 0;
#X connect 0 0 13 0;
#X connect 0 0 14 0;
#X connect 0 0 15 0;
#X connect 0 0 16 0;
#X connect 1 0 4 0;
#X connect 2 0 9 0;
#X connect 3 0 11 0;
#X connect 4 0 8 0;
#X connect 6 0 4 2;
#X connect 7 0 4 1;
#X connect 8 0 5 4;
#X connect 9 0 10 0;
#X connect 10 0 5 6;
#X connect 11 0 12 0;
#X connect 12 0 5 8;
#X connect 13 0 9 1;
#X connect 14 0 9 2;
#X connect 15 0 11 1;
#X connect 16 0 11 2;
#X connect 17 0 5 0;
#X connect 18 0 5 12;
#X connect 25 0 5 2;
#X coords 0 0 1 1 85 60 0;
#X restore 237 568 pd --- 1-2-3;
#N canvas 431 583 641 414 --- 0;
#X obj 147 84 inlet;
#X obj 207 84 inlet;
#X obj 302 84 inlet;
#X obj 395 84 inlet;
#X obj 207 192 fit, f 8;
#X obj 189 333 play-lists, f 31;
#X msg 261 170 76;
#X msg 229 170 40;
#X obj 207 215 list-round;
#X obj 302 190 fit, f 8;
#X obj 302 213 list-round;
#X obj 395 189 fit, f 8;
#X obj 395 212 list-round;
#X msg 324 168 20;
#X msg 356 168 110;
#X msg 417 167 100;
#X msg 449 167 500;
#X msg 147 203 3;
#X obj 46 84 inlet;
#X obj 571 84 inlet;
#X text 43 64 start;
#X text 140 64 config;
#X text 200 64 pitches;
#X text 288 64 velocities;
#X text 389 64 durations;
#X text 572 64 stop, f 13;
#X connect 0 0 17 0;
#X connect 0 0 7 0;
#X connect 0 0 6 0;
#X connect 0 0 13 0;
#X connect 0 0 14 0;
#X connect 0 0 15 0;
#X connect 0 0 16 0;
#X connect 1 0 4 0;
#X connect 2 0 9 0;
#X connect 3 0 11 0;
#X connect 4 0 8 0;
#X connect 6 0 4 2;
#X connect 7 0 4 1;
#X connect 8 0 5 4;
#X connect 9 0 10 0;
#X connect 10 0 5 6;
#X connect 11 0 12 0;
#X connect 12 0 5 8;
#X connect 13 0 9 1;
#X connect 14 0 9 2;
#X connect 15 0 11 1;
#X connect 16 0 11 2;
#X connect 17 0 5 2;
#X connect 18 0 5 0;
#X connect 19 0 5 12;
#X coords 0 0 1 1 85 60 0;
#X restore 459 569 pd --- 2-1-3;
#N canvas 431 583 641 414 --- 0;
#X obj 147 84 inlet;
#X obj 207 84 inlet;
#X obj 302 84 inlet;
#X obj 395 84 inlet;
#X obj 207 192 fit, f 8;
#X obj 189 333 play-lists, f 31;
#X msg 261 170 76;
#X msg 229 170 40;
#X obj 207 215 list-round;
#X obj 302 190 fit, f 8;
#X obj 302 213 list-round;
#X obj 395 189 fit, f 8;
#X obj 395 212 list-round;
#X msg 324 168 20;
#X msg 356 168 110;
#X msg 417 167 100;
#X msg 449 167 500;
#X obj 46 84 inlet;
#X obj 571 84 inlet;
#X text 43 64 start;
#X text 140 64 config;
#X text 200 64 pitches;
#X text 288 64 velocities;
#X text 389 64 durations;
#X text 572 64 stop, f 35;
#X msg 147 203 4, f 4;
#X connect 0 0 25 0;
#X connect 0 0 7 0;
#X connect 0 0 6 0;
#X connect 0 0 13 0;
#X connect 0 0 14 0;
#X connect 0 0 15 0;
#X connect 0 0 16 0;
#X connect 1 0 4 0;
#X connect 2 0 9 0;
#X connect 3 0 11 0;
#X connect 4 0 8 0;
#X connect 6 0 4 2;
#X connect 7 0 4 1;
#X connect 8 0 5 4;
#X connect 9 0 10 0;
#X connect 10 0 5 6;
#X connect 11 0 12 0;
#X connect 12 0 5 8;
#X connect 13 0 9 1;
#X connect 14 0 9 2;
#X connect 15 0 11 1;
#X connect 16 0 11 2;
#X connect 17 0 5 0;
#X connect 18 0 5 12;
#X connect 25 0 5 2;
#X coords 0 0 1 1 85 60 0;
#X restore 562 567 pd --- 2-3-1;
#N canvas 431 583 641 414 --- 0;
#X obj 147 84 inlet;
#X obj 207 84 inlet;
#X obj 302 84 inlet;
#X obj 395 84 inlet;
#X obj 207 192 fit, f 8;
#X obj 189 333 play-lists, f 31;
#X msg 261 170 76;
#X msg 229 170 40;
#X obj 207 215 list-round;
#X obj 302 190 fit, f 8;
#X obj 302 213 list-round;
#X obj 395 189 fit, f 8;
#X obj 395 212 list-round;
#X msg 324 168 20;
#X msg 356 168 110;
#X msg 417 167 100;
#X msg 449 167 500;
#X obj 46 84 inlet;
#X obj 571 84 inlet;
#X text 43 64 start;
#X text 140 64 config;
#X text 200 64 pitches;
#X text 288 64 velocities;
#X text 389 64 durations;
#X text 572 64 stop, f 18;
#X msg 147 203 5, f 4;
#X connect 0 0 25 0;
#X connect 0 0 7 0;
#X connect 0 0 6 0;
#X connect 0 0 13 0;
#X connect 0 0 14 0;
#X connect 0 0 15 0;
#X connect 0 0 16 0;
#X connect 1 0 4 0;
#X connect 2 0 9 0;
#X connect 3 0 11 0;
#X connect 4 0 8 0;
#X connect 6 0 4 2;
#X connect 7 0 4 1;
#X connect 8 0 5 4;
#X connect 9 0 10 0;
#X connect 10 0 5 6;
#X connect 11 0 12 0;
#X connect 12 0 5 8;
#X connect 13 0 9 1;
#X connect 14 0 9 2;
#X connect 15 0 11 1;
#X connect 16 0 11 2;
#X connect 17 0 5 0;
#X connect 18 0 5 12;
#X connect 25 0 5 2;
#X coords 0 0 1 1 85 60 0;
#X restore 672 565 pd --- 3-1-2;
#N canvas 431 583 641 414 --- 0;
#X obj 147 84 inlet;
#X obj 207 84 inlet;
#X obj 302 84 inlet;
#X obj 395 84 inlet;
#X obj 207 192 fit, f 8;
#X obj 189 333 play-lists, f 31;
#X msg 261 170 76;
#X msg 229 170 40;
#X obj 207 215 list-round;
#X obj 302 190 fit, f 8;
#X obj 302 213 list-round;
#X obj 395 189 fit, f 8;
#X obj 395 212 list-round;
#X msg 324 168 20;
#X msg 356 168 110;
#X msg 417 167 100;
#X msg 449 167 500;
#X obj 46 84 inlet;
#X obj 571 84 inlet;
#X text 43 64 start;
#X text 140 64 config;
#X text 200 64 pitches;
#X text 288 64 velocities;
#X text 389 64 durations;
#X text 572 64 stop, f 18;
#X msg 147 203 6, f 4;
#X connect 0 0 25 0;
#X connect 0 0 7 0;
#X connect 0 0 6 0;
#X connect 0 0 13 0;
#X connect 0 0 14 0;
#X connect 0 0 15 0;
#X connect 0 0 16 0;
#X connect 1 0 4 0;
#X connect 2 0 9 0;
#X connect 3 0 11 0;
#X connect 4 0 8 0;
#X connect 6 0 4 2;
#X connect 7 0 4 1;
#X connect 8 0 5 4;
#X connect 9 0 10 0;
#X connect 10 0 5 6;
#X connect 11 0 12 0;
#X connect 12 0 5 8;
#X connect 13 0 9 1;
#X connect 14 0 9 2;
#X connect 15 0 11 1;
#X connect 16 0 11 2;
#X connect 17 0 5 0;
#X connect 18 0 5 12;
#X connect 25 0 5 2;
#X coords 0 0 1 1 85 60 0;
#X restore 783 565 pd --- 3-2-1;
#X msg 604 93 24;
#X text 886 88 AVISO: TARDA EN ARRANCAR \, REQUIERE CÁLCULO;
#X connect 0 0 29 2;
#X connect 0 0 28 2;
#X connect 0 0 30 3;
#X connect 0 0 31 4;
#X connect 0 0 32 3;
#X connect 0 0 33 4;
#X connect 0 0 14 0;
#X connect 0 1 17 0;
#X connect 1 0 2 0;
#X connect 2 0 3 0;
#X connect 2 1 0 0;
#X connect 2 1 4 0;
#X connect 2 1 5 0;
#X connect 2 2 7 0;
#X connect 3 0 30 0;
#X connect 3 0 28 0;
#X connect 3 0 29 0;
#X connect 3 0 31 0;
#X connect 3 0 32 0;
#X connect 3 0 33 0;
#X connect 4 0 29 3;
#X connect 4 0 28 4;
#X connect 4 0 30 2;
#X connect 4 0 31 2;
#X connect 4 0 32 4;
#X connect 4 0 33 3;
#X connect 4 0 15 0;
#X connect 4 1 18 0;
#X connect 5 0 29 4;
#X connect 5 0 28 3;
#X connect 5 0 30 4;
#X connect 5 0 31 3;
#X connect 5 0 32 2;
#X connect 5 0 33 2;
#X connect 5 0 16 0;
#X connect 5 1 19 0;
#X connect 6 0 29 5;
#X connect 6 0 28 5;
#X connect 6 0 30 5;
#X connect 6 0 31 5;
#X connect 6 0 32 5;
#X connect 6 0 33 5;
#X connect 7 0 30 1;
#X connect 7 0 28 1;
#X connect 7 0 29 1;
#X connect 7 0 31 1;
#X connect 7 0 32 1;
#X connect 7 0 33 1;
#X connect 7 0 27 0;
#X connect 17 0 0 2;
#X connect 18 0 4 2;
#X connect 19 0 5 2;
#X connect 23 0 24 1;
#X connect 23 0 18 1;
#X connect 24 0 4 1;
#X connect 25 0 26 1;
#X connect 25 0 19 1;
#X connect 26 0 5 1;
#X connect 27 0 34 0;
#X connect 27 1 25 0;
#X connect 27 1 23 0;
#X connect 34 0 17 1;
#X connect 34 0 0 1;
#X connect 34 0 24 0;
#X connect 34 0 26 0;
