#N canvas 686 134 1160 668 10;
#X obj 207 132 gen-fun;
#X obj 127 25 bng 15 250 50 0 empty empty empty 17 7 0 10 -262144 -1
-1;
#X obj 179 305 fit, f 8;
#X msg 538 310 100;
#X obj 156 502 play-lists, f 31;
#X obj 127 53 t b b b;
#X obj 620 622 bng 15 250 50 0 empty empty empty 17 7 0 10 -262144
-1 -1;
#X msg 233 283 76;
#X obj 17 208 array;
#X msg 201 283 40;
#X obj 179 328 list-round;
#X msg 377 322 100;
#X msg 213 100 90;
#X obj 269 132 expr sin($f1*3.1416/45);
#X obj 448 501 play-lists, f 39;
#X obj 579 311 fit, f 8;
#X msg 635 289 200;
#X msg 601 289 100;
#X obj 518 95 bng 15 250 50 0 empty empty empty 17 7 0 10 -262144 -1
-1;
#X msg 115 316 1;
#X msg 493 312 2;
#X obj 42 417 bng 15 250 50 0 empty empty empty 17 7 0 10 -262144 -1
-1;
#X obj 794 493 play-lists, f 31;
#X obj 916 296 fit, f 8;
#X msg 938 274 1;
#X msg 970 274 127;
#X obj 916 318 list-round;
#X msg 817 305 3;
#X msg 299 322 100;
#X msg 1015 313 150;
#X msg 454 312 90;
#X msg 777 307 180;
#X connect 0 0 2 0;
#X connect 0 0 8 0;
#X connect 0 0 15 0;
#X connect 0 0 23 0;
#X connect 0 1 13 0;
#X connect 1 0 5 0;
#X connect 2 0 10 0;
#X connect 3 0 14 5;
#X connect 5 0 21 0;
#X connect 5 1 0 0;
#X connect 5 2 12 0;
#X connect 5 2 18 0;
#X connect 6 0 4 11;
#X connect 6 0 14 11;
#X connect 6 0 22 11;
#X connect 7 0 2 2;
#X connect 9 0 2 1;
#X connect 10 0 4 3;
#X connect 10 0 14 3;
#X connect 10 0 22 3;
#X connect 11 0 4 7;
#X connect 12 0 0 1;
#X connect 13 0 0 2;
#X connect 15 0 14 7;
#X connect 16 0 15 2;
#X connect 17 0 15 1;
#X connect 18 0 11 0;
#X connect 18 0 3 0;
#X connect 18 0 28 0;
#X connect 18 0 7 0;
#X connect 18 0 9 0;
#X connect 18 0 19 0;
#X connect 18 0 20 0;
#X connect 18 0 16 0;
#X connect 18 0 17 0;
#X connect 18 0 27 0;
#X connect 18 0 24 0;
#X connect 18 0 25 0;
#X connect 18 0 29 0;
#X connect 18 0 30 0;
#X connect 18 0 31 0;
#X connect 19 0 4 2;
#X connect 20 0 14 2;
#X connect 21 0 4 0;
#X connect 21 0 14 0;
#X connect 21 0 22 0;
#X connect 23 0 26 0;
#X connect 24 0 23 1;
#X connect 25 0 23 2;
#X connect 26 0 22 5;
#X connect 27 0 22 2;
#X connect 28 0 4 5;
#X connect 29 0 22 7;
#X connect 30 0 14 1;
#X connect 31 0 22 1;
