#N canvas 445 166 1392 609 10;
#X obj 138 4 bng 15 250 50 0 empty empty empty 17 7 0 10 -262144 -1
-1;
#X obj 153 93 t b b;
#X msg 185 148 22 23 24 25 26 27 28 29 30 31 32 33 34;
#X msg 156 247 3;
#X msg 217 175 RND;
#X obj 676 454 bng 15 250 50 0 empty empty empty 17 7 0 10 -262144
-1 -1;
#X msg 269 203 500;
#X obj 460 284 play-lists, f 32;
#X obj 490 83 t b b;
#X msg 579 167 RND;
#X msg 522 194 6;
#X msg 614 213 RND;
#X msg 631 234 250 250 250 250 500 500 1000;
#X msg 648 254 RND;
#X msg 479 218 4000;
#X msg 562 147 64 66 67 69 70 71 72 73 74 76;
#X obj 134 285 play-lists, f 32;
#X msg 596 193 100 85 97 56 120 1 1;
#X obj 884 284 play-lists, f 32;
#X obj 914 83 t b b;
#X msg 1030 167 RND;
#X msg 1065 213 RND;
#X msg 1099 254 RND;
#X msg 1047 193 100 85 97 56 120 1 1;
#X msg 966 184 9;
#X msg 1082 234 333 333 333 333 666 1000;
#X msg 684 258 ms 16000;
#X msg 909 199 19000;
#X msg 1013 147 52 55 57 59 62 64;
#X obj 42 375 t b b;
#X obj 23 567 play-lists, f 32;
#X msg 45 529 10;
#X msg 143 478 500 375 125;
#X msg 74 430 53;
#X msg 108 478 50;
#X msg 234 203 127;
#X obj 42 321 bng 15 250 50 0 empty empty empty 17 7 0 10 -262144 -1
-1;
#X obj 581 458 bng 15 250 50 0 empty empty empty 17 7 0 10 -262144
-1 -1;
#X connect 0 0 1 0;
#X connect 0 0 8 0;
#X connect 0 0 19 0;
#X connect 0 0 36 0;
#X connect 1 0 16 0;
#X connect 1 1 2 0;
#X connect 1 1 3 0;
#X connect 1 1 4 0;
#X connect 1 1 35 0;
#X connect 1 1 6 0;
#X connect 2 0 16 4;
#X connect 3 0 16 2;
#X connect 4 0 16 5;
#X connect 5 0 16 12;
#X connect 5 0 7 12;
#X connect 5 0 18 12;
#X connect 5 0 30 12;
#X connect 6 0 16 8;
#X connect 8 0 7 0;
#X connect 8 1 15 0;
#X connect 8 1 10 0;
#X connect 8 1 9 0;
#X connect 8 1 17 0;
#X connect 8 1 12 0;
#X connect 8 1 11 0;
#X connect 8 1 13 0;
#X connect 8 1 14 0;
#X connect 8 1 26 0;
#X connect 9 0 7 5;
#X connect 10 0 7 2;
#X connect 11 0 7 7;
#X connect 12 0 7 8;
#X connect 13 0 7 9;
#X connect 14 0 7 1;
#X connect 15 0 7 4;
#X connect 17 0 7 6;
#X connect 19 0 18 0;
#X connect 19 1 28 0;
#X connect 19 1 24 0;
#X connect 19 1 20 0;
#X connect 19 1 23 0;
#X connect 19 1 25 0;
#X connect 19 1 21 0;
#X connect 19 1 22 0;
#X connect 19 1 27 0;
#X connect 20 0 18 5;
#X connect 21 0 18 7;
#X connect 22 0 18 9;
#X connect 23 0 18 6;
#X connect 24 0 18 2;
#X connect 25 0 18 8;
#X connect 26 0 7 10;
#X connect 27 0 18 1;
#X connect 28 0 18 4;
#X connect 29 0 30 0;
#X connect 29 1 33 0;
#X connect 29 1 31 0;
#X connect 29 1 34 0;
#X connect 29 1 32 0;
#X connect 31 0 30 2;
#X connect 32 0 30 8;
#X connect 33 0 30 4;
#X connect 34 0 30 6;
#X connect 35 0 16 6;
#X connect 36 0 29 0;
#X connect 37 0 16 11;
#X connect 37 0 7 11;
#X connect 37 0 18 11;
#X connect 37 0 30 11;
