#N canvas 1149 442 742 450 10;
#N canvas 656 109 763 471 pitches 0;
#X obj 159 67 gen-fun;
#X obj 159 117 augment, f 17;
#X obj 159 210 augment, f 17;
#X obj 159 332 fit, f 9;
#X obj 159 367 list-round;
#X obj 218 66 expr sin(6.2832*$i1/$i2);
#X obj 183 165 expr $f2 + ($f3-$f2)*$i1/$i4 + $f5 * sin(6.2832*$i1/$i4)
;
#X obj 183 252 expr $f2 + ($f3-$f2)*$i1/$i4 + $f5 * sin(6.2832*$i1/$i4)
;
#X obj 546 184 t f f;
#X obj 546 206 *;
#X floatatom 546 228 5 0 0 0 - - -, f 5;
#X obj 649 249 i;
#X obj 692 258 i;
#X obj 159 421 outlet;
#X obj 195 13 inlet;
#X obj 605 15 inlet;
#X obj 724 17 inlet;
#X obj 126 13 inlet;
#X obj 516 18 inlet;
#X connect 0 0 1 0;
#X connect 0 1 5 0;
#X connect 1 0 2 0;
#X connect 1 1 6 0;
#X connect 1 2 6 1;
#X connect 1 3 6 2;
#X connect 1 4 6 3;
#X connect 2 0 3 0;
#X connect 2 1 7 0;
#X connect 2 2 7 1;
#X connect 2 3 7 2;
#X connect 2 4 7 3;
#X connect 3 0 4 0;
#X connect 4 0 13 0;
#X connect 5 0 0 2;
#X connect 6 0 1 2;
#X connect 7 0 2 2;
#X connect 8 0 9 0;
#X connect 8 1 9 1;
#X connect 9 0 7 4;
#X connect 9 0 10 0;
#X connect 11 0 3 1;
#X connect 12 0 3 2;
#X connect 14 0 0 1;
#X connect 14 0 1 1;
#X connect 14 0 2 1;
#X connect 14 0 5 1;
#X connect 15 0 11 0;
#X connect 16 0 12 0;
#X connect 17 0 0 0;
#X connect 18 0 6 4;
#X connect 18 0 8 0;
#X restore 125 154 pd pitches;
#X obj 125 22 bng 15 250 50 0 empty empty empty 17 7 0 10 -262144 -1
-1;
#X msg 180 95 6;
#X msg 213 95 0.5;
#X msg 247 95 40;
#X msg 282 95 88;
#X obj 111 196 print;
#X msg 356 95 100;
#X msg 428 95 250;
#X obj 189 292 play-lists, f 49;
#X obj 544 234 bng 15 250 50 0 empty empty empty 17 7 0 10 -262144
-1 -1;
#X obj 78 220 bng 15 250 50 0 empty empty empty 17 7 0 10 -262144 -1
-1;
#X obj 125 49 t b b b, f 19;
#X connect 0 0 6 0;
#X connect 0 0 9 3;
#X connect 1 0 12 0;
#X connect 2 0 0 1;
#X connect 3 0 0 2;
#X connect 4 0 0 3;
#X connect 5 0 0 4;
#X connect 7 0 9 5;
#X connect 8 0 9 7;
#X connect 10 0 9 11;
#X connect 11 0 9 0;
#X connect 12 0 11 0;
#X connect 12 1 0 0;
#X connect 12 2 2 0;
#X connect 12 2 3 0;
#X connect 12 2 4 0;
#X connect 12 2 5 0;
#X connect 12 2 7 0;
#X connect 12 2 8 0;
