#N canvas 1425 144 450 300 10;
#X obj 88 65 bng 15 250 50 0 empty empty empty 17 7 0 10 -262144 -1
-1;
#X obj 238 122 bng 15 250 50 0 empty empty empty 17 7 0 10 -262144
-1 -1;
#X obj 307 122 bng 15 250 50 0 empty empty empty 17 7 0 10 -262144
-1 -1;
#X obj 88 85 t b b;
#X obj 307 206 reset-ctls;
#X text 308 98 stop;
#X text 204 98 reset;
#N canvas 102 360 1377 642 oboe 1;
#X obj 203 384 fractal, f 19;
#X msg 236 349 3;
#X msg 314 349 0.5;
#X obj 317 44 bng 15 250 50 0 empty empty empty 17 7 0 10 -262144 -1
-1;
#X obj 317 64 t b b, f 32;
#X msg 276 349 5;
#X obj 577 334 fractal, f 19;
#X msg 660 299 0.5;
#X obj 668 358 expr sin(6.2832*$i1/$i2);
#X msg 622 299 4;
#X msg 582 299 3;
#X msg 739 299 127;
#X msg 1049 405 RND;
#X obj 1280 77 bng 15 250 50 0 empty empty empty 17 7 0 10 -262144
-1 -1;
#X obj 317 21 inlet configure;
#X obj 1000 383 bng 15 250 50 0 empty empty empty 17 7 0 10 -262144
-1 -1;
#X obj 51 21 inlet play;
#X obj 51 74 bng 15 250 50 0 empty empty empty 17 7 0 10 -262144 -1
-1;
#X obj 1280 21 inlet stop;
#X obj 1192 21 inlet reset;
#X obj 1192 77 bng 15 250 50 0 empty empty empty 17 7 0 10 -262144
-1 -1;
#X obj 51 593 play-notes, f 176;
#X obj 109 517 ctlout 10;
#X msg 109 488 27;
#X obj 125 459 t b b;
#X obj 113 555 ctlout 7;
#X msg 76 489 127;
#X msg 196 486 2;
#X obj 271 410 expr sin(6.2832*$i1/$i2)+sin(2*6.2832*$i1/$i2);
#X msg 353 349 58;
#X obj 281 463 list-map;
#X obj 355 463 intone;
#X obj 394 439 scale PEN;
#X msg 977 405 300 150;
#X msg 699 299 30;
#X msg 393 349 84;
#X obj 885 260 gen-fun;
#X msg 911 215 13;
#X obj 883 285 list-map;
#X obj 956 285 expr if ($f1 > -0.1 \, 1 \, 0);
#X obj 958 259 expr sin($i1/2)*sin(-6.2832*$i1/3);
#X connect 0 1 30 0;
#X connect 0 2 28 0;
#X connect 0 3 28 1;
#X connect 1 0 0 1;
#X connect 2 0 0 3;
#X connect 3 0 4 0;
#X connect 4 0 15 0;
#X connect 4 0 6 0;
#X connect 4 0 0 0;
#X connect 4 0 24 0;
#X connect 4 0 36 0;
#X connect 4 1 2 0;
#X connect 4 1 5 0;
#X connect 4 1 1 0;
#X connect 4 1 35 0;
#X connect 4 1 29 0;
#X connect 4 1 10 0;
#X connect 4 1 9 0;
#X connect 4 1 7 0;
#X connect 4 1 34 0;
#X connect 4 1 11 0;
#X connect 4 1 32 0;
#X connect 4 1 37 0;
#X connect 5 0 0 2;
#X connect 6 1 21 6;
#X connect 6 2 8 0;
#X connect 6 3 8 1;
#X connect 7 0 6 3;
#X connect 8 0 6 6;
#X connect 9 0 6 2;
#X connect 10 0 6 1;
#X connect 11 0 6 5;
#X connect 12 0 21 11;
#X connect 13 0 21 14;
#X connect 14 0 3 0;
#X connect 15 0 33 0;
#X connect 15 0 12 0;
#X connect 16 0 17 0;
#X connect 17 0 21 0;
#X connect 18 0 13 0;
#X connect 19 0 20 0;
#X connect 20 0 21 13;
#X connect 23 0 22 0;
#X connect 24 0 23 0;
#X connect 24 0 26 0;
#X connect 24 1 27 0;
#X connect 26 0 25 0;
#X connect 27 0 21 2;
#X connect 27 0 22 2;
#X connect 27 0 25 2;
#X connect 28 0 0 6;
#X connect 29 0 0 4;
#X connect 30 0 21 4;
#X connect 30 1 31 0;
#X connect 31 0 30 1;
#X connect 32 0 31 1;
#X connect 33 0 21 10;
#X connect 34 0 6 4;
#X connect 35 0 0 5;
#X connect 36 0 38 0;
#X connect 36 1 40 0;
#X connect 37 0 36 1;
#X connect 38 0 21 8;
#X connect 38 1 39 0;
#X connect 39 0 38 1;
#X connect 40 0 36 2;
#X restore 88 207 pd oboe;
#N canvas 516 343 1386 714 cello 1;
#X obj 183 464 fractal, f 19;
#X msg 208 429 3;
#X msg 286 429 0.5;
#X obj 317 94 bng 15 250 50 0 empty empty empty 17 7 0 10 -262144 -1
-1;
#X obj 317 132 t b b, f 32;
#X obj 490 382 fractal, f 19;
#X msg 573 347 0.5;
#X msg 652 347 127;
#X msg 1165 353 RND;
#X obj 1300 97 bng 15 250 50 0 empty empty empty 17 7 0 10 -262144
-1 -1;
#X obj 51 673 play-notes, f 179;
#X obj 317 41 inlet configure;
#X obj 1116 267 bng 15 250 50 0 empty empty empty 17 7 0 10 -262144
-1 -1;
#X obj 51 41 inlet play;
#X obj 51 94 bng 15 250 50 0 empty empty empty 17 7 0 10 -262144 -1
-1;
#X obj 1300 41 inlet stop;
#X obj 1210 41 inlet reset;
#X obj 1210 97 bng 15 250 50 0 empty empty empty 17 7 0 10 -262144
-1 -1;
#X msg 248 429 4;
#X msg 535 347 5;
#X msg 495 347 3;
#X obj 111 573 ctlout 10;
#X obj 137 518 t b b;
#X msg 111 547 120;
#X obj 112 616 ctlout 7;
#X msg 73 547 127;
#X obj 257 490 expr sin(-6.2832*$i1/$i2)-sin(2*6.2832*$i1/$i2);
#X obj 260 543 list-map;
#X obj 334 543 intone;
#X obj 373 519 scale PEN;
#X msg 195 546 8;
#X msg 325 429 36;
#X msg 365 429 60;
#X msg 1073 353 300 300 600;
#X obj 763 299 gen-fun;
#X obj 761 324 list-map;
#X msg 789 254 15;
#X msg 612 347 40;
#X obj 836 298 expr sin($i1/3)*sin(6.2832*$i1/3);
#X obj 834 324 expr if ($f1 > -0.1 \, 1 \, 0);
#X obj 581 406 expr cos(6.2832*$i1/$i2);
#X connect 0 1 27 0;
#X connect 0 2 26 0;
#X connect 0 3 26 1;
#X connect 1 0 0 1;
#X connect 2 0 0 3;
#X connect 3 0 4 0;
#X connect 4 0 22 0;
#X connect 4 0 5 0;
#X connect 4 0 34 0;
#X connect 4 0 0 0;
#X connect 4 0 12 0;
#X connect 4 1 2 0;
#X connect 4 1 18 0;
#X connect 4 1 1 0;
#X connect 4 1 32 0;
#X connect 4 1 31 0;
#X connect 4 1 37 0;
#X connect 4 1 7 0;
#X connect 4 1 6 0;
#X connect 4 1 19 0;
#X connect 4 1 20 0;
#X connect 4 1 29 0;
#X connect 4 1 36 0;
#X connect 5 1 10 6;
#X connect 5 2 40 0;
#X connect 5 3 40 1;
#X connect 6 0 5 3;
#X connect 7 0 5 5;
#X connect 8 0 10 11;
#X connect 9 0 10 14;
#X connect 11 0 3 0;
#X connect 12 0 33 0;
#X connect 12 0 8 0;
#X connect 13 0 14 0;
#X connect 14 0 10 0;
#X connect 15 0 9 0;
#X connect 16 0 17 0;
#X connect 17 0 10 13;
#X connect 18 0 0 2;
#X connect 19 0 5 2;
#X connect 20 0 5 1;
#X connect 22 0 23 0;
#X connect 22 0 25 0;
#X connect 22 1 30 0;
#X connect 23 0 21 0;
#X connect 25 0 24 0;
#X connect 26 0 0 6;
#X connect 27 0 10 4;
#X connect 27 1 28 0;
#X connect 28 0 27 1;
#X connect 29 0 28 1;
#X connect 30 0 10 2;
#X connect 30 0 21 2;
#X connect 30 0 24 2;
#X connect 31 0 0 4;
#X connect 32 0 0 5;
#X connect 33 0 10 10;
#X connect 34 0 35 0;
#X connect 34 1 38 0;
#X connect 35 0 10 8;
#X connect 35 1 39 0;
#X connect 36 0 34 1;
#X connect 37 0 5 4;
#X connect 38 0 34 2;
#X connect 39 0 35 1;
#X connect 40 0 5 6;
#X restore 198 207 pd cello;
#X connect 0 0 3 0;
#X connect 1 0 8 2;
#X connect 1 0 7 2;
#X connect 1 0 4 0;
#X connect 2 0 8 3;
#X connect 2 0 7 3;
#X connect 3 0 7 0;
#X connect 3 0 8 0;
#X connect 3 1 8 1;
#X connect 3 1 7 1;
