#N canvas 1224 137 457 358 10;
#N canvas 55 239 1150 431 flute 0;
#X obj 263 264 fractal, f 19;
#X msg 288 229 3;
#X msg 366 229 0.5;
#X obj 337 290 expr sin(6.2832*$i1/$i2);
#X obj 317 94 bng 15 250 50 0 empty empty empty 17 7 0 10 -262144 -1
-1;
#X obj 317 132 t b b, f 32;
#X msg 328 229 5;
#X msg 405 229 60;
#X msg 445 229 96;
#X obj 557 264 fractal, f 19;
#X msg 640 229 0.5;
#X obj 648 288 expr sin(6.2832*$i1/$i2);
#X msg 602 229 4;
#X msg 562 229 3;
#X msg 679 229 0;
#X msg 719 229 127;
#X msg 877 264 200 100;
#X msg 196 287 1;
#X msg 949 264 RND;
#X obj 1069 97 bng 15 250 50 0 empty empty empty 17 7 0 10 -262144
-1 -1;
#X obj 317 41 inlet configure;
#X obj 900 242 bng 15 250 50 0 empty empty empty 17 7 0 10 -262144
-1 -1;
#X obj 51 41 inlet play;
#X obj 51 94 bng 15 250 50 0 empty empty empty 17 7 0 10 -262144 -1
-1;
#X obj 1069 41 inlet stop;
#X obj 997 41 inlet reset;
#X obj 997 97 bng 15 250 50 0 empty empty empty 17 7 0 10 -262144 -1
-1;
#X obj 655 315 expr if ($i1 > 50 \, 1 \, 0);
#X obj 582 315 list-map;
#X obj 51 393 play-notes, f 146;
#X obj 109 317 ctlout 10;
#X msg 109 288 27;
#X obj 125 259 t b b;
#X obj 113 355 ctlout 7;
#X msg 76 289 127;
#X connect 0 1 29 4;
#X connect 0 2 3 0;
#X connect 0 3 3 1;
#X connect 1 0 0 1;
#X connect 2 0 0 3;
#X connect 3 0 0 6;
#X connect 4 0 5 0;
#X connect 5 0 21 0;
#X connect 5 0 9 0;
#X connect 5 0 0 0;
#X connect 5 0 32 0;
#X connect 5 1 2 0;
#X connect 5 1 6 0;
#X connect 5 1 1 0;
#X connect 5 1 8 0;
#X connect 5 1 7 0;
#X connect 5 1 13 0;
#X connect 5 1 12 0;
#X connect 5 1 10 0;
#X connect 5 1 14 0;
#X connect 5 1 15 0;
#X connect 6 0 0 2;
#X connect 7 0 0 4;
#X connect 8 0 0 5;
#X connect 9 1 28 0;
#X connect 9 1 29 6;
#X connect 9 2 11 0;
#X connect 9 3 11 1;
#X connect 10 0 9 3;
#X connect 11 0 9 6;
#X connect 12 0 9 2;
#X connect 13 0 9 1;
#X connect 14 0 9 4;
#X connect 15 0 9 5;
#X connect 16 0 29 10;
#X connect 17 0 29 2;
#X connect 17 0 30 2;
#X connect 17 0 33 2;
#X connect 18 0 29 11;
#X connect 19 0 29 14;
#X connect 20 0 4 0;
#X connect 21 0 16 0;
#X connect 21 0 18 0;
#X connect 22 0 23 0;
#X connect 23 0 29 0;
#X connect 24 0 19 0;
#X connect 25 0 26 0;
#X connect 26 0 29 13;
#X connect 27 0 28 1;
#X connect 28 0 29 8;
#X connect 28 1 27 0;
#X connect 31 0 30 0;
#X connect 32 0 31 0;
#X connect 32 0 34 0;
#X connect 32 1 17 0;
#X connect 34 0 33 0;
#X restore 116 236 pd flute;
#N canvas 751 518 1150 431 violin 0;
#X obj 263 264 fractal, f 19;
#X msg 288 229 3;
#X msg 366 229 0.5;
#X obj 337 290 expr sin(6.2832*$i1/$i2);
#X obj 317 94 bng 15 250 50 0 empty empty empty 17 7 0 10 -262144 -1
-1;
#X obj 317 132 t b b, f 32;
#X msg 445 229 96;
#X obj 557 264 fractal, f 19;
#X msg 640 229 0.5;
#X obj 648 288 expr sin(6.2832*$i1/$i2);
#X msg 679 229 0;
#X msg 719 229 127;
#X msg 877 264 200 100;
#X msg 949 264 RND;
#X obj 1069 97 bng 15 250 50 0 empty empty empty 17 7 0 10 -262144
-1 -1;
#X obj 51 363 play-notes, f 146;
#X obj 317 41 inlet configure;
#X obj 900 242 bng 15 250 50 0 empty empty empty 17 7 0 10 -262144
-1 -1;
#X obj 51 41 inlet play;
#X obj 51 94 bng 15 250 50 0 empty empty empty 17 7 0 10 -262144 -1
-1;
#X obj 1069 41 inlet stop;
#X obj 997 41 inlet reset;
#X obj 997 97 bng 15 250 50 0 empty empty empty 17 7 0 10 -262144 -1
-1;
#X msg 328 229 4;
#X obj 640 315 expr if ($i1 > 50 \, 1 \, 0);
#X obj 567 315 list-map;
#X obj 297 179 t b b b, f 70;
#X msg 405 229 55;
#X msg 602 229 5;
#X msg 562 229 3;
#X obj 111 283 ctlout 10;
#X obj 137 228 t b b;
#X msg 111 257 120;
#X msg 195 256 6;
#X obj 112 326 ctlout 7;
#X msg 73 257 127;
#X connect 0 1 15 4;
#X connect 0 2 3 0;
#X connect 0 3 3 1;
#X connect 1 0 0 1;
#X connect 2 0 0 3;
#X connect 3 0 0 6;
#X connect 4 0 5 0;
#X connect 5 0 26 0;
#X connect 5 0 31 0;
#X connect 5 1 2 0;
#X connect 5 1 23 0;
#X connect 5 1 1 0;
#X connect 5 1 6 0;
#X connect 5 1 27 0;
#X connect 5 1 10 0;
#X connect 5 1 11 0;
#X connect 5 1 8 0;
#X connect 5 1 28 0;
#X connect 5 1 29 0;
#X connect 6 0 0 5;
#X connect 7 1 15 6;
#X connect 7 1 25 0;
#X connect 7 2 9 0;
#X connect 7 3 9 1;
#X connect 8 0 7 3;
#X connect 9 0 7 6;
#X connect 10 0 7 4;
#X connect 11 0 7 5;
#X connect 12 0 15 10;
#X connect 13 0 15 11;
#X connect 14 0 15 14;
#X connect 16 0 4 0;
#X connect 17 0 12 0;
#X connect 17 0 13 0;
#X connect 18 0 19 0;
#X connect 19 0 15 0;
#X connect 20 0 14 0;
#X connect 21 0 22 0;
#X connect 22 0 15 13;
#X connect 23 0 0 2;
#X connect 24 0 25 1;
#X connect 25 0 15 8;
#X connect 25 1 24 0;
#X connect 26 0 0 0;
#X connect 26 1 7 0;
#X connect 26 2 17 0;
#X connect 27 0 0 4;
#X connect 28 0 7 2;
#X connect 29 0 7 1;
#X connect 31 0 32 0;
#X connect 31 0 35 0;
#X connect 31 1 33 0;
#X connect 32 0 30 0;
#X connect 33 0 15 2;
#X connect 33 0 30 2;
#X connect 33 0 34 2;
#X connect 35 0 34 0;
#X restore 226 236 pd violin;
#X obj 116 94 bng 15 250 50 0 empty empty empty 17 7 0 10 -262144 -1
-1;
#X obj 266 151 bng 15 250 50 0 empty empty empty 17 7 0 10 -262144
-1 -1;
#X obj 335 151 bng 15 250 50 0 empty empty empty 17 7 0 10 -262144
-1 -1;
#X obj 116 114 t b b;
#X obj 335 235 reset-ctls;
#X text 336 127 stop;
#X text 232 127 reset;
#X connect 2 0 5 0;
#X connect 3 0 1 2;
#X connect 3 0 0 2;
#X connect 3 0 6 0;
#X connect 4 0 1 3;
#X connect 4 0 0 3;
#X connect 5 0 0 0;
#X connect 5 0 1 0;
#X connect 5 1 1 1;
#X connect 5 1 0 1;
