#N canvas 919 86 677 300 10;
#X obj 138 65 bng 15 250 50 0 empty empty empty 17 7 0 10 -262144 -1
-1;
#X obj 468 82 bng 15 250 50 0 empty empty empty 17 7 0 10 -262144 -1
-1;
#X obj 537 82 bng 15 250 50 0 empty empty empty 17 7 0 10 -262144 -1
-1;
#X obj 138 85 t b b, f 19;
#X obj 507 246 reset-ctls;
#X text 538 58 stop;
#X text 434 58 reset;
#N canvas 480 235 1377 642 perc 0;
#X obj 203 384 fractal, f 19;
#X obj 317 44 bng 15 250 50 0 empty empty empty 17 7 0 10 -262144 -1
-1;
#X obj 317 64 t b b, f 52;
#X obj 1280 77 bng 15 250 50 0 empty empty empty 17 7 0 10 -262144
-1 -1;
#X obj 317 21 inlet configure;
#X obj 977 383 bng 15 250 50 0 empty empty empty 17 7 0 10 -262144
-1 -1;
#X obj 51 21 inlet play;
#X obj 51 74 bng 15 250 50 0 empty empty empty 17 7 0 10 -262144 -1
-1;
#X obj 1280 21 inlet stop;
#X obj 1192 21 inlet reset;
#X obj 1192 77 bng 15 250 50 0 empty empty empty 17 7 0 10 -262144
-1 -1;
#X obj 125 459 t b b;
#X obj 113 555 ctlout 7;
#X obj 271 410 expr sin(6.2832*$i1/$i2)+sin(2*6.2832*$i1/$i2);
#X msg 236 349 2;
#X msg 314 349 0.3;
#X msg 353 349 48;
#X msg 393 349 72;
#X msg 196 486 10;
#X obj 619 358 gen-fun;
#X msg 739 330 RNR;
#X msg 977 405 150;
#X msg 642 329 16;
#X msg 857 364 1;
#X msg 276 349 8;
#X obj 689 358 expr 120 - $i1 * 6;
#X msg 76 489 70;
#X obj 51 593 play-notes, f 176;
#X connect 0 1 27 4;
#X connect 0 2 13 0;
#X connect 0 3 13 1;
#X connect 1 0 2 0;
#X connect 2 0 5 0;
#X connect 2 0 0 0;
#X connect 2 0 11 0;
#X connect 2 0 19 0;
#X connect 2 0 20 0;
#X connect 2 0 23 0;
#X connect 2 1 15 0;
#X connect 2 1 24 0;
#X connect 2 1 14 0;
#X connect 2 1 17 0;
#X connect 2 1 16 0;
#X connect 2 1 22 0;
#X connect 3 0 27 14;
#X connect 4 0 1 0;
#X connect 5 0 21 0;
#X connect 6 0 7 0;
#X connect 7 0 27 0;
#X connect 8 0 3 0;
#X connect 9 0 10 0;
#X connect 10 0 27 13;
#X connect 11 0 26 0;
#X connect 11 1 18 0;
#X connect 13 0 0 6;
#X connect 14 0 0 1;
#X connect 15 0 0 3;
#X connect 16 0 0 4;
#X connect 17 0 0 5;
#X connect 18 0 12 2;
#X connect 18 0 27 2;
#X connect 19 0 27 6;
#X connect 19 1 25 0;
#X connect 20 0 27 7;
#X connect 21 0 27 10;
#X connect 22 0 19 1;
#X connect 23 0 27 8;
#X connect 24 0 0 2;
#X connect 25 0 19 2;
#X connect 26 0 12 0;
#X restore 88 247 pd perc;
#N canvas 491 286 1386 714 bass 0;
#X obj 183 464 fractal, f 19;
#X msg 286 429 0.5;
#X obj 317 94 bng 15 250 50 0 empty empty empty 17 7 0 10 -262144 -1
-1;
#X obj 317 132 t b b, f 32;
#X obj 490 382 fractal, f 19;
#X msg 573 347 0.5;
#X obj 581 406 expr sin(6.2832*$i1/$i2);
#X msg 652 347 127;
#X msg 1165 353 RND;
#X obj 1300 97 bng 15 250 50 0 empty empty empty 17 7 0 10 -262144
-1 -1;
#X obj 317 41 inlet configure;
#X obj 1116 267 bng 15 250 50 0 empty empty empty 17 7 0 10 -262144
-1 -1;
#X obj 51 41 inlet play;
#X obj 51 94 bng 15 250 50 0 empty empty empty 17 7 0 10 -262144 -1
-1;
#X obj 1300 41 inlet stop;
#X obj 1210 41 inlet reset;
#X obj 1210 97 bng 15 250 50 0 empty empty empty 17 7 0 10 -262144
-1 -1;
#X msg 248 429 4;
#X msg 535 347 5;
#X msg 495 347 3;
#X obj 111 573 ctlout 10;
#X obj 137 518 t b b;
#X obj 112 616 ctlout 7;
#X obj 257 490 expr sin(-6.2832*$i1/$i2)-sin(2*6.2832*$i1/$i2);
#X obj 260 543 list-map;
#X obj 334 543 intone;
#X msg 1073 353 300 300 600;
#X obj 763 299 gen-fun;
#X obj 761 324 list-map;
#X msg 789 254 15;
#X obj 836 298 expr sin($i1/3)*sin(6.2832*$i1/3);
#X obj 834 324 expr if ($f1 > -0.1 \, 1 \, 0);
#X obj 373 519 scale OCT;
#X msg 195 546 1;
#X msg 111 547 64;
#X msg 208 429 4;
#X msg 325 429 24;
#X msg 365 429 36;
#X msg 73 547 127;
#X msg 103 306 9600;
#X obj 51 673 play-notes, f 179;
#X msg 612 347 90;
#X connect 0 1 24 0;
#X connect 0 2 23 0;
#X connect 0 3 23 1;
#X connect 1 0 0 3;
#X connect 2 0 3 0;
#X connect 2 0 39 0;
#X connect 3 0 21 0;
#X connect 3 0 4 0;
#X connect 3 0 27 0;
#X connect 3 0 0 0;
#X connect 3 0 11 0;
#X connect 3 1 1 0;
#X connect 3 1 17 0;
#X connect 3 1 35 0;
#X connect 3 1 37 0;
#X connect 3 1 36 0;
#X connect 3 1 41 0;
#X connect 3 1 7 0;
#X connect 3 1 5 0;
#X connect 3 1 18 0;
#X connect 3 1 19 0;
#X connect 3 1 29 0;
#X connect 3 1 32 0;
#X connect 4 1 40 6;
#X connect 4 2 6 0;
#X connect 4 3 6 1;
#X connect 5 0 4 3;
#X connect 6 0 4 6;
#X connect 7 0 4 5;
#X connect 8 0 40 11;
#X connect 9 0 40 14;
#X connect 10 0 2 0;
#X connect 11 0 26 0;
#X connect 11 0 8 0;
#X connect 12 0 13 0;
#X connect 13 0 40 0;
#X connect 14 0 9 0;
#X connect 15 0 16 0;
#X connect 16 0 40 13;
#X connect 17 0 0 2;
#X connect 18 0 4 2;
#X connect 19 0 4 1;
#X connect 21 0 34 0;
#X connect 21 0 38 0;
#X connect 21 1 33 0;
#X connect 23 0 0 6;
#X connect 24 0 40 4;
#X connect 24 1 25 0;
#X connect 25 0 24 1;
#X connect 26 0 40 10;
#X connect 27 0 28 0;
#X connect 27 1 30 0;
#X connect 28 0 40 8;
#X connect 28 1 31 0;
#X connect 29 0 27 1;
#X connect 30 0 27 2;
#X connect 31 0 28 1;
#X connect 32 0 25 1;
#X connect 33 0 20 2;
#X connect 33 0 22 2;
#X connect 33 0 40 2;
#X connect 34 0 20 0;
#X connect 35 0 0 1;
#X connect 36 0 0 4;
#X connect 37 0 0 5;
#X connect 38 0 22 0;
#X connect 39 0 40 1;
#X connect 41 0 4 4;
#X restore 198 247 pd bass;
#N canvas 182 300 1426 773 pad 0;
#X obj 253 434 fractal, f 19;
#X msg 356 399 0.5;
#X obj 317 94 bng 15 250 50 0 empty empty empty 17 7 0 10 -262144 -1
-1;
#X obj 317 132 t b b, f 32;
#X obj 700 382 fractal, f 19;
#X msg 783 347 0.5;
#X obj 791 406 expr sin(6.2832*$i1/$i2);
#X msg 862 347 127;
#X obj 1300 97 bng 15 250 50 0 empty empty empty 17 7 0 10 -262144
-1 -1;
#X obj 51 673 play-notes, f 179;
#X obj 317 41 inlet configure;
#X obj 1117 267 bng 15 250 50 0 empty empty empty 17 7 0 10 -262144
-1 -1;
#X obj 51 41 inlet play;
#X obj 51 94 bng 15 250 50 0 empty empty empty 17 7 0 10 -262144 -1
-1;
#X obj 1300 41 inlet stop;
#X obj 1210 41 inlet reset;
#X obj 1210 97 bng 15 250 50 0 empty empty empty 17 7 0 10 -262144
-1 -1;
#X msg 745 347 5;
#X obj 191 536 ctlout 10;
#X obj 217 478 t b b;
#X obj 192 575 ctlout 7;
#X obj 327 460 expr sin(-6.2832*$i1/$i2)-sin(2*6.2832*$i1/$i2);
#X obj 330 513 list-map;
#X obj 404 513 intone;
#X obj 443 489 scale OCT;
#X msg 191 507 64;
#X msg 822 347 80;
#X msg 153 507 127;
#X msg 275 506 2;
#X msg 103 306 19200;
#X msg 395 399 54;
#X msg 435 399 66;
#X msg 278 399 3;
#X msg 318 399 3;
#X msg 705 347 2;
#X msg 1073 353 2000;
#X obj 71 713 play-notes, f 174;
#X msg 127 343 38400;
#X msg 1110 381 1500;
#X connect 0 1 22 0;
#X connect 0 2 21 0;
#X connect 0 3 21 1;
#X connect 1 0 0 3;
#X connect 2 0 3 0;
#X connect 2 0 29 0;
#X connect 2 0 37 0;
#X connect 3 0 19 0;
#X connect 3 0 4 0;
#X connect 3 0 0 0;
#X connect 3 0 11 0;
#X connect 3 1 1 0;
#X connect 3 1 33 0;
#X connect 3 1 32 0;
#X connect 3 1 31 0;
#X connect 3 1 30 0;
#X connect 3 1 26 0;
#X connect 3 1 7 0;
#X connect 3 1 5 0;
#X connect 3 1 17 0;
#X connect 3 1 34 0;
#X connect 3 1 24 0;
#X connect 4 1 9 6;
#X connect 4 1 36 6;
#X connect 4 2 6 0;
#X connect 4 3 6 1;
#X connect 5 0 4 3;
#X connect 6 0 4 6;
#X connect 7 0 4 5;
#X connect 8 0 9 14;
#X connect 8 0 36 14;
#X connect 10 0 2 0;
#X connect 11 0 35 0;
#X connect 11 0 38 0;
#X connect 12 0 13 0;
#X connect 13 0 9 0;
#X connect 13 0 36 0;
#X connect 14 0 8 0;
#X connect 15 0 16 0;
#X connect 16 0 9 13;
#X connect 16 0 36 13;
#X connect 17 0 4 2;
#X connect 19 0 25 0;
#X connect 19 0 27 0;
#X connect 19 1 28 0;
#X connect 21 0 0 6;
#X connect 22 0 9 4;
#X connect 22 0 36 4;
#X connect 22 1 23 0;
#X connect 23 0 22 1;
#X connect 24 0 23 1;
#X connect 25 0 18 0;
#X connect 26 0 4 4;
#X connect 27 0 20 0;
#X connect 28 0 9 2;
#X connect 28 0 18 2;
#X connect 28 0 20 2;
#X connect 28 0 36 2;
#X connect 29 0 9 1;
#X connect 30 0 0 4;
#X connect 31 0 0 5;
#X connect 32 0 0 1;
#X connect 33 0 0 2;
#X connect 34 0 4 1;
#X connect 35 0 9 10;
#X connect 37 0 36 1;
#X connect 38 0 36 10;
#X restore 308 247 pd pad;
#N canvas 472 356 1386 714 syn 0;
#X obj 183 464 fractal, f 19;
#X obj 317 94 bng 15 250 50 0 empty empty empty 17 7 0 10 -262144 -1
-1;
#X obj 317 132 t b b, f 32;
#X obj 490 382 fractal, f 19;
#X obj 581 406 expr sin(6.2832*$i1/$i2);
#X msg 652 347 127;
#X msg 1165 353 RND;
#X obj 1300 97 bng 15 250 50 0 empty empty empty 17 7 0 10 -262144
-1 -1;
#X obj 317 41 inlet configure;
#X obj 1116 267 bng 15 250 50 0 empty empty empty 17 7 0 10 -262144
-1 -1;
#X obj 51 41 inlet play;
#X obj 51 94 bng 15 250 50 0 empty empty empty 17 7 0 10 -262144 -1
-1;
#X obj 1300 41 inlet stop;
#X obj 1210 41 inlet reset;
#X obj 1210 97 bng 15 250 50 0 empty empty empty 17 7 0 10 -262144
-1 -1;
#X obj 111 573 ctlout 10;
#X obj 137 518 t b b;
#X obj 112 616 ctlout 7;
#X obj 257 490 expr sin(-6.2832*$i1/$i2)-sin(2*6.2832*$i1/$i2);
#X obj 260 543 list-map;
#X obj 334 543 intone;
#X obj 763 299 gen-fun;
#X obj 761 324 list-map;
#X obj 373 519 scale OCT;
#X msg 111 547 64;
#X msg 73 547 127;
#X obj 51 673 play-notes, f 179;
#X msg 612 347 90;
#X msg 195 546 3;
#X msg 103 306 76800;
#X msg 248 429 5;
#X msg 495 347 4;
#X msg 535 347 4;
#X msg 573 347 0.3;
#X obj 836 298 expr sin(6.2832*$i1/$i2);
#X msg 1068 378 100 100 200;
#X msg 325 429 60;
#X msg 365 429 84;
#X msg 208 429 3;
#X msg 286 429 0.5;
#X msg 815 252 91;
#X obj 834 324 expr if ($f1 > 0.2 \, 1 \, 0);
#X connect 0 1 19 0;
#X connect 0 2 18 0;
#X connect 0 3 18 1;
#X connect 1 0 2 0;
#X connect 1 0 29 0;
#X connect 2 0 16 0;
#X connect 2 0 3 0;
#X connect 2 0 21 0;
#X connect 2 0 0 0;
#X connect 2 0 9 0;
#X connect 2 1 39 0;
#X connect 2 1 30 0;
#X connect 2 1 38 0;
#X connect 2 1 37 0;
#X connect 2 1 36 0;
#X connect 2 1 27 0;
#X connect 2 1 5 0;
#X connect 2 1 33 0;
#X connect 2 1 32 0;
#X connect 2 1 31 0;
#X connect 2 1 40 0;
#X connect 2 1 23 0;
#X connect 3 1 26 6;
#X connect 3 2 4 0;
#X connect 3 3 4 1;
#X connect 4 0 3 6;
#X connect 5 0 3 5;
#X connect 6 0 26 11;
#X connect 7 0 26 14;
#X connect 8 0 1 0;
#X connect 9 0 35 0;
#X connect 9 0 6 0;
#X connect 10 0 11 0;
#X connect 11 0 26 0;
#X connect 12 0 7 0;
#X connect 13 0 14 0;
#X connect 14 0 26 13;
#X connect 16 0 24 0;
#X connect 16 0 25 0;
#X connect 16 1 28 0;
#X connect 18 0 0 6;
#X connect 19 0 26 4;
#X connect 19 1 20 0;
#X connect 20 0 19 1;
#X connect 21 0 22 0;
#X connect 21 1 34 0;
#X connect 22 0 26 8;
#X connect 22 1 41 0;
#X connect 23 0 20 1;
#X connect 24 0 15 0;
#X connect 25 0 17 0;
#X connect 27 0 3 4;
#X connect 28 0 15 2;
#X connect 28 0 17 2;
#X connect 28 0 26 2;
#X connect 29 0 26 1;
#X connect 30 0 0 2;
#X connect 31 0 3 1;
#X connect 32 0 3 2;
#X connect 33 0 3 3;
#X connect 34 0 21 2;
#X connect 35 0 26 10;
#X connect 36 0 0 4;
#X connect 37 0 0 5;
#X connect 38 0 0 1;
#X connect 39 0 0 3;
#X connect 40 0 21 1;
#X connect 40 0 34 1;
#X connect 41 0 22 1;
#X restore 408 247 pd syn;
#X connect 0 0 3 0;
#X connect 1 0 8 2;
#X connect 1 0 7 2;
#X connect 1 0 4 0;
#X connect 1 0 9 2;
#X connect 1 0 10 2;
#X connect 2 0 8 3;
#X connect 2 0 7 3;
#X connect 2 0 9 3;
#X connect 2 0 10 3;
#X connect 3 0 7 0;
#X connect 3 0 8 0;
#X connect 3 0 9 0;
#X connect 3 0 10 0;
#X connect 3 1 8 1;
#X connect 3 1 7 1;
#X connect 3 1 9 1;
#X connect 3 1 10 1;
